<svg id="Layer_1" data-name="Layer 1" xmlns="http://www.w3.org/2000/svg" viewBox="0 0 312 196"><defs><style>.cls-1{fill:#f0f0f0;stroke:#404040;}.cls-1,.cls-2,.cls-7,.cls-8{stroke-miterlimit:10;}.cls-2,.cls-7,.cls-8{fill:none;stroke:#000;}.cls-3{fill:#c0e0ff;}.cls-4{fill:#404040;}.cls-5{fill:#fff;}.cls-6{fill:#ffc0c0;}.cls-7{stroke-dasharray:1.94 1.94;}.cls-8{stroke-dasharray:1.99 1.99;}</style></defs><rect class="cls-1" x="160" y="12" width="138" height="162"/><rect class="cls-1" x="38" y="74" width="94" height="26"/><path class="cls-2" d="M278,12V25a12,12,0,0,1-12,12h0"/><path class="cls-2" d="M292,12v9a18,18,0,0,1-18,18h-8"/><path class="cls-2" d="M278,12V67a12,12,0,0,1-12,12h0"/><path class="cls-2" d="M292,12V63a18,18,0,0,1-18,18h-8"/><path class="cls-2" d="M278,12v99a12,12,0,0,1-12,12h0"/><path class="cls-2" d="M292,12v95a18,18,0,0,1-18,18h-8"/><path class="cls-2" d="M278,12V139a12,12,0,0,1-12,12h0"/><path class="cls-2" d="M292,12V135a18,18,0,0,1-18,18h-8"/><line class="cls-2" x1="126" y1="12" x2="126" y2="62"/><line class="cls-2" x1="57" y1="12" x2="57" y2="62"/><line class="cls-2" x1="112" y1="12" x2="112" y2="62"/><line class="cls-2" x1="85" y1="104" x2="85" y2="178.03"/><polygon points="81.3 175.22 85 176.79 88.7 175.22 85 184 81.3 175.22"/><line class="cls-2" x1="260" y1="38" x2="247.97" y2="38"/><polygon points="250.78 34.3 249.21 38 250.78 41.7 242 38 250.78 34.3"/><line class="cls-2" x1="260" y1="80" x2="247.97" y2="80"/><polygon points="250.78 76.3 249.21 80 250.78 83.7 242 80 250.78 76.3"/><line class="cls-2" x1="260" y1="124" x2="247.97" y2="124"/><polygon points="250.78 120.3 249.21 124 250.78 127.7 242 124 250.78 120.3"/><line class="cls-2" x1="260" y1="152" x2="247.97" y2="152"/><polygon points="250.78 148.3 249.21 152 250.78 155.7 242 152 250.78 148.3"/><line class="cls-2" x1="213" y1="12" x2="213" y2="178.03"/><polygon points="209.3 175.22 213 176.79 216.7 175.22 213 184 209.3 175.22"/><circle class="cls-3" cx="213" cy="94" r="6"/><rect class="cls-4" x="37" width="40" height="12"/><path class="cls-5" d="M45.41,3.54A1.71,1.71,0,0,1,46.69,4a2.12,2.12,0,0,1,.43,1.46V9h-.85V5.55a1.57,1.57,0,0,0-.25-1,.91.91,0,0,0-.77-.32,1.12,1.12,0,0,0-1,.49,2.83,2.83,0,0,0-.29,1.46V9h-.86V3.64h.69l.12.73h0a1.51,1.51,0,0,1,.63-.62A1.86,1.86,0,0,1,45.41,3.54Z"/><path class="cls-5" d="M52.83,6.31a3.15,3.15,0,0,1-.59,2.05,2,2,0,0,1-1.66.74,2,2,0,0,1-1.16-.33,2.19,2.19,0,0,1-.78-1,3.79,3.79,0,0,1-.27-1.5,3.17,3.17,0,0,1,.58-2,2.22,2.22,0,0,1,3.27,0A3,3,0,0,1,52.83,6.31Zm-3.58,0a3,3,0,0,0,.33,1.53,1.24,1.24,0,0,0,2.05,0A3,3,0,0,0,52,6.31a2.89,2.89,0,0,0-.33-1.51,1.14,1.14,0,0,0-1-.53,1.1,1.1,0,0,0-1,.53A2.9,2.9,0,0,0,49.25,6.31Z"/><path class="cls-5" d="M54.54,1.62a.48.48,0,0,1,.35.14.58.58,0,0,1,.15.43.54.54,0,0,1-.15.42.45.45,0,0,1-.35.14.48.48,0,0,1-.36-.14A.53.53,0,0,1,54,2.19a.57.57,0,0,1,.14-.43A.52.52,0,0,1,54.54,1.62Zm.42,2V9H54.1V3.64Z"/><path class="cls-5" d="M59.61,7.53a1.4,1.4,0,0,1-.52,1.17,2.19,2.19,0,0,1-1.39.4A4.3,4.3,0,0,1,56.83,9a2.31,2.31,0,0,1-.64-.25V8a2.89,2.89,0,0,0,.68.29,2.62,2.62,0,0,0,.83.13,1.27,1.27,0,0,0,.81-.21.68.68,0,0,0,.27-.57.67.67,0,0,0-.24-.52,3.74,3.74,0,0,0-.89-.51,6.83,6.83,0,0,1-.78-.41,1.6,1.6,0,0,1-.51-.49A1.33,1.33,0,0,1,56.17,5a1.21,1.21,0,0,1,.51-1A2.24,2.24,0,0,1,58,3.54a3.36,3.36,0,0,1,1.54.35l-.3.68a4.16,4.16,0,0,0-.62-.23A2.39,2.39,0,0,0,58,4.25a1.18,1.18,0,0,0-.71.18.56.56,0,0,0-.25.48.57.57,0,0,0,.11.38,1.09,1.09,0,0,0,.37.3,6.08,6.08,0,0,0,.71.34,3.71,3.71,0,0,1,1,.63A1.25,1.25,0,0,1,59.61,7.53Z"/><path class="cls-5" d="M60,3.64h.89l1,3,.21.71q.09.35.15.66h0c0-.17.08-.37.15-.62s.15-.49.24-.75l.94-3h.9l-2,6.13A3.21,3.21,0,0,1,61.88,11a1.44,1.44,0,0,1-1.09.42l-.36,0-.3-.06v-.71a1.37,1.37,0,0,0,.25.05l.28,0a.85.85,0,0,0,.63-.24,1.83,1.83,0,0,0,.39-.74l.24-.7Z"/><path class="cls-5" d="M68.78,6.25,67.17,3.64h1l1.17,2,1.16-2h.94L69.78,6.26,71.48,9h-1L69.28,6.89,68,9h-.93Z"/><rect class="cls-4" x="79" y="184" width="12" height="12"/><path class="cls-5" d="M86,189.85v.7H85.4c-.88,0-1.31.32-1.31.94a.74.74,0,0,0,.34.68,1.65,1.65,0,0,0,.87.21,3.14,3.14,0,0,0,.83-.11,3.67,3.67,0,0,0,.69-.28v.75a2.61,2.61,0,0,1-.68.27,4.09,4.09,0,0,1-.92.09,2.21,2.21,0,0,1-1.51-.44,1.47,1.47,0,0,1-.48-1.13,1.18,1.18,0,0,1,.31-.88,1.85,1.85,0,0,1,.79-.44v-.05a1.38,1.38,0,0,1-.67-.44,1.25,1.25,0,0,1-.24-.78,1.2,1.2,0,0,1,.51-1,2.22,2.22,0,0,1,1.34-.38,3.12,3.12,0,0,1,.84.1,3.47,3.47,0,0,1,.74.27l-.32.67a2.6,2.6,0,0,0-.58-.23,2.36,2.36,0,0,0-.67-.09,1.32,1.32,0,0,0-.78.2.62.62,0,0,0-.26.54.69.69,0,0,0,.34.65,1.85,1.85,0,0,0,1,.2Z"/><rect class="cls-4" x="207" y="184" width="12" height="12"/><path class="cls-5" d="M212.66,189.85v.7h-.59c-.87,0-1.31.32-1.31.94a.74.74,0,0,0,.34.68,1.65,1.65,0,0,0,.87.21,3.09,3.09,0,0,0,.83-.11,3.67,3.67,0,0,0,.69-.28v.75a2.61,2.61,0,0,1-.68.27,4,4,0,0,1-.92.09,2.23,2.23,0,0,1-1.51-.44,1.47,1.47,0,0,1-.48-1.13,1.18,1.18,0,0,1,.31-.88,1.91,1.91,0,0,1,.79-.44v-.05a1.43,1.43,0,0,1-.67-.44,1.25,1.25,0,0,1-.24-.78,1.2,1.2,0,0,1,.51-1,2.24,2.24,0,0,1,1.34-.38,3.12,3.12,0,0,1,.84.1,3.47,3.47,0,0,1,.74.27l-.32.67a2.6,2.6,0,0,0-.58-.23,2.31,2.31,0,0,0-.67-.09,1.32,1.32,0,0,0-.78.2.65.65,0,0,0-.26.54.69.69,0,0,0,.34.65,1.85,1.85,0,0,0,1,.2Z"/><path class="cls-5" d="M215.39,185.86l.07.11a11.09,11.09,0,0,1-.36,1.18c-.15.42-.3.8-.46,1.16H214c.09-.38.18-.79.27-1.25s.16-.85.21-1.2Z"/><rect class="cls-4" x="79" y="100" width="12" height="12"/><path class="cls-5" d="M84.66,105.85v.7h-.59c-.87,0-1.31.32-1.31.94a.74.74,0,0,0,.34.68,1.65,1.65,0,0,0,.87.21,3.09,3.09,0,0,0,.83-.11,3.67,3.67,0,0,0,.69-.28v.75a2.61,2.61,0,0,1-.68.27,4,4,0,0,1-.92.09,2.23,2.23,0,0,1-1.51-.44,1.47,1.47,0,0,1-.48-1.13,1.18,1.18,0,0,1,.31-.88,1.91,1.91,0,0,1,.79-.44v0a1.43,1.43,0,0,1-.67-.44,1.25,1.25,0,0,1-.24-.78,1.2,1.2,0,0,1,.51-1,2.24,2.24,0,0,1,1.34-.38,3.12,3.12,0,0,1,.84.1,3.47,3.47,0,0,1,.74.27l-.32.67a2.6,2.6,0,0,0-.58-.23,2.31,2.31,0,0,0-.67-.09,1.32,1.32,0,0,0-.78.2.65.65,0,0,0-.26.54.69.69,0,0,0,.34.65,1.85,1.85,0,0,0,1,.2Z"/><path class="cls-5" d="M87.39,101.86l.07.11a11.09,11.09,0,0,1-.36,1.18c-.15.42-.3.8-.46,1.16H86c.09-.38.18-.79.27-1.25s.16-.85.21-1.2Z"/><rect class="cls-4" x="120" width="12" height="12"/><path class="cls-5" d="M126.55,9.1a2,2,0,0,1-1.6-.67,3.06,3.06,0,0,1-.6-2.08A3.12,3.12,0,0,1,125,4.23a2.07,2.07,0,0,1,1.63-.69,3.22,3.22,0,0,1,.71.08,2.54,2.54,0,0,1,.57.19l-.28.71a4.49,4.49,0,0,0-.48-.16,2.58,2.58,0,0,0-.52-.07c-.91,0-1.36.69-1.36,2.05a2.84,2.84,0,0,0,.33,1.51,1.12,1.12,0,0,0,1,.51,2.71,2.71,0,0,0,.66-.08,2.6,2.6,0,0,0,.55-.21v.74A2.45,2.45,0,0,1,126.55,9.1Z"/><rect class="cls-4" x="207" width="12" height="12"/><path class="cls-5" d="M211.38,6.25l-1.61-2.61h.95l1.17,2,1.16-2H214l-1.61,2.62L214.08,9h-1l-1.25-2.11L210.62,9h-.93Z"/><path class="cls-5" d="M215.8,1.86l.07.11a9.06,9.06,0,0,1-.35,1.18c-.15.42-.31.8-.47,1.16h-.64c.1-.38.19-.79.28-1.25s.16-.85.2-1.2Z"/><rect class="cls-4" x="106" width="12" height="12"/><path class="cls-5" d="M112.61,8.38l.35,0a2,2,0,0,0,.31-.08v.67a1.5,1.5,0,0,1-.39.12,2.45,2.45,0,0,1-.46,0,1.37,1.37,0,0,1-1-.35,1.59,1.59,0,0,1-.39-1.23V4.32h-.67V3.89l.69-.3.3-1.18h.53V3.64h1.31v.68H111.9V7.48a1.08,1.08,0,0,0,.18.68A.64.64,0,0,0,112.61,8.38Z"/><rect class="cls-4" x="272" width="12" height="12"/><path class="cls-5" d="M277.34,8.38l.35,0a2,2,0,0,0,.31-.08v.67a1.5,1.5,0,0,1-.39.12,2.38,2.38,0,0,1-.46,0,1.39,1.39,0,0,1-1-.35,1.59,1.59,0,0,1-.39-1.23V4.32h-.67V3.89l.69-.3.3-1.18h.53V3.64h1.31v.68h-1.31V7.48a1.08,1.08,0,0,0,.18.68A.65.65,0,0,0,277.34,8.38Z"/><path class="cls-5" d="M279.92,1.86,280,2a11.09,11.09,0,0,1-.36,1.18c-.15.42-.3.8-.46,1.16h-.64c.09-.38.18-.79.27-1.25s.16-.85.21-1.2Z"/><rect class="cls-4" x="286" width="12" height="12"/><path class="cls-5" d="M291.12,9.1a2,2,0,0,1-1.6-.67,3.06,3.06,0,0,1-.6-2.08,3.12,3.12,0,0,1,.62-2.12,2.07,2.07,0,0,1,1.63-.69,3.22,3.22,0,0,1,.71.08,2.29,2.29,0,0,1,.56.19l-.27.71a4,4,0,0,0-.49-.16,2.4,2.4,0,0,0-.51-.07c-.91,0-1.37.69-1.37,2.05a2.84,2.84,0,0,0,.34,1.51,1.12,1.12,0,0,0,1,.51,2.63,2.63,0,0,0,.65-.08,2.49,2.49,0,0,0,.56-.21v.74A2.45,2.45,0,0,1,291.12,9.1Z"/><path class="cls-5" d="M294.45,1.86l.07.11a9.06,9.06,0,0,1-.35,1.18c-.15.42-.31.8-.47,1.16h-.64c.1-.38.19-.79.28-1.25s.16-.85.2-1.2Z"/><rect class="cls-4" x="51" y="62" width="12" height="12"/><path class="cls-5" d="M55.38,68.25l-1.61-2.61h.95l1.17,2,1.16-2H58l-1.61,2.62L58.08,71h-.95l-1.25-2.11L54.62,71h-.93Z"/><path class="cls-5" d="M59.8,63.86l.07.11a9.06,9.06,0,0,1-.35,1.18c-.15.42-.31.8-.47,1.16h-.64c.1-.38.19-.79.28-1.25s.16-.85.2-1.2Z"/><rect class="cls-4" x="120" y="62" width="12" height="12"/><path class="cls-5" d="M125.12,71.1a2,2,0,0,1-1.6-.67,3.06,3.06,0,0,1-.6-2.08,3.12,3.12,0,0,1,.62-2.12,2.07,2.07,0,0,1,1.63-.69,3.22,3.22,0,0,1,.71.08,2.29,2.29,0,0,1,.56.19l-.27.71a4,4,0,0,0-.49-.16,2.4,2.4,0,0,0-.51-.07c-.91,0-1.37.69-1.37,2a2.84,2.84,0,0,0,.34,1.51,1.12,1.12,0,0,0,1,.51,2.63,2.63,0,0,0,.65-.08,2.49,2.49,0,0,0,.56-.21v.74A2.45,2.45,0,0,1,125.12,71.1Z"/><path class="cls-5" d="M128.45,63.86l.07.11a9.06,9.06,0,0,1-.35,1.18c-.15.42-.31.8-.47,1.16h-.64c.1-.38.19-.79.28-1.25s.16-.85.2-1.2Z"/><rect class="cls-4" x="106" y="62" width="12" height="12"/><path class="cls-5" d="M111.34,70.38l.35,0a2,2,0,0,0,.31-.08v.67a1.5,1.5,0,0,1-.39.12,2.38,2.38,0,0,1-.46,0,1.37,1.37,0,0,1-1-.35,1.59,1.59,0,0,1-.39-1.23v-3.2h-.67v-.43l.69-.3.3-1.18h.53v1.23h1.31v.68h-1.31v3.16a1.08,1.08,0,0,0,.18.68A.65.65,0,0,0,111.34,70.38Z"/><path class="cls-5" d="M113.92,63.86,114,64a11.09,11.09,0,0,1-.36,1.18c-.15.42-.3.8-.46,1.16h-.64c.09-.38.18-.79.27-1.25s.16-.85.21-1.2Z"/><rect class="cls-6" x="13" y="14" width="88" height="12" rx="6"/><path d="M31.88,23H31V18.08c0-.26,0-.49,0-.68s0-.39,0-.59a2.72,2.72,0,0,1-.24.24l-.32.28-.71.62-.46-.56,1.81-1.53h.74Z"/><path d="M37.92,17.4l.49.49-1.58,1.58,1.56,1.58-.49.49L36.32,20l-1.55,1.57-.5-.49,1.56-1.58L34.26,17.9l.5-.5L36.33,19Z"/><path d="M42.28,23h-.86V18.08c0-.26,0-.49,0-.68s0-.39,0-.59a2.72,2.72,0,0,1-.24.24l-.32.28-.7.62-.47-.56,1.81-1.53h.74Z"/><path d="M44.65,20a9.19,9.19,0,0,1,.14-1.61A4.16,4.16,0,0,1,45.25,17a2.36,2.36,0,0,1,.89-.91,2.74,2.74,0,0,1,1.44-.34l.44,0a1.72,1.72,0,0,1,.38.07v.75a2.81,2.81,0,0,0-.8-.11,1.84,1.84,0,0,0-1.21.37,2,2,0,0,0-.65,1,6.27,6.27,0,0,0-.24,1.48h0a1.69,1.69,0,0,1,.57-.59,1.63,1.63,0,0,1,.92-.24,1.66,1.66,0,0,1,1.36.6,2.43,2.43,0,0,1,.49,1.6,2.66,2.66,0,0,1-.54,1.74,1.86,1.86,0,0,1-1.51.65,1.94,1.94,0,0,1-1.13-.35,2.27,2.27,0,0,1-.78-1.05A4.88,4.88,0,0,1,44.65,20Zm2.18,2.4a1.1,1.1,0,0,0,.88-.4A2,2,0,0,0,48,20.72a1.8,1.8,0,0,0-.3-1.1,1,1,0,0,0-.89-.4,1.28,1.28,0,0,0-.71.19,1.4,1.4,0,0,0-.46.48,1.32,1.32,0,0,0-.16.61,2.85,2.85,0,0,0,.14.85,1.85,1.85,0,0,0,.43.72A1,1,0,0,0,46.83,22.36Z"/><path d="M54.22,15.86a2.7,2.7,0,0,1,1.87.54A2,2,0,0,1,56.68,18a2.6,2.6,0,0,1-.25,1.16,1.77,1.77,0,0,1-.82.8,3.21,3.21,0,0,1-1.49.3h-.7V23h-.88V15.86Zm-.06.76h-.74v2.84H54a2.1,2.1,0,0,0,1.33-.34A1.35,1.35,0,0,0,55.79,18a1.3,1.3,0,0,0-.4-1A1.88,1.88,0,0,0,54.16,16.62Z"/><path d="M59.72,17.54A1.73,1.73,0,0,1,61,18a2,2,0,0,1,.42,1.37V23h-.64l-.15-.75h0a2.07,2.07,0,0,1-.65.64,1.84,1.84,0,0,1-.94.21A1.44,1.44,0,0,1,58,22.68a1.58,1.58,0,0,1-.42-1.17,1.48,1.48,0,0,1,.57-1.24,3,3,0,0,1,1.7-.48l.81,0v-.33a1.39,1.39,0,0,0-.25-.92.91.91,0,0,0-.72-.27,2.25,2.25,0,0,0-.68.11,4.48,4.48,0,0,0-.65.27L58.05,18a3.56,3.56,0,0,1,.77-.32A3.37,3.37,0,0,1,59.72,17.54Zm.9,2.83-.69,0a2,2,0,0,0-1.17.31,1,1,0,0,0-.34.8.79.79,0,0,0,.87.9,1.3,1.3,0,0,0,1-.38,1.62,1.62,0,0,0,.38-1.16Z"/><path d="M64.59,22.38a2.07,2.07,0,0,0,.35,0,1.73,1.73,0,0,0,.31-.08v.67a1.42,1.42,0,0,1-.38.12,3.73,3.73,0,0,1-.47,0,1.43,1.43,0,0,1-1-.35A1.59,1.59,0,0,1,63,21.52v-3.2h-.67v-.43l.69-.3.3-1.18h.53v1.23h1.31v.68H63.88v3.16a1.1,1.1,0,0,0,.19.68A.63.63,0,0,0,64.59,22.38Z"/><path d="M68.15,23.1a2,2,0,0,1-1.6-.68,3,3,0,0,1-.6-2.07,3.12,3.12,0,0,1,.62-2.12,2.07,2.07,0,0,1,1.63-.69,3.22,3.22,0,0,1,.71.08,2.29,2.29,0,0,1,.56.19l-.27.71a4,4,0,0,0-.49-.16,1.89,1.89,0,0,0-.51-.07c-.91,0-1.37.68-1.37,2.05a2.84,2.84,0,0,0,.34,1.51,1.12,1.12,0,0,0,1,.51,2.63,2.63,0,0,0,.65-.08,2.49,2.49,0,0,0,.56-.21v.74A2.45,2.45,0,0,1,68.15,23.1Z"/><path d="M71.38,15.4v2.2c0,.13,0,.27,0,.4s0,.26,0,.37h.06a1.54,1.54,0,0,1,.62-.62,1.86,1.86,0,0,1,.87-.21,1.66,1.66,0,0,1,1.29.47,2.13,2.13,0,0,1,.42,1.45V23h-.85V19.55a1.61,1.61,0,0,0-.24-1,.94.94,0,0,0-.77-.31,1.13,1.13,0,0,0-1,.5,2.83,2.83,0,0,0-.3,1.45V23h-.85V15.4Z"/><path d="M76.56,15.62a.48.48,0,0,1,.35.14.56.56,0,0,1,.14.43.53.53,0,0,1-.14.42.48.48,0,0,1-.35.14.52.52,0,0,1-.36-.14.54.54,0,0,1-.15-.42.56.56,0,0,1,.15-.43A.52.52,0,0,1,76.56,15.62Zm.41,2V23h-.85V17.64Z"/><path d="M80.73,18.32H79.57V23h-.86V18.32h-.83V17.9l.83-.29V17.3a2.27,2.27,0,0,1,.39-1.47,1.4,1.4,0,0,1,1.16-.48,2.78,2.78,0,0,1,.52.05,2.43,2.43,0,0,1,.43.12L81,16.2l-.33-.09a1.47,1.47,0,0,0-.36,0,.6.6,0,0,0-.55.28,1.81,1.81,0,0,0-.18.93v.36h1.16Z"/><path d="M80.88,17.64h.9l1,3c.08.24.15.48.21.7s.12.46.16.67h0c0-.17.08-.37.15-.62s.15-.5.23-.75l1-3h.9l-2,6.13A3.21,3.21,0,0,1,82.73,25a1.46,1.46,0,0,1-1.1.42l-.35,0-.3-.06v-.71l.24.05.28,0a.86.86,0,0,0,.64-.24,2,2,0,0,0,.39-.74l.24-.7Z"/><rect class="cls-3" x="109" y="25" width="34" height="12" rx="6" transform="translate(157 -95) rotate(90)"/><path d="M123,21.23v-.88h7.14v3.57h-.78V21.23h-2.54v2.53H126V21.23Z"/><path d="M129.45,27.77a1.83,1.83,0,0,0-.37-1.16,2.24,2.24,0,0,0-1-.73,4.29,4.29,0,0,0-1.5-.24,3.59,3.59,0,0,0-2.11.55,1.84,1.84,0,0,0-.78,1.6,3.69,3.69,0,0,0,.08.76c.06.24.12.48.2.71h-.78a4.27,4.27,0,0,1-.21-.72,5.47,5.47,0,0,1-.07-.87,2.81,2.81,0,0,1,.45-1.62,2.73,2.73,0,0,1,1.27-1,5.26,5.26,0,0,1,2-.33,4.86,4.86,0,0,1,1.89.35,3,3,0,0,1,1.3,1,2.89,2.89,0,0,1,.47,1.68,3.74,3.74,0,0,1-.39,1.73l-.75-.33a3.72,3.72,0,0,0,.26-.64A2.68,2.68,0,0,0,129.45,27.77Z"/><path d="M128.59,36.29l-.49.49-1.58-1.58-1.58,1.56-.49-.49L126,34.69l-1.57-1.55.49-.5,1.58,1.56,1.57-1.57.5.5L127,34.7Z"/><path d="M123,42V37.73h.69l2,1.71c.38.33.71.6,1,.81a3.41,3.41,0,0,0,.82.49,2.41,2.41,0,0,0,.87.15,1.11,1.11,0,0,0,.85-.31,1.14,1.14,0,0,0,.3-.83,2,2,0,0,0-.15-.79,3.36,3.36,0,0,0-.46-.7l.58-.46a3.37,3.37,0,0,1,.57.89,2.67,2.67,0,0,1,.21,1.08,2,2,0,0,1-.5,1.47,1.78,1.78,0,0,1-1.36.53,2.75,2.75,0,0,1-1-.19,3.89,3.89,0,0,1-1-.55c-.32-.24-.66-.53-1-.86l-1.54-1.37h0V42Z"/><rect class="cls-3" x="94" y="26" width="36" height="12" rx="6" transform="translate(144 -80) rotate(90)"/><path d="M109,21.6V18h7.14V21.6h-.78V18.91H113.1v2.53h-.77V18.91h-2.56V21.6Z"/><path d="M114.45,28.22a1.51,1.51,0,0,1-.46,1.21,2.17,2.17,0,0,1-1.47.4H109V29h3.45c.86,0,1.28-.31,1.28-.94a1,1,0,0,0-.45-.95A2.51,2.51,0,0,0,112,26.8h-3V26h3.46a1.61,1.61,0,0,0,1-.23.85.85,0,0,0,.31-.72,1,1,0,0,0-.51-1,3.29,3.29,0,0,0-1.43-.26H109v-.85h5.36v.68l-.73.12v.05a1.52,1.52,0,0,1,.63.6,1.74,1.74,0,0,1,.2.82,1.35,1.35,0,0,1-.88,1.44v.05a1.6,1.6,0,0,1,.67.64A1.89,1.89,0,0,1,114.45,28.22Z"/><path d="M116.59,32.2h-2.5l-.45,0v0a1.6,1.6,0,0,1,.8,1.49,1.69,1.69,0,0,1-.7,1.44,3.39,3.39,0,0,1-2.07.53,3.48,3.48,0,0,1-2.07-.53,1.72,1.72,0,0,1-.71-1.43,1.67,1.67,0,0,1,.22-.9,1.7,1.7,0,0,1,.56-.6v-.06L109,32v-.64h7.6Zm-2.87,1.32a1.07,1.07,0,0,0-.52-1,3.11,3.11,0,0,0-1.48-.28h-.1a3,3,0,0,0-1.5.3,1.09,1.09,0,0,0-.51,1c0,.83.69,1.24,2.07,1.24S113.72,34.36,113.72,33.52Z"/><path d="M114.45,38.8a1.91,1.91,0,0,1-.3,1.09,2.06,2.06,0,0,1-.85.68,3.28,3.28,0,0,1-1.25.23h-.54V37.54a2.23,2.23,0,0,0-1.41.41,1.32,1.32,0,0,0-.48,1.11,3.24,3.24,0,0,0,.09.79,4.09,4.09,0,0,0,.28.72h-.75a3.12,3.12,0,0,1-.26-.74,3.46,3.46,0,0,1-.09-.83,2.13,2.13,0,0,1,.73-1.71,3,3,0,0,1,2-.62,3.32,3.32,0,0,1,2.08.57A1.84,1.84,0,0,1,114.45,38.8Zm-.7,0a1,1,0,0,0-.4-.86,2.09,2.09,0,0,0-1.16-.38v2.38a2.14,2.14,0,0,0,1.12-.27A1,1,0,0,0,113.75,38.79Z"/><path d="M108.89,43.73a1.72,1.72,0,0,1,.7-1.44,4.33,4.33,0,0,1,4.15,0,1.68,1.68,0,0,1,.71,1.44,1.72,1.72,0,0,1-.22.9,1.69,1.69,0,0,1-.57.59v.05l.4,0,.38,0h2.15v.86H109v-.69l.71-.12v-.05a1.82,1.82,0,0,1-.58-.59A1.67,1.67,0,0,1,108.89,43.73Zm.72.16a1.18,1.18,0,0,0,.46,1,2.53,2.53,0,0,0,1.4.31h.21a3.22,3.22,0,0,0,1.53-.29,1.11,1.11,0,0,0,.52-1.06,1,1,0,0,0-.55-.93,3.07,3.07,0,0,0-1.53-.31,3,3,0,0,0-1.51.31A1,1,0,0,0,109.61,43.89Z"/><rect class="cls-6" x="13" y="28" width="88" height="12" rx="6"/><path d="M53.6,37h-.88V29.86h3.57v.78H53.6v2.54h2.53V34H53.6Z"/><path d="M60.14,30.54a1.83,1.83,0,0,0-1.16.37,2.35,2.35,0,0,0-.73,1,4.29,4.29,0,0,0-.24,1.5,3.57,3.57,0,0,0,.55,2.11,1.84,1.84,0,0,0,1.6.78,3.69,3.69,0,0,0,.76-.08,5.75,5.75,0,0,0,.71-.2v.78a4.27,4.27,0,0,1-.72.21,4.51,4.51,0,0,1-.87.07,2.81,2.81,0,0,1-1.62-.45,2.73,2.73,0,0,1-1-1.27,5.26,5.26,0,0,1-.33-2,4.78,4.78,0,0,1,.35-1.88,2.72,2.72,0,0,1,2.7-1.78,3.74,3.74,0,0,1,1.73.39l-.33.75a3.52,3.52,0,0,0-.65-.26A3,3,0,0,0,60.14,30.54Z"/><rect class="cls-6" x="13" y="42" width="88" height="12" rx="6"/><path d="M19.77,51H16.2V43.86h3.57v.78h-2.7v2.25h2.54v.77H17.07v2.56h2.7Z"/><path d="M26.38,45.54a1.5,1.5,0,0,1,1.21.46A2.21,2.21,0,0,1,28,47.47V51h-.86V47.55c0-.85-.31-1.28-.93-1.28a1,1,0,0,0-1,.45A2.53,2.53,0,0,0,25,48v3h-.84V47.54a1.58,1.58,0,0,0-.23-1,.83.83,0,0,0-.72-.31,1,1,0,0,0-1,.52A3.08,3.08,0,0,0,22,48.21V51h-.86V45.64h.69l.11.73H22a1.37,1.37,0,0,1,.59-.62,1.65,1.65,0,0,1,.83-.21,1.35,1.35,0,0,1,1.43.88h.06a1.6,1.6,0,0,1,.64-.67A1.84,1.84,0,0,1,26.38,45.54Z"/><path d="M30.37,43.4v2c0,.18,0,.36,0,.53s0,.32,0,.45h.05a1.67,1.67,0,0,1,.59-.59,1.74,1.74,0,0,1,.9-.21,1.69,1.69,0,0,1,1.43.7,3.37,3.37,0,0,1,.53,2.07,3.37,3.37,0,0,1-.53,2.07,1.7,1.7,0,0,1-1.42.71,1.68,1.68,0,0,1-.91-.22,1.76,1.76,0,0,1-.59-.56H30.3l-.15.68h-.64V43.4Zm1.32,2.87a1.08,1.08,0,0,0-1.05.52,3.28,3.28,0,0,0-.27,1.48v.1a3,3,0,0,0,.29,1.5,1.12,1.12,0,0,0,1.05.51c.82,0,1.24-.69,1.24-2.07S32.53,46.27,31.69,46.27Z"/><path d="M37,45.54a1.91,1.91,0,0,1,1.09.3,2,2,0,0,1,.68.85A3.1,3.1,0,0,1,39,47.94v.54H35.71a2.21,2.21,0,0,0,.4,1.41,1.35,1.35,0,0,0,1.11.48,3.24,3.24,0,0,0,.79-.09,3.06,3.06,0,0,0,.72-.28v.75A3,3,0,0,1,38,51a3.49,3.49,0,0,1-.84.09,2.1,2.1,0,0,1-1.71-.73,3,3,0,0,1-.62-2,3.41,3.41,0,0,1,.57-2.08A1.88,1.88,0,0,1,37,45.54Zm0,.7a1,1,0,0,0-.87.4,2.12,2.12,0,0,0-.38,1.16h2.38a2.14,2.14,0,0,0-.27-1.12A.94.94,0,0,0,37,46.24Z"/><path d="M41.89,51.1a1.69,1.69,0,0,1-1.43-.7,4.26,4.26,0,0,1,0-4.15,1.7,1.7,0,0,1,1.43-.71,1.67,1.67,0,0,1,.9.22,1.89,1.89,0,0,1,.59.57h0a3.15,3.15,0,0,0,0-.4c0-.14,0-.27,0-.38V43.4h.86V51h-.69l-.12-.71h0a1.85,1.85,0,0,1-.59.59A1.76,1.76,0,0,1,41.89,51.1Zm.16-.72a1.15,1.15,0,0,0,1-.46,2.5,2.5,0,0,0,.31-1.4v-.21a3.15,3.15,0,0,0-.29-1.53A1.11,1.11,0,0,0,42,46.26a1,1,0,0,0-.93.55,3.24,3.24,0,0,0-.31,1.53,3,3,0,0,0,.32,1.51A1,1,0,0,0,42.05,50.38Z"/><path d="M52.3,48.31a3.17,3.17,0,0,1-.59,2,2.21,2.21,0,0,1-2.83.4,2.13,2.13,0,0,1-.77-1,3.7,3.7,0,0,1-.28-1.49,3.17,3.17,0,0,1,.59-2.05,2,2,0,0,1,1.65-.72,2,2,0,0,1,1.62.71A3.09,3.09,0,0,1,52.3,48.31Zm-3.59,0A2.93,2.93,0,0,0,49,49.83a1.24,1.24,0,0,0,2.06,0,2.94,2.94,0,0,0,.32-1.52,2.87,2.87,0,0,0-.32-1.51,1.14,1.14,0,0,0-1-.53,1.1,1.1,0,0,0-1,.53A2.87,2.87,0,0,0,48.71,48.31Z"/><path d="M55.92,45.54a1.68,1.68,0,0,1,1.29.46,2.12,2.12,0,0,1,.42,1.46V51h-.84V47.55a1.57,1.57,0,0,0-.25-1,.91.91,0,0,0-.77-.32,1.14,1.14,0,0,0-1.05.48,2.88,2.88,0,0,0-.3,1.47V51h-.85V45.64h.68l.13.73h0a1.59,1.59,0,0,1,.64-.62A1.85,1.85,0,0,1,55.92,45.54Z"/><path d="M63.09,50.38l.36,0,.3-.08v.67a1.45,1.45,0,0,1-.38.11,2.5,2.5,0,0,1-.47.05,1.43,1.43,0,0,1-1-.35,1.59,1.59,0,0,1-.38-1.23v-3.2h-.67v-.43l.68-.3.3-1.18h.53v1.23H63.7v.68H62.38v3.16a1,1,0,0,0,.19.67A.64.64,0,0,0,63.09,50.38Z"/><path d="M65.16,43.62a.48.48,0,0,1,.35.14.56.56,0,0,1,.14.43.53.53,0,0,1-.14.42.48.48,0,0,1-.35.14.52.52,0,0,1-.36-.14.54.54,0,0,1-.15-.42.56.56,0,0,1,.15-.43A.52.52,0,0,1,65.16,43.62Zm.41,2V51h-.85V45.64Z"/><path d="M72.42,45.54a1.5,1.5,0,0,1,1.21.46,2.21,2.21,0,0,1,.4,1.47V51h-.85V47.55c0-.85-.31-1.28-.94-1.28a1,1,0,0,0-.95.45A2.53,2.53,0,0,0,71,48v3h-.84V47.54a1.58,1.58,0,0,0-.23-1,.85.85,0,0,0-.72-.31,1,1,0,0,0-1,.52A3.21,3.21,0,0,0,68,48.21V51h-.85V45.64h.68l.12.73h0a1.44,1.44,0,0,1,.6-.62,1.64,1.64,0,0,1,.82-.21,1.35,1.35,0,0,1,1.44.88h0a1.66,1.66,0,0,1,.64-.67A1.91,1.91,0,0,1,72.42,45.54Z"/><path d="M77.41,45.54a1.91,1.91,0,0,1,1.09.3,2.06,2.06,0,0,1,.68.85,3.1,3.1,0,0,1,.23,1.25v.54H76.15a2.28,2.28,0,0,0,.41,1.41,1.35,1.35,0,0,0,1.11.48,3.24,3.24,0,0,0,.79-.09,3.06,3.06,0,0,0,.72-.28v.75a3,3,0,0,1-.73.26,3.49,3.49,0,0,1-.84.09,2.1,2.1,0,0,1-1.71-.73,3,3,0,0,1-.62-2,3.34,3.34,0,0,1,.57-2.08A1.87,1.87,0,0,1,77.41,45.54Zm0,.7a1,1,0,0,0-.86.4,2.12,2.12,0,0,0-.38,1.16h2.38a2.14,2.14,0,0,0-.27-1.12A1,1,0,0,0,77.4,46.24Z"/><path d="M84.79,45.54a1.73,1.73,0,0,1,1.32.45,2,2,0,0,1,.41,1.37V51h-.63l-.15-.75h0a2.18,2.18,0,0,1-.65.64,1.84,1.84,0,0,1-.94.21,1.48,1.48,0,0,1-1.1-.42,1.62,1.62,0,0,1-.41-1.17,1.48,1.48,0,0,1,.57-1.24,2.94,2.94,0,0,1,1.7-.48l.8,0v-.33a1.39,1.39,0,0,0-.24-.92.91.91,0,0,0-.72-.27,2.25,2.25,0,0,0-.68.11,4.48,4.48,0,0,0-.65.27L83.12,46a3.56,3.56,0,0,1,.77-.32A3.37,3.37,0,0,1,84.79,45.54Zm.89,2.83-.68,0a2,2,0,0,0-1.17.31,1,1,0,0,0-.34.8.86.86,0,0,0,.24.68.84.84,0,0,0,.62.22,1.27,1.27,0,0,0,1-.39,1.58,1.58,0,0,0,.37-1.15Z"/><path d="M89.13,48.25l-1.61-2.61h1l1.17,2,1.16-2h.94l-1.61,2.62L91.83,51h-1l-1.25-2.11L88.37,51h-.93Z"/><path d="M93.21,43.62a.48.48,0,0,1,.35.14.56.56,0,0,1,.14.43.53.53,0,0,1-.14.42.48.48,0,0,1-.35.14.52.52,0,0,1-.36-.14.54.54,0,0,1-.15-.42.56.56,0,0,1,.15-.43A.52.52,0,0,1,93.21,43.62Zm.41,2V51h-.85V45.64Z"/><path d="M98.27,49.53a1.41,1.41,0,0,1-.51,1.17,2.2,2.2,0,0,1-1.4.4A3.6,3.6,0,0,1,95.5,51a2.19,2.19,0,0,1-.65-.24V50a3.77,3.77,0,0,0,.69.29,2.56,2.56,0,0,0,.82.13,1.28,1.28,0,0,0,.82-.21.68.68,0,0,0,.26-.57.65.65,0,0,0-.23-.52,3.35,3.35,0,0,0-.9-.51,6.88,6.88,0,0,1-.78-.42,1.58,1.58,0,0,1-.51-.48,1.35,1.35,0,0,1-.18-.72,1.21,1.21,0,0,1,.51-1,2.17,2.17,0,0,1,1.32-.37,3.47,3.47,0,0,1,.81.09,3.23,3.23,0,0,1,.72.26l-.3.68a3.67,3.67,0,0,0-.61-.23,2.39,2.39,0,0,0-.66-.09,1.24,1.24,0,0,0-.72.18.58.58,0,0,0-.25.48.66.66,0,0,0,.11.38,1.33,1.33,0,0,0,.37.3c.18.1.41.21.71.34a3.64,3.64,0,0,1,1.05.63A1.24,1.24,0,0,1,98.27,49.53Z"/><path d="M49.05,90l-2.12-6.16h0c0,.25,0,.53,0,.84s0,.61,0,.9V90h-.82V82.86h1.28l2,5.84h0l2-5.84h1.27V90H51.9V85.55c0-.27,0-.56,0-.86s0-.59,0-.84h0L49.79,90Z"/><path d="M58.61,87.31a3.17,3.17,0,0,1-.6,2,2,2,0,0,1-1.65.74,2.06,2.06,0,0,1-1.17-.33,2.24,2.24,0,0,1-.77-1,3.62,3.62,0,0,1-.28-1.5,3.17,3.17,0,0,1,.58-2,2,2,0,0,1,1.66-.72,2.06,2.06,0,0,1,1.62.71A3.09,3.09,0,0,1,58.61,87.31Zm-3.59,0a2.93,2.93,0,0,0,.33,1.52,1.24,1.24,0,0,0,2.06,0,3,3,0,0,0,.32-1.52,3,3,0,0,0-.32-1.51,1.15,1.15,0,0,0-1-.53,1.12,1.12,0,0,0-1,.53A3,3,0,0,0,55,87.31Z"/><path d="M61.57,90.1a1.69,1.69,0,0,1-1.44-.7,4.33,4.33,0,0,1,0-4.15,1.7,1.7,0,0,1,1.44-.71,1.66,1.66,0,0,1,.89.22,1.82,1.82,0,0,1,.6.57h0c0-.11,0-.25,0-.39s0-.28,0-.39V82.4h.86V90h-.69l-.12-.71h0a1.85,1.85,0,0,1-.59.59A1.67,1.67,0,0,1,61.57,90.1Zm.16-.72a1.14,1.14,0,0,0,1-.46,2.5,2.5,0,0,0,.32-1.4v-.21a3.14,3.14,0,0,0-.3-1.53,1.08,1.08,0,0,0-1.05-.52,1,1,0,0,0-.93.55,3.12,3.12,0,0,0-.31,1.53,3,3,0,0,0,.31,1.52A1,1,0,0,0,61.73,89.38Z"/><path d="M65.91,82.62a.48.48,0,0,1,.35.14.6.6,0,0,1,.14.43.57.57,0,0,1-.14.42.48.48,0,0,1-.35.14.53.53,0,0,1-.37-.14.57.57,0,0,1-.14-.42.6.6,0,0,1,.14-.43A.53.53,0,0,1,65.91,82.62Zm.41,2V90h-.85V84.64Z"/><path d="M70.08,85.32H68.92V90h-.86V85.32h-.83V84.9l.83-.29V84.3a2.27,2.27,0,0,1,.39-1.47,1.38,1.38,0,0,1,1.16-.48,2.59,2.59,0,0,1,.51.05,2.55,2.55,0,0,1,.44.12l-.22.68L70,83.11a1.47,1.47,0,0,0-.36,0,.61.61,0,0,0-.56.28,1.94,1.94,0,0,0-.17.93v.36h1.16Z"/><path d="M71.43,82.62a.48.48,0,0,1,.35.14.6.6,0,0,1,.14.43.57.57,0,0,1-.14.42.48.48,0,0,1-.35.14.53.53,0,0,1-.37-.14.57.57,0,0,1-.14-.42.6.6,0,0,1,.14-.43A.53.53,0,0,1,71.43,82.62Zm.41,2V90H71V84.64Z"/><path d="M75.26,84.54a1.79,1.79,0,0,1,1.08.31,1.81,1.81,0,0,1,.68.85,3,3,0,0,1,.24,1.24v.54H74a2.27,2.27,0,0,0,.41,1.42,1.34,1.34,0,0,0,1.11.47,3.1,3.1,0,0,0,.78-.09A3.31,3.31,0,0,0,77,89v.75a3.68,3.68,0,0,1-.74.27,4.1,4.1,0,0,1-.83.08,2.1,2.1,0,0,1-1.71-.73,3,3,0,0,1-.62-2,3.34,3.34,0,0,1,.57-2.08A1.87,1.87,0,0,1,75.26,84.54Zm0,.7a1,1,0,0,0-.87.4A2.12,2.12,0,0,0,74,86.8h2.38a2.07,2.07,0,0,0-.27-1.11A1,1,0,0,0,75.25,85.24Z"/><path d="M80.19,90.1a1.69,1.69,0,0,1-1.44-.7,4.33,4.33,0,0,1,0-4.15,1.7,1.7,0,0,1,1.44-.71,1.66,1.66,0,0,1,.89.22,1.82,1.82,0,0,1,.6.57h0c0-.11,0-.25,0-.39s0-.28,0-.39V82.4h.86V90h-.69l-.12-.71h0a1.85,1.85,0,0,1-.59.59A1.67,1.67,0,0,1,80.19,90.1Zm.16-.72a1.14,1.14,0,0,0,1-.46,2.5,2.5,0,0,0,.32-1.4v-.21a3.14,3.14,0,0,0-.3-1.53,1.08,1.08,0,0,0-1-.52,1,1,0,0,0-.94.55,3.25,3.25,0,0,0-.3,1.53,3,3,0,0,0,.31,1.52A1,1,0,0,0,80.35,89.38Z"/><path d="M91.58,86.35a3.87,3.87,0,0,1-.86,2.73A3.14,3.14,0,0,1,88.3,90H86.51V82.86h1.95a3,3,0,0,1,2.29.89A3.69,3.69,0,0,1,91.58,86.35Zm-.93,0a3.14,3.14,0,0,0-.59-2.09,2.13,2.13,0,0,0-1.7-.68h-1v5.62h.82C89.84,89.24,90.65,88.29,90.65,86.39Z"/><path d="M93.37,82.62a.48.48,0,0,1,.35.14.6.6,0,0,1,.14.43.57.57,0,0,1-.14.42.48.48,0,0,1-.35.14.53.53,0,0,1-.37-.14.57.57,0,0,1-.14-.42.6.6,0,0,1,.14-.43A.53.53,0,0,1,93.37,82.62Zm.41,2V90h-.85V84.64Z"/><path d="M97.46,90h-.88V83.64H94.66v-.78h4.71v.78H97.46Z"/><path d="M102.68,82.86h1.87a3.32,3.32,0,0,1,1.81.41,1.49,1.49,0,0,1,.62,1.34,1.74,1.74,0,0,1-.32,1.07,1.41,1.41,0,0,1-.92.53v.05a1.91,1.91,0,0,1,1,.52,1.56,1.56,0,0,1,.4,1.18,1.91,1.91,0,0,1-.6,1.5,2.33,2.33,0,0,1-1.64.54h-2.26Zm.88,3h1.11a1.53,1.53,0,0,0,1.09-.3,1.23,1.23,0,0,0,.31-.91.92.92,0,0,0-.37-.82,1.87,1.87,0,0,0-1.12-.27h-1Zm0,.73v2.61h1.24a1.46,1.46,0,0,0,1.12-.36,1.41,1.41,0,0,0,.33-1,1.21,1.21,0,0,0-.36-.92,1.62,1.62,0,0,0-1.17-.34Z"/><path d="M109.3,90h-.85V82.4h.85Z"/><path d="M115,87.31a3.17,3.17,0,0,1-.6,2,2,2,0,0,1-1.65.74,2.06,2.06,0,0,1-1.17-.33,2.34,2.34,0,0,1-.78-1,3.79,3.79,0,0,1-.27-1.5,3.17,3.17,0,0,1,.58-2,2.23,2.23,0,0,1,3.27,0A3.09,3.09,0,0,1,115,87.31Zm-3.59,0a2.93,2.93,0,0,0,.33,1.52,1.11,1.11,0,0,0,1,.55,1.08,1.08,0,0,0,1-.55,2.93,2.93,0,0,0,.33-1.52,2.87,2.87,0,0,0-.33-1.51,1.27,1.27,0,0,0-2.06,0A3,3,0,0,0,111.45,87.31Z"/><path d="M118.24,90.1a2,2,0,0,1-1.61-.68,3.08,3.08,0,0,1-.59-2.07,3.12,3.12,0,0,1,.61-2.12,2.09,2.09,0,0,1,1.64-.69,3.13,3.13,0,0,1,.7.08,2.23,2.23,0,0,1,.57.19l-.27.71a4.7,4.7,0,0,0-.49-.16,1.89,1.89,0,0,0-.51-.07c-.91,0-1.37.68-1.37,2a2.84,2.84,0,0,0,.33,1.51,1.15,1.15,0,0,0,1,.51,2.69,2.69,0,0,0,.65-.08,2.49,2.49,0,0,0,.56-.21v.74A2.47,2.47,0,0,1,118.24,90.1Z"/><path d="M121.46,82.4v3.9c0,.13,0,.29,0,.46s0,.33,0,.48h0l.25-.36.28-.37,1.52-1.87h1l-1.86,2.21,2,3.15h-1l-1.57-2.56-.59.58v2h-.84V82.4Z"/><rect class="cls-3" x="56" y="118" width="58" height="12" rx="6"/><path d="M62,127v-7.14h.87v6.35h2.71V127Z"/><path d="M68.43,121.54a1.71,1.71,0,0,1,1.32.45,2,2,0,0,1,.41,1.37V127h-.62l-.16-.75h0a2.07,2.07,0,0,1-.65.64,1.84,1.84,0,0,1-.94.21,1.48,1.48,0,0,1-1.1-.42,1.62,1.62,0,0,1-.41-1.17,1.48,1.48,0,0,1,.57-1.24,3,3,0,0,1,1.7-.48l.8,0v-.33a1.39,1.39,0,0,0-.24-.92.91.91,0,0,0-.72-.27,2.25,2.25,0,0,0-.68.11,4,4,0,0,0-.64.27l-.28-.64a3.44,3.44,0,0,1,.78-.32A3.24,3.24,0,0,1,68.43,121.54Zm.89,2.83-.68,0a2,2,0,0,0-1.17.31,1,1,0,0,0-.34.8.79.79,0,0,0,.86.9,1.3,1.3,0,0,0,1-.38,1.62,1.62,0,0,0,.37-1.16Z"/><path d="M70.93,121.64h.9l1,3c.08.24.15.47.21.7s.12.46.16.67h0c0-.17.08-.37.15-.62s.15-.5.23-.75l1-3h.9l-2,6.13a3.09,3.09,0,0,1-.66,1.2,1.43,1.43,0,0,1-1.1.43l-.35,0-.29-.06v-.71l.23,0,.28,0a.86.86,0,0,0,.64-.24,1.83,1.83,0,0,0,.39-.74l.24-.7Z"/><path d="M78.14,121.54a1.84,1.84,0,0,1,1.09.31,1.87,1.87,0,0,1,.68.85,3,3,0,0,1,.23,1.24v.54H76.88a2.28,2.28,0,0,0,.41,1.41,1.35,1.35,0,0,0,1.11.48,3.24,3.24,0,0,0,.79-.09,3.06,3.06,0,0,0,.72-.28v.75a3.6,3.6,0,0,1-.73.27,4.13,4.13,0,0,1-.84.08,2.1,2.1,0,0,1-1.71-.73,3,3,0,0,1-.62-2,3.41,3.41,0,0,1,.57-2.08A1.87,1.87,0,0,1,78.14,121.54Zm0,.7a1,1,0,0,0-.86.4,2.12,2.12,0,0,0-.38,1.16h2.38a2.07,2.07,0,0,0-.27-1.11A.94.94,0,0,0,78.13,122.24Z"/><path d="M83.63,121.54a2.65,2.65,0,0,1,.58.06l-.12.82a1.37,1.37,0,0,0-.25,0l-.27,0a1.11,1.11,0,0,0-.67.23,1.73,1.73,0,0,0-.48.63,2.33,2.33,0,0,0-.19,1V127h-.85v-5.36h.68l.11,1h0a2.46,2.46,0,0,1,.59-.75A1.25,1.25,0,0,1,83.63,121.54Z"/><path d="M90.35,127h-1L86,121.11h0c0,.25,0,.52.05.83s0,.62,0,.93V127h-.83v-7.14h1l3.31,5.84h0c0-.21,0-.49,0-.82s0-.63,0-.9v-4.12h.81Z"/><path d="M96.21,124.31a3.17,3.17,0,0,1-.6,2,2,2,0,0,1-1.65.74,2.12,2.12,0,0,1-1.18-.33,2.21,2.21,0,0,1-.77-1,3.7,3.7,0,0,1-.28-1.49,3.17,3.17,0,0,1,.59-2,2,2,0,0,1,1.65-.72,2,2,0,0,1,1.62.71A3.09,3.09,0,0,1,96.21,124.31Zm-3.6,0a2.93,2.93,0,0,0,.33,1.52,1.24,1.24,0,0,0,2.06,0,2.94,2.94,0,0,0,.32-1.52A2.87,2.87,0,0,0,95,122.8a1.28,1.28,0,0,0-2.07,0A3,3,0,0,0,92.61,124.31Z"/><path d="M99.72,121.54a2.49,2.49,0,0,1,.57.06l-.11.82a1.37,1.37,0,0,0-.25,0l-.27,0a1.11,1.11,0,0,0-.67.23,1.63,1.63,0,0,0-.48.63,2.33,2.33,0,0,0-.19,1V127h-.85v-5.36h.68l.11,1h0a2.46,2.46,0,0,1,.59-.75A1.25,1.25,0,0,1,99.72,121.54Z"/><path d="M106.49,121.54a1.5,1.5,0,0,1,1.21.46,2.21,2.21,0,0,1,.4,1.47V127h-.85v-3.45c0-.85-.31-1.28-.94-1.28a1,1,0,0,0-1,.45,2.53,2.53,0,0,0-.29,1.32v3h-.84v-3.46a1.58,1.58,0,0,0-.23-1,.85.85,0,0,0-.72-.31,1,1,0,0,0-1,.52,3.21,3.21,0,0,0-.26,1.42V127h-.85v-5.36h.68l.12.73h0a1.44,1.44,0,0,1,.6-.62,1.64,1.64,0,0,1,.82-.21,1.35,1.35,0,0,1,1.44.88h0a1.66,1.66,0,0,1,.64-.67A1.91,1.91,0,0,1,106.49,121.54Z"/><rect class="cls-3" x="56" y="132" width="58" height="12" rx="6"/><path d="M75.25,135.4l.49.49-1.58,1.58,1.56,1.58-.49.49L73.65,138l-1.55,1.57-.5-.49,1.56-1.58-1.57-1.57.5-.5L73.66,137Z"/><path d="M83.17,135.64l-1.72,5.17a5.65,5.65,0,0,0-.24.88c-.07.31-.12.61-.16.91a5.81,5.81,0,0,0,0,.8h-.91a4.86,4.86,0,0,1,0-.7c0-.29.09-.58.16-.89a7.44,7.44,0,0,1,.22-.82l-1.88-5.35h.88l.93,2.63.29.95a5.31,5.31,0,0,1,.19.84h0c0-.14.06-.31.11-.52s.1-.42.16-.64.12-.41.18-.6l.87-2.66Z"/><path d="M88.49,137.12h1.8v.7h-1.8v2h-.71v-2H86v-.7h1.81v-2h.71Z"/><path d="M96,133.35a2.17,2.17,0,0,1,1.48.49,1.77,1.77,0,0,1,.56,1.4,1.5,1.5,0,0,1-1.34,1.7v0a1.85,1.85,0,0,1,1.23.59,2.12,2.12,0,0,1,.42,1.41,2.09,2.09,0,0,1-.58,1.57,2.18,2.18,0,0,1-1.59.55,3.26,3.26,0,0,1-.84-.09,2.51,2.51,0,0,1-.63-.25v2.64h-.85v-7.84a2.15,2.15,0,0,1,.59-1.67A2.22,2.22,0,0,1,96,133.35Zm0,.72a1.25,1.25,0,0,0-.9.35,1.52,1.52,0,0,0-.37,1.17V140a3.17,3.17,0,0,0,.62.28,2.47,2.47,0,0,0,.75.11,1.36,1.36,0,0,0,1.07-.38,1.62,1.62,0,0,0,.34-1.09,1.49,1.49,0,0,0-.41-1.15,1.56,1.56,0,0,0-1.1-.37h-.41v-.74h.32a1.24,1.24,0,0,0,1-.36,1.47,1.47,0,0,0,.31-1,1.19,1.19,0,0,0-.33-.92A1.2,1.2,0,0,0,96,134.07Z"/><rect class="cls-6" x="56" y="160" width="58" height="12" rx="6"/><path d="M67.7,161.86v4.72a2.66,2.66,0,0,1-.62,1.84,2.83,2.83,0,0,1-3.67,0,2.66,2.66,0,0,1-.62-1.86v-4.71h.87v4.74c0,1.15.54,1.72,1.59,1.72a1.48,1.48,0,0,0,1.2-.45,2,2,0,0,0,.37-1.28v-4.73Z"/><path d="M71.64,163.54a1.64,1.64,0,0,1,1.28.46,2.07,2.07,0,0,1,.43,1.46V169H72.5v-3.45a1.58,1.58,0,0,0-.24-1,.91.91,0,0,0-.77-.32,1.14,1.14,0,0,0-1,.48,2.88,2.88,0,0,0-.3,1.47V169h-.85v-5.36H70l.12.73h0a1.59,1.59,0,0,1,.64-.62A1.85,1.85,0,0,1,71.64,163.54Z"/><path d="M77.22,163.54a1.71,1.71,0,0,1,1.44.69,4.33,4.33,0,0,1,0,4.15,1.68,1.68,0,0,1-1.43.72,1.75,1.75,0,0,1-.91-.22,2,2,0,0,1-.59-.57h0c0,.12,0,.26,0,.41s0,.3,0,.41v2.27h-.85v-7.76h.69l.12.73h0a1.88,1.88,0,0,1,.59-.6A1.67,1.67,0,0,1,77.22,163.54Zm-.17.72a1.13,1.13,0,0,0-1,.46,2.79,2.79,0,0,0-.31,1.42v.18a3,3,0,0,0,.31,1.54,1.07,1.07,0,0,0,1,.52,1,1,0,0,0,.94-.56,3.21,3.21,0,0,0,.3-1.51,3.13,3.13,0,0,0-.3-1.51A1,1,0,0,0,77.05,164.26Z"/><path d="M82.29,163.54a1.73,1.73,0,0,1,1.32.45,2,2,0,0,1,.41,1.37V169h-.63l-.15-.75h0a2.07,2.07,0,0,1-.65.64,1.84,1.84,0,0,1-.94.21,1.48,1.48,0,0,1-1.1-.42,1.62,1.62,0,0,1-.41-1.17,1.48,1.48,0,0,1,.57-1.24,3,3,0,0,1,1.7-.48l.8,0v-.33a1.39,1.39,0,0,0-.24-.92.91.91,0,0,0-.72-.27,2.25,2.25,0,0,0-.68.11,4.48,4.48,0,0,0-.65.27l-.27-.64a3.56,3.56,0,0,1,.77-.32A3.37,3.37,0,0,1,82.29,163.54Zm.89,2.83-.68,0a2,2,0,0,0-1.17.31,1,1,0,0,0-.34.8.79.79,0,0,0,.86.9,1.3,1.3,0,0,0,1-.38,1.62,1.62,0,0,0,.37-1.16Z"/><path d="M87.16,168.38a2.07,2.07,0,0,0,.35,0,1.73,1.73,0,0,0,.31-.08v.67a1.15,1.15,0,0,1-.38.11,2.5,2.5,0,0,1-.47,0,1.43,1.43,0,0,1-1-.35,1.59,1.59,0,0,1-.39-1.23v-3.2h-.67v-.43l.69-.3.3-1.18h.54v1.23h1.3v.68h-1.3v3.16a1.05,1.05,0,0,0,.18.67A.64.64,0,0,0,87.16,168.38Z"/><path d="M90.72,169.1a2,2,0,0,1-1.6-.68,3,3,0,0,1-.6-2.07,3.12,3.12,0,0,1,.62-2.12,2.07,2.07,0,0,1,1.63-.69,2.71,2.71,0,0,1,.71.08,2.29,2.29,0,0,1,.56.19l-.27.71a4,4,0,0,0-.49-.16,1.89,1.89,0,0,0-.51-.07c-.91,0-1.37.68-1.37,2.05a2.84,2.84,0,0,0,.34,1.51,1.12,1.12,0,0,0,1,.51,2.63,2.63,0,0,0,.65-.08,2.49,2.49,0,0,0,.56-.21v.74A2.45,2.45,0,0,1,90.72,169.1Z"/><path d="M94,161.4v2.2c0,.13,0,.27,0,.4s0,.26,0,.37H94a1.54,1.54,0,0,1,.62-.62,1.85,1.85,0,0,1,.86-.21,1.68,1.68,0,0,1,1.3.47,2.13,2.13,0,0,1,.42,1.45V169h-.85v-3.45a1.61,1.61,0,0,0-.24-1,.94.94,0,0,0-.77-.31,1.13,1.13,0,0,0-1,.5,2.83,2.83,0,0,0-.3,1.45V169H93.1v-7.6Z"/><path d="M99.13,161.62a.48.48,0,0,1,.35.14.56.56,0,0,1,.14.43.53.53,0,0,1-.14.42.48.48,0,0,1-.35.14.52.52,0,0,1-.36-.14.54.54,0,0,1-.15-.42.56.56,0,0,1,.15-.43A.52.52,0,0,1,99.13,161.62Zm.41,2V169h-.85v-5.36Z"/><path d="M103.3,164.32h-1.16V169h-.86v-4.68h-.83v-.42l.83-.29v-.31a2.27,2.27,0,0,1,.39-1.47,1.4,1.4,0,0,1,1.16-.48,2.78,2.78,0,0,1,.52.05,2.43,2.43,0,0,1,.43.12l-.22.68-.33-.09a1.47,1.47,0,0,0-.36,0,.6.6,0,0,0-.55.28,1.81,1.81,0,0,0-.18.93v.36h1.16Z"/><path d="M103.45,163.64h.9l1,3c.08.24.15.47.21.7s.12.46.16.67h0c0-.17.08-.37.15-.62s.15-.5.23-.75l.95-3h.9l-2,6.13a3.09,3.09,0,0,1-.66,1.2,1.43,1.43,0,0,1-1.1.43l-.35,0-.3-.06v-.71l.24,0,.28,0a.86.86,0,0,0,.64-.24,1.83,1.83,0,0,0,.39-.74l.24-.7Z"/><rect class="cls-6" x="56" y="146" width="58" height="12" rx="6"/><path d="M81.6,155h-.88v-7.14h3.57v.78H81.6v2.54h2.53V152H81.6Z"/><path d="M88.14,148.54a1.83,1.83,0,0,0-1.16.37,2.35,2.35,0,0,0-.73,1,4.29,4.29,0,0,0-.24,1.5,3.57,3.57,0,0,0,.55,2.11,1.84,1.84,0,0,0,1.6.78,3.69,3.69,0,0,0,.76-.08,5.75,5.75,0,0,0,.71-.2v.78a4.27,4.27,0,0,1-.72.21,4.51,4.51,0,0,1-.87.07,2.81,2.81,0,0,1-1.62-.45,2.68,2.68,0,0,1-1-1.27,5.26,5.26,0,0,1-.33-2,4.78,4.78,0,0,1,.35-1.88,2.72,2.72,0,0,1,2.7-1.78,3.74,3.74,0,0,1,1.73.39l-.33.75a3.52,3.52,0,0,0-.65-.26A3,3,0,0,0,88.14,148.54Z"/><rect class="cls-6" x="168" y="46" width="90" height="12" rx="6"/><path d="M177.09,55,175,48.84h0c0,.25,0,.53.06.84s0,.61,0,.9V55h-.82V47.86h1.28l2,5.84h0l2-5.84h1.26V55H180V50.55c0-.27,0-.56,0-.87s0-.58,0-.83h0L177.83,55Z"/><path d="M187.44,55h-.88V51.66h-3.12V55h-.88V47.86h.88v3h3.12v-3h.88Z"/><path d="M192.88,53.07a1.84,1.84,0,0,1-.62,1.48,2.43,2.43,0,0,1-1.68.55,6.23,6.23,0,0,1-1-.08,2.82,2.82,0,0,1-.79-.25v-.86a4.83,4.83,0,0,0,.84.29,4,4,0,0,0,1,.12,1.55,1.55,0,0,0,1-.32,1.1,1.1,0,0,0,.36-.85,1.2,1.2,0,0,0-.13-.59,1.27,1.27,0,0,0-.45-.44,6.61,6.61,0,0,0-.88-.43,3.36,3.36,0,0,1-1.24-.79,1.86,1.86,0,0,1-.42-1.3,1.69,1.69,0,0,1,1-1.62,2.54,2.54,0,0,1,1.1-.22,4.26,4.26,0,0,1,1,.11,3.84,3.84,0,0,1,.79.27l-.27.77a4.2,4.2,0,0,0-.73-.26,2.88,2.88,0,0,0-.78-.1,1.25,1.25,0,0,0-.89.29,1,1,0,0,0-.32.75,1.35,1.35,0,0,0,.13.61,1.3,1.3,0,0,0,.44.43,5.25,5.25,0,0,0,.82.4,4,4,0,0,1,1.3.8A1.7,1.7,0,0,1,192.88,53.07Z"/><path d="M198.1,55l-.73-2.22H195L194.24,55h-.91l2.39-7.16h.88L199,55Zm-1-3-.7-2.23a2.44,2.44,0,0,0-.08-.32c0-.13-.07-.26-.11-.4a1.93,1.93,0,0,1-.08-.33c0,.19-.08.37-.13.56s-.1.36-.14.49L195.2,52Z"/><path d="M206.31,52.31a3.17,3.17,0,0,1-.59,2,2.21,2.21,0,0,1-2.83.4,2.13,2.13,0,0,1-.77-1,3.7,3.7,0,0,1-.28-1.49,3.17,3.17,0,0,1,.59-2.05,2,2,0,0,1,1.65-.72,2,2,0,0,1,1.62.71A3.09,3.09,0,0,1,206.31,52.31Zm-3.59,0a2.93,2.93,0,0,0,.33,1.52,1.24,1.24,0,0,0,2.06,0,2.94,2.94,0,0,0,.32-1.52,2.87,2.87,0,0,0-.32-1.51,1.28,1.28,0,0,0-2.07,0A3,3,0,0,0,202.72,52.31Z"/><path d="M209.93,49.54a1.64,1.64,0,0,1,1.28.46,2.07,2.07,0,0,1,.43,1.46V55h-.85V51.55a1.58,1.58,0,0,0-.24-1,.91.91,0,0,0-.77-.32,1.14,1.14,0,0,0-1.05.48,2.88,2.88,0,0,0-.3,1.47V55h-.85V49.64h.68l.12.73h.05a1.59,1.59,0,0,1,.64-.62A1.85,1.85,0,0,1,209.93,49.54Z"/><path d="M217.1,54.38l.36,0,.3-.08v.67a1.34,1.34,0,0,1-.38.11,2.49,2.49,0,0,1-.46.05,1.44,1.44,0,0,1-1-.35,1.59,1.59,0,0,1-.39-1.23v-3.2h-.66v-.43l.68-.3.3-1.18h.53v1.23h1.32v.68h-1.32v3.16a1,1,0,0,0,.19.67A.64.64,0,0,0,217.1,54.38Z"/><path d="M219.17,47.62a.48.48,0,0,1,.35.14.56.56,0,0,1,.14.43.53.53,0,0,1-.14.42.48.48,0,0,1-.35.14.52.52,0,0,1-.36-.14.54.54,0,0,1-.15-.42.56.56,0,0,1,.15-.43A.52.52,0,0,1,219.17,47.62Zm.41,2V55h-.85V49.64Z"/><path d="M226.43,49.54a1.5,1.5,0,0,1,1.21.46,2.21,2.21,0,0,1,.4,1.47V55h-.85V51.55c0-.85-.31-1.28-.94-1.28a1,1,0,0,0-.95.45A2.53,2.53,0,0,0,225,52v3h-.84V51.54a1.58,1.58,0,0,0-.23-1,.85.85,0,0,0-.72-.31,1,1,0,0,0-1,.52,3.21,3.21,0,0,0-.26,1.42V55h-.85V49.64h.68l.12.73H222a1.44,1.44,0,0,1,.6-.62,1.64,1.64,0,0,1,.82-.21,1.35,1.35,0,0,1,1.44.88h.05a1.66,1.66,0,0,1,.64-.67A1.91,1.91,0,0,1,226.43,49.54Z"/><path d="M231.42,49.54a1.91,1.91,0,0,1,1.09.3,2,2,0,0,1,.68.85,3.1,3.1,0,0,1,.23,1.25v.54h-3.26a2.28,2.28,0,0,0,.41,1.41,1.35,1.35,0,0,0,1.11.48,3.24,3.24,0,0,0,.79-.09,3.06,3.06,0,0,0,.72-.28v.75a3,3,0,0,1-.73.26,3.49,3.49,0,0,1-.84.09,2.1,2.1,0,0,1-1.71-.73,3,3,0,0,1-.62-2,3.34,3.34,0,0,1,.57-2.08A1.87,1.87,0,0,1,231.42,49.54Zm0,.7a1,1,0,0,0-.86.4,2.12,2.12,0,0,0-.38,1.16h2.38a2.14,2.14,0,0,0-.27-1.12A1,1,0,0,0,231.41,50.24Z"/><path d="M238.8,49.54a1.73,1.73,0,0,1,1.32.45,2,2,0,0,1,.41,1.37V55h-.63l-.15-.75h0a2.07,2.07,0,0,1-.65.64,1.84,1.84,0,0,1-.94.21,1.48,1.48,0,0,1-1.1-.42,1.62,1.62,0,0,1-.41-1.17,1.48,1.48,0,0,1,.57-1.24,3,3,0,0,1,1.7-.48l.8,0v-.33a1.39,1.39,0,0,0-.24-.92.91.91,0,0,0-.72-.27,2.25,2.25,0,0,0-.68.11,4.48,4.48,0,0,0-.65.27l-.27-.64a3.56,3.56,0,0,1,.77-.32A3.37,3.37,0,0,1,238.8,49.54Zm.89,2.83-.68,0a2,2,0,0,0-1.17.31,1,1,0,0,0-.34.8.86.86,0,0,0,.24.68.86.86,0,0,0,.62.22,1.27,1.27,0,0,0,1-.39,1.58,1.58,0,0,0,.37-1.15Z"/><path d="M243.14,52.25l-1.61-2.61h.95l1.17,2,1.16-2h.94l-1.61,2.62,1.7,2.74h-1l-1.25-2.11L242.38,55h-.93Z"/><path d="M247.22,47.62a.48.48,0,0,1,.35.14.56.56,0,0,1,.14.43.53.53,0,0,1-.14.42.48.48,0,0,1-.35.14.52.52,0,0,1-.36-.14.54.54,0,0,1-.15-.42.56.56,0,0,1,.15-.43A.52.52,0,0,1,247.22,47.62Zm.41,2V55h-.85V49.64Z"/><path d="M252.28,53.53a1.41,1.41,0,0,1-.51,1.17,2.2,2.2,0,0,1-1.4.4,3.6,3.6,0,0,1-.86-.09,2.19,2.19,0,0,1-.65-.24V54a3.77,3.77,0,0,0,.69.29,2.56,2.56,0,0,0,.82.13,1.28,1.28,0,0,0,.82-.21.68.68,0,0,0,.26-.57.65.65,0,0,0-.23-.52,3.35,3.35,0,0,0-.9-.51,6.88,6.88,0,0,1-.78-.42,1.58,1.58,0,0,1-.51-.48,1.35,1.35,0,0,1-.18-.72,1.21,1.21,0,0,1,.51-1,2.17,2.17,0,0,1,1.32-.37,3.47,3.47,0,0,1,.81.09,3.23,3.23,0,0,1,.72.26l-.3.68a3.67,3.67,0,0,0-.61-.23,2.39,2.39,0,0,0-.66-.09,1.24,1.24,0,0,0-.72.18.58.58,0,0,0-.25.48.66.66,0,0,0,.11.38,1.33,1.33,0,0,0,.37.3c.18.1.41.21.71.34a3.64,3.64,0,0,1,1,.63A1.24,1.24,0,0,1,252.28,53.53Z"/><rect class="cls-6" x="168" y="60" width="90" height="12" rx="6"/><path d="M173.39,69V61.86h.88v6.35H177V69Z"/><path d="M178.41,61.62a.48.48,0,0,1,.35.14.6.6,0,0,1,.14.43.57.57,0,0,1-.14.42.48.48,0,0,1-.35.14.53.53,0,0,1-.37-.14.57.57,0,0,1-.14-.42.6.6,0,0,1,.14-.43A.53.53,0,0,1,178.41,61.62Zm.41,2V69H178V63.64Z"/><path d="M182.73,63.54A1.66,1.66,0,0,1,184,64a2.07,2.07,0,0,1,.43,1.46V69h-.85V65.55a1.58,1.58,0,0,0-.24-1,.93.93,0,0,0-.77-.32,1.12,1.12,0,0,0-1.05.48,2.88,2.88,0,0,0-.3,1.47V69h-.85V63.64h.68l.12.73h0a1.53,1.53,0,0,1,.64-.62A1.82,1.82,0,0,1,182.73,63.54Z"/><path d="M187.83,63.54a1.91,1.91,0,0,1,1.09.3,2,2,0,0,1,.67.85,3.1,3.1,0,0,1,.24,1.25v.54h-3.26a2.21,2.21,0,0,0,.41,1.41,1.32,1.32,0,0,0,1.11.48,3.24,3.24,0,0,0,.79-.09,3.44,3.44,0,0,0,.72-.28v.75a3.21,3.21,0,0,1-.73.26,3.61,3.61,0,0,1-.84.09,2.1,2.1,0,0,1-1.71-.73,3,3,0,0,1-.62-2,3.34,3.34,0,0,1,.57-2.08A1.87,1.87,0,0,1,187.83,63.54Zm0,.7a1,1,0,0,0-.86.4,2.12,2.12,0,0,0-.38,1.16H189a2.14,2.14,0,0,0-.27-1.12A1,1,0,0,0,187.82,64.24Z"/><path d="M192.89,63.54a1.73,1.73,0,0,1,1.32.45,2,2,0,0,1,.41,1.37V69H194l-.15-.75h0a2.18,2.18,0,0,1-.65.64,1.84,1.84,0,0,1-.94.21,1.46,1.46,0,0,1-1.1-.42,1.62,1.62,0,0,1-.41-1.17,1.48,1.48,0,0,1,.57-1.24,2.94,2.94,0,0,1,1.7-.48l.8,0v-.33a1.39,1.39,0,0,0-.24-.92.94.94,0,0,0-.72-.27,2.25,2.25,0,0,0-.68.11,4.06,4.06,0,0,0-.65.27l-.27-.64a3.34,3.34,0,0,1,1.67-.44Zm.89,2.83-.68,0a2,2,0,0,0-1.17.31,1,1,0,0,0-.34.8.86.86,0,0,0,.24.68.84.84,0,0,0,.62.22,1.27,1.27,0,0,0,1-.39,1.58,1.58,0,0,0,.37-1.15Z"/><path d="M198.4,63.54a2.49,2.49,0,0,1,.57.06l-.11.82-.25,0-.27,0a1.09,1.09,0,0,0-.67.23,1.56,1.56,0,0,0-.48.63,2.18,2.18,0,0,0-.19,1V69h-.85V63.64h.68l.11,1h0a2.31,2.31,0,0,1,.59-.75A1.23,1.23,0,0,1,198.4,63.54Z"/><path d="M206.39,66.31a3.17,3.17,0,0,1-.6,2,2.2,2.2,0,0,1-2.82.4,2.13,2.13,0,0,1-.77-1,3.54,3.54,0,0,1-.28-1.49,3.23,3.23,0,0,1,.58-2,2.24,2.24,0,0,1,3.28,0A3.09,3.09,0,0,1,206.39,66.31Zm-3.59,0a2.93,2.93,0,0,0,.33,1.52,1.24,1.24,0,0,0,2.06,0,3,3,0,0,0,.32-1.52,3,3,0,0,0-.32-1.51,1.15,1.15,0,0,0-1-.53,1.12,1.12,0,0,0-1,.53A3,3,0,0,0,202.8,66.31Z"/><path d="M210,63.54a1.66,1.66,0,0,1,1.28.46,2.07,2.07,0,0,1,.43,1.46V69h-.85V65.55a1.51,1.51,0,0,0-.25-1,.89.89,0,0,0-.76-.32,1.15,1.15,0,0,0-1.06.48,3,3,0,0,0-.29,1.47V69h-.85V63.64h.68l.12.73h0a1.57,1.57,0,0,1,.63-.62A1.89,1.89,0,0,1,210,63.54Z"/><path d="M217.77,64.32h-1.16V69h-.86V64.32h-.83V63.9l.83-.29V63.3a2.33,2.33,0,0,1,.38-1.47,1.42,1.42,0,0,1,1.17-.48,2.59,2.59,0,0,1,.51,0,2.55,2.55,0,0,1,.44.12l-.22.68-.33-.09a1.47,1.47,0,0,0-.36,0,.59.59,0,0,0-.55.28,1.81,1.81,0,0,0-.18.93v.36h1.16Z"/><path d="M220.93,63.54a2.49,2.49,0,0,1,.57.06l-.11.82-.25,0-.27,0a1.09,1.09,0,0,0-.67.23,1.67,1.67,0,0,0-.49.63,2.33,2.33,0,0,0-.18,1V69h-.85V63.64h.68l.11,1h0a2.43,2.43,0,0,1,.58-.75A1.27,1.27,0,0,1,220.93,63.54Z"/><path d="M224.1,63.54a1.86,1.86,0,0,1,1.08.3,1.91,1.91,0,0,1,.68.85,3.1,3.1,0,0,1,.24,1.25v.54h-3.26a2.21,2.21,0,0,0,.41,1.41,1.32,1.32,0,0,0,1.11.48,3.1,3.1,0,0,0,.78-.09,3.31,3.31,0,0,0,.73-.28v.75a3.12,3.12,0,0,1-.74.26,3.46,3.46,0,0,1-.83.09,2.14,2.14,0,0,1-1.72-.73,3,3,0,0,1-.61-2,3.34,3.34,0,0,1,.57-2.08A1.87,1.87,0,0,1,224.1,63.54Zm0,.7a1,1,0,0,0-.87.4,2.12,2.12,0,0,0-.37,1.16h2.38a2.14,2.14,0,0,0-.27-1.12A1,1,0,0,0,224.09,64.24Z"/><path d="M230.52,71.4V69.14c0-.12,0-.26,0-.42s0-.3,0-.45h0a1.72,1.72,0,0,1-.6.6,1.83,1.83,0,0,1-2.33-.47,3.43,3.43,0,0,1-.53-2.07,3.36,3.36,0,0,1,.54-2.08,1.73,1.73,0,0,1,1.44-.71,1.67,1.67,0,0,1,.9.22,1.75,1.75,0,0,1,.58.6h0l.11-.72h.7V71.4Zm-1.32-3a1.12,1.12,0,0,0,1-.46,2.57,2.57,0,0,0,.32-1.39v-.2a3.09,3.09,0,0,0-.31-1.56,1.11,1.11,0,0,0-1-.51,1,1,0,0,0-.94.55,3.29,3.29,0,0,0-.3,1.54,3,3,0,0,0,.31,1.52A1,1,0,0,0,229.2,68.38Z"/><path d="M232.82,68.46A.65.65,0,0,1,233,68a.59.59,0,0,1,.43-.16.6.6,0,0,1,.42.15.84.84,0,0,1,0,1,.57.57,0,0,1-.42.16A.59.59,0,0,1,233,69,.67.67,0,0,1,232.82,68.46Z"/><path d="M239.6,63.54a1.69,1.69,0,0,1,1.31.45,2,2,0,0,1,.42,1.37V69h-.63l-.15-.75h0a2.1,2.1,0,0,1-.66.64,1.78,1.78,0,0,1-.93.21,1.46,1.46,0,0,1-1.1-.42,1.62,1.62,0,0,1-.41-1.17,1.5,1.5,0,0,1,.56-1.24,3,3,0,0,1,1.71-.48l.8,0v-.33a1.33,1.33,0,0,0-.25-.92.91.91,0,0,0-.71-.27,2.25,2.25,0,0,0-.68.11,4.06,4.06,0,0,0-.65.27l-.27-.64a3.34,3.34,0,0,1,1.67-.44Zm.89,2.83-.68,0a2,2,0,0,0-1.17.31,1,1,0,0,0-.34.8.9.9,0,0,0,.23.68.88.88,0,0,0,.63.22,1.25,1.25,0,0,0,1-.39,1.58,1.58,0,0,0,.38-1.15Z"/><path d="M243.94,66.25l-1.61-2.61h.95l1.17,2,1.16-2h.94l-1.61,2.62,1.7,2.74h-.95l-1.25-2.11L243.18,69h-.93Z"/><path d="M248,61.62a.48.48,0,0,1,.35.14.6.6,0,0,1,.14.43.57.57,0,0,1-.14.42.48.48,0,0,1-.35.14.53.53,0,0,1-.37-.14.57.57,0,0,1-.14-.42.6.6,0,0,1,.14-.43A.53.53,0,0,1,248,61.62Zm.41,2V69h-.85V63.64Z"/><path d="M253.08,67.53a1.39,1.39,0,0,1-.52,1.17,2.19,2.19,0,0,1-1.39.4,3.69,3.69,0,0,1-.87-.09,2.12,2.12,0,0,1-.64-.24V68a3.65,3.65,0,0,0,.68.29,2.62,2.62,0,0,0,.83.13,1.3,1.3,0,0,0,.82-.21.7.7,0,0,0,.26-.57.66.66,0,0,0-.24-.52,3.1,3.1,0,0,0-.89-.51,6.88,6.88,0,0,1-.78-.42,1.58,1.58,0,0,1-.51-.48,1.35,1.35,0,0,1-.18-.72,1.23,1.23,0,0,1,.5-1,2.18,2.18,0,0,1,1.33-.37,3.47,3.47,0,0,1,.81.09,3.64,3.64,0,0,1,.72.26l-.3.68a4,4,0,0,0-.61-.23,2.39,2.39,0,0,0-.66-.09,1.21,1.21,0,0,0-.72.18.56.56,0,0,0-.25.48.59.59,0,0,0,.11.38,1.2,1.2,0,0,0,.37.3,7,7,0,0,0,.71.34,3.57,3.57,0,0,1,1,.63A1.25,1.25,0,0,1,253.08,67.53Z"/><rect class="cls-3" x="182" y="132" width="62" height="12" rx="6"/><path d="M189.15,133.86a2.73,2.73,0,0,1,1.87.54,2,2,0,0,1,.59,1.56,2.6,2.6,0,0,1-.26,1.16,1.77,1.77,0,0,1-.82.8,3.18,3.18,0,0,1-1.49.3h-.7V141h-.88v-7.14Zm-.07.76h-.74v2.84H189a2.14,2.14,0,0,0,1.33-.34,1.38,1.38,0,0,0,.43-1.13,1.3,1.3,0,0,0-.4-1A1.88,1.88,0,0,0,189.08,134.62Z"/><path d="M197,138.31a3.17,3.17,0,0,1-.6,2.05,2,2,0,0,1-1.65.74,2.12,2.12,0,0,1-1.18-.33,2.21,2.21,0,0,1-.77-1,3.7,3.7,0,0,1-.28-1.49,3.17,3.17,0,0,1,.59-2.05,2,2,0,0,1,1.66-.72,2,2,0,0,1,1.61.71A3.09,3.09,0,0,1,197,138.31Zm-3.6,0a3,3,0,0,0,.33,1.52,1.13,1.13,0,0,0,1,.55,1.1,1.1,0,0,0,1-.55,2.94,2.94,0,0,0,.32-1.52,2.87,2.87,0,0,0-.32-1.51,1.13,1.13,0,0,0-1-.53,1.11,1.11,0,0,0-1,.53A2.87,2.87,0,0,0,193.42,138.31Z"/><path d="M198.73,133.62a.5.5,0,0,1,.35.14.6.6,0,0,1,.13.43.57.57,0,0,1-.13.42.5.5,0,0,1-.35.14.53.53,0,0,1-.37-.14.54.54,0,0,1-.15-.42.56.56,0,0,1,.15-.43A.53.53,0,0,1,198.73,133.62Zm.4,2V141h-.84v-5.36Z"/><path d="M203,135.54a1.68,1.68,0,0,1,1.29.46,2.12,2.12,0,0,1,.42,1.46V141h-.84v-3.45a1.57,1.57,0,0,0-.25-1,.91.91,0,0,0-.77-.32,1.14,1.14,0,0,0-1,.48,2.88,2.88,0,0,0-.3,1.47V141h-.85v-5.36h.69l.12.73h0a1.59,1.59,0,0,1,.64-.62A1.85,1.85,0,0,1,203,135.54Z"/><path d="M207.89,140.38l.36,0,.3-.08v.67a1.08,1.08,0,0,1-.38.11,2.49,2.49,0,0,1-.46,0,1.44,1.44,0,0,1-1-.35,1.59,1.59,0,0,1-.39-1.23v-3.2h-.66v-.43l.68-.3.3-1.18h.53v1.23h1.32v.68h-1.32v3.16a1,1,0,0,0,.19.67A.64.64,0,0,0,207.89,140.38Z"/><path d="M213.46,141l-.8-3.1c-.07-.25-.13-.49-.18-.73s-.09-.44-.13-.6h0c0,.17-.07.37-.12.61s-.12.48-.19.73l-.85,3.09h-1l-1.37-5.36h.88l.66,2.79c.07.29.13.58.2.87s.1.54.13.77h0c0-.19.07-.42.13-.71a8,8,0,0,1,.2-.81l.8-2.91h1l.77,2.91c.07.21.13.46.19.73s.11.54.14.79h0c0-.15.06-.36.12-.61s.11-.53.17-.82l.72-3h.86L214.46,141Z"/><path d="M217.17,133.62a.48.48,0,0,1,.34.14.56.56,0,0,1,.14.43.53.53,0,0,1-.14.42.48.48,0,0,1-.34.14.53.53,0,0,1-.37-.14.54.54,0,0,1-.15-.42.56.56,0,0,1,.15-.43A.53.53,0,0,1,217.17,133.62Zm.4,2V141h-.85v-5.36Z"/><path d="M222.22,139.53a1.41,1.41,0,0,1-.51,1.17,2.2,2.2,0,0,1-1.4.4,4.27,4.27,0,0,1-.86-.08,2.51,2.51,0,0,1-.65-.25V140a3.77,3.77,0,0,0,.69.29,2.6,2.6,0,0,0,.82.13,1.28,1.28,0,0,0,.82-.21.68.68,0,0,0,.26-.57.65.65,0,0,0-.23-.52,3.19,3.19,0,0,0-.9-.51,7.87,7.87,0,0,1-.78-.42,1.48,1.48,0,0,1-.51-.48,1.35,1.35,0,0,1-.18-.72,1.21,1.21,0,0,1,.51-1,2.17,2.17,0,0,1,1.32-.37,3.47,3.47,0,0,1,.81.09,3.23,3.23,0,0,1,.72.26l-.3.68a3.92,3.92,0,0,0-.6-.23,2.52,2.52,0,0,0-.67-.09,1.24,1.24,0,0,0-.72.18.58.58,0,0,0-.25.48.66.66,0,0,0,.11.38,1.33,1.33,0,0,0,.37.3c.18.1.41.21.71.34a3.64,3.64,0,0,1,1,.63A1.24,1.24,0,0,1,222.22,139.53Z"/><path d="M225.27,135.54a1.84,1.84,0,0,1,1.09.31,1.87,1.87,0,0,1,.68.85,3,3,0,0,1,.23,1.24v.54H224a2.28,2.28,0,0,0,.41,1.41,1.35,1.35,0,0,0,1.11.48,3.24,3.24,0,0,0,.79-.09A3.06,3.06,0,0,0,227,140v.75a3.6,3.6,0,0,1-.73.27,4.13,4.13,0,0,1-.84.08,2.1,2.1,0,0,1-1.71-.73,3,3,0,0,1-.62-2,3.34,3.34,0,0,1,.57-2.08A1.87,1.87,0,0,1,225.27,135.54Zm0,.7a1,1,0,0,0-.86.4,2.12,2.12,0,0,0-.38,1.16h2.38a2.07,2.07,0,0,0-.27-1.11A.94.94,0,0,0,225.26,136.24Z"/><path d="M231.81,141h-.88v-7.14h3.57v.78h-2.69v2.54h2.53V138h-2.53Z"/><path d="M236.49,141h-.88v-7.14h3.57v.78h-2.69v2.54H239V138h-2.53Z"/><rect class="cls-3" x="184" y="74" width="58" height="12" rx="6"/><path d="M210.6,77.4l.49.49-1.58,1.58,1.56,1.58-.49.49L209,80l-1.55,1.57-.5-.49,1.56-1.58-1.57-1.57.5-.5L209,79Z"/><path d="M216.41,83.1a1.71,1.71,0,0,1-1.43-.7,3.4,3.4,0,0,1-.53-2.06,3.52,3.52,0,0,1,.53-2.09,1.79,1.79,0,0,1,1.5-.71,1.75,1.75,0,0,1,.89.21,1.7,1.7,0,0,1,.6.62H218q0-.18.12-.39a1.36,1.36,0,0,1,.18-.34H219a5.43,5.43,0,0,0-.18.9,10.51,10.51,0,0,0-.06,1.12v2.12a.83.83,0,0,0,.11.47.35.35,0,0,0,.28.14h.16l.14,0V83a1,1,0,0,1-.22.08,1,1,0,0,1-.29,0,1,1,0,0,1-.63-.18,1.14,1.14,0,0,1-.33-.65h-.06a1.75,1.75,0,0,1-.58.6A1.73,1.73,0,0,1,216.41,83.1Zm.18-.72a1.1,1.1,0,0,0,1-.49,2.74,2.74,0,0,0,.31-1.48v-.08a3.1,3.1,0,0,0-.3-1.54,1.1,1.1,0,0,0-1-.52,1,1,0,0,0-.95.53,3.25,3.25,0,0,0-.3,1.55,3,3,0,0,0,.3,1.53A1.07,1.07,0,0,0,216.59,82.38Z"/><rect class="cls-3" x="184" y="146" width="58" height="12" rx="6"/><path d="M210.6,149.4l.49.49-1.58,1.58,1.56,1.58-.49.49L209,152l-1.55,1.57-.5-.49,1.56-1.58-1.57-1.57.5-.5L209,151Z"/><path d="M216.41,155.1a1.71,1.71,0,0,1-1.43-.7,3.4,3.4,0,0,1-.53-2.06,3.52,3.52,0,0,1,.53-2.09,1.79,1.79,0,0,1,1.5-.71,1.75,1.75,0,0,1,.89.21,1.7,1.7,0,0,1,.6.62H218q0-.18.12-.39a1.36,1.36,0,0,1,.18-.34H219a5.43,5.43,0,0,0-.18.9,10.51,10.51,0,0,0-.06,1.12v2.12a.83.83,0,0,0,.11.47.35.35,0,0,0,.28.14h.16l.14,0V155a1,1,0,0,1-.22.08,1,1,0,0,1-.29,0,1,1,0,0,1-.63-.18,1.14,1.14,0,0,1-.33-.65h-.06a1.75,1.75,0,0,1-.58.6A1.73,1.73,0,0,1,216.41,155.1Zm.18-.72a1.1,1.1,0,0,0,1-.49,2.74,2.74,0,0,0,.31-1.48v-.08a3.1,3.1,0,0,0-.3-1.54,1.1,1.1,0,0,0-1-.52,1,1,0,0,0-.95.53,3.25,3.25,0,0,0-.3,1.55,3,3,0,0,0,.3,1.53A1.07,1.07,0,0,0,216.59,154.38Z"/><path d="M213.35,93.12h1.8v.7h-1.8v2h-.71v-2h-1.81v-.7h1.81v-2h.71Z"/><circle class="cls-3" cx="213" cy="166" r="6"/><path d="M213.35,165.12h1.8v.7h-1.8v2h-.71v-2h-1.81v-.7h1.81v-2h.71Z"/><rect class="cls-3" x="184" y="18" width="58" height="12" rx="6"/><path d="M190,27V19.86h.88v6.35h2.7V27Z"/><path d="M196.43,21.54a1.71,1.71,0,0,1,1.32.45,2,2,0,0,1,.42,1.37V27h-.63l-.16-.75h0a2.07,2.07,0,0,1-.65.64,1.84,1.84,0,0,1-.94.21,1.44,1.44,0,0,1-1.09-.42,1.58,1.58,0,0,1-.42-1.17,1.48,1.48,0,0,1,.57-1.24,3,3,0,0,1,1.7-.48l.81,0v-.33a1.39,1.39,0,0,0-.25-.92.91.91,0,0,0-.72-.27,2.25,2.25,0,0,0-.68.11,4,4,0,0,0-.64.27l-.28-.64a3.44,3.44,0,0,1,.78-.32A3.24,3.24,0,0,1,196.43,21.54Zm.9,2.83-.69,0a2,2,0,0,0-1.17.31,1,1,0,0,0-.34.8.79.79,0,0,0,.87.9A1.3,1.3,0,0,0,197,26a1.62,1.62,0,0,0,.38-1.16Z"/><path d="M198.93,21.64h.9l1,3c.08.24.15.48.21.7s.12.46.16.67h0c0-.17.08-.37.15-.62s.15-.5.23-.75l1-3h.9l-2,6.13a3.21,3.21,0,0,1-.66,1.21,1.46,1.46,0,0,1-1.1.42l-.35,0-.29-.06v-.71l.23.05.28,0a.86.86,0,0,0,.64-.24,1.83,1.83,0,0,0,.39-.74l.25-.7Z"/><path d="M206.14,21.54a1.84,1.84,0,0,1,1.09.31,1.87,1.87,0,0,1,.68.85,3,3,0,0,1,.23,1.24v.54h-3.26a2.33,2.33,0,0,0,.41,1.42,1.37,1.37,0,0,0,1.11.47,3.24,3.24,0,0,0,.79-.09,3.31,3.31,0,0,0,.73-.28v.75a3.91,3.91,0,0,1-.74.27,4.13,4.13,0,0,1-.84.08,2.1,2.1,0,0,1-1.71-.73,3,3,0,0,1-.62-2,3.41,3.41,0,0,1,.57-2.08A1.87,1.87,0,0,1,206.14,21.54Zm0,.7a1,1,0,0,0-.86.4,2.12,2.12,0,0,0-.38,1.16h2.38a2.07,2.07,0,0,0-.27-1.11A.94.94,0,0,0,206.13,22.24Z"/><path d="M211.63,21.54a2.65,2.65,0,0,1,.58.06l-.12.82a1.37,1.37,0,0,0-.25-.05l-.26,0a1.12,1.12,0,0,0-.68.23,1.73,1.73,0,0,0-.48.63,2.37,2.37,0,0,0-.19.95V27h-.85V21.64h.68l.11.95h0a2.46,2.46,0,0,1,.59-.75A1.25,1.25,0,0,1,211.63,21.54Z"/><path d="M218.35,27h-1L214,21.11h0c0,.25,0,.52,0,.83s0,.62,0,.93V27h-.83V19.86h1l3.3,5.84h0c0-.21,0-.49,0-.82s0-.63,0-.9V19.86h.81Z"/><path d="M224.21,24.31a3.17,3.17,0,0,1-.6,2.05,2,2,0,0,1-1.65.74,2.12,2.12,0,0,1-1.18-.33,2.24,2.24,0,0,1-.77-1,3.79,3.79,0,0,1-.28-1.5,3.17,3.17,0,0,1,.59-2,2,2,0,0,1,1.65-.72,2,2,0,0,1,1.62.71A3.09,3.09,0,0,1,224.21,24.31Zm-3.6,0a2.93,2.93,0,0,0,.33,1.52,1.13,1.13,0,0,0,1,.55,1.11,1.11,0,0,0,1-.55,2.94,2.94,0,0,0,.32-1.52A2.87,2.87,0,0,0,223,22.8a1.28,1.28,0,0,0-2.07,0A3,3,0,0,0,220.61,24.31Z"/><path d="M227.72,21.54a2.49,2.49,0,0,1,.57.06l-.11.82a1.37,1.37,0,0,0-.25-.05l-.26,0a1.12,1.12,0,0,0-.68.23,1.63,1.63,0,0,0-.48.63,2.37,2.37,0,0,0-.19.95V27h-.85V21.64h.68l.11.95h0a2.46,2.46,0,0,1,.59-.75A1.25,1.25,0,0,1,227.72,21.54Z"/><path d="M234.49,21.54a1.5,1.5,0,0,1,1.21.46,2.21,2.21,0,0,1,.4,1.47V27h-.85V23.55c0-.85-.31-1.28-.94-1.28a1,1,0,0,0-.95.46,2.47,2.47,0,0,0-.29,1.31v3h-.84V23.54a1.58,1.58,0,0,0-.23-1,.85.85,0,0,0-.72-.31,1,1,0,0,0-1,.52,3.21,3.21,0,0,0-.26,1.42V27h-.85V21.64h.68l.12.73h.05a1.44,1.44,0,0,1,.6-.62,1.64,1.64,0,0,1,.82-.21,1.35,1.35,0,0,1,1.44.88H233a1.66,1.66,0,0,1,.64-.67A1.91,1.91,0,0,1,234.49,21.54Z"/><rect class="cls-3" x="184" y="32" width="58" height="12" rx="6"/><path d="M203.25,35.4l.49.49-1.58,1.58,1.56,1.58-.49.49L201.65,38l-1.55,1.57-.5-.49,1.56-1.58-1.57-1.57.5-.5L201.66,37Z"/><path d="M211.17,35.64l-1.72,5.17a5.84,5.84,0,0,0-.24.87c-.07.32-.12.62-.16.91a6,6,0,0,0-.05.81h-.91a5.08,5.08,0,0,1,0-.71c0-.28.09-.57.16-.88a7.44,7.44,0,0,1,.22-.82l-1.88-5.35h.88l.93,2.63.29.95a5.31,5.31,0,0,1,.19.84h0c0-.14.06-.31.11-.52s.1-.42.16-.64l.18-.6.87-2.66Z"/><path d="M216.49,37.12h1.8v.7h-1.8v2h-.71v-2H214v-.7h1.81v-2h.71Z"/><path d="M224,33.35a2.17,2.17,0,0,1,1.48.49,1.77,1.77,0,0,1,.56,1.4,1.5,1.5,0,0,1-1.34,1.7v0a1.85,1.85,0,0,1,1.23.59,2.12,2.12,0,0,1,.42,1.41,2.09,2.09,0,0,1-.58,1.57,2.18,2.18,0,0,1-1.59.55,3.26,3.26,0,0,1-.84-.09,2.51,2.51,0,0,1-.63-.25V43.4h-.85V35.56a2.15,2.15,0,0,1,.59-1.67A2.22,2.22,0,0,1,224,33.35Zm0,.72a1.21,1.21,0,0,0-.9.35,1.52,1.52,0,0,0-.37,1.17V40a3.17,3.17,0,0,0,.62.28,2.47,2.47,0,0,0,.75.11,1.36,1.36,0,0,0,1.07-.38,1.62,1.62,0,0,0,.34-1.09,1.49,1.49,0,0,0-.41-1.15,1.56,1.56,0,0,0-1.1-.37h-.41v-.74h.32a1.24,1.24,0,0,0,1-.36,1.47,1.47,0,0,0,.31-1,1.19,1.19,0,0,0-.33-.92A1.2,1.2,0,0,0,224,34.07Z"/><rect class="cls-3" x="254" y="32" width="20" height="12" rx="6"/><path d="M260.51,41h-.88V33.86h3.57v.78h-2.69v2.54H263V38h-2.53Z"/><path d="M267.05,34.54a1.83,1.83,0,0,0-1.16.37,2.26,2.26,0,0,0-.72,1,4.07,4.07,0,0,0-.25,1.5,3.57,3.57,0,0,0,.55,2.11,1.84,1.84,0,0,0,1.6.78,3.69,3.69,0,0,0,.76-.08,5.75,5.75,0,0,0,.71-.2v.78a4.16,4.16,0,0,1-.71.21,4.61,4.61,0,0,1-.88.07,2.81,2.81,0,0,1-1.62-.45,2.73,2.73,0,0,1-1-1.27,5.26,5.26,0,0,1-.33-2,4.78,4.78,0,0,1,.35-1.88,2.94,2.94,0,0,1,1-1.31,2.86,2.86,0,0,1,1.67-.47,3.74,3.74,0,0,1,1.73.39l-.33.75a3.72,3.72,0,0,0-.64-.26A3.1,3.1,0,0,0,267.05,34.54Z"/><rect class="cls-3" x="254" y="74" width="20" height="12" rx="6"/><path d="M260.51,83h-.88V75.86h3.57v.78h-2.69v2.54H263V80h-2.53Z"/><path d="M267.05,76.54a1.83,1.83,0,0,0-1.16.37,2.26,2.26,0,0,0-.72,1,4.07,4.07,0,0,0-.25,1.5,3.57,3.57,0,0,0,.55,2.11,1.84,1.84,0,0,0,1.6.78,3.69,3.69,0,0,0,.76-.08,5.75,5.75,0,0,0,.71-.2v.78a4.16,4.16,0,0,1-.71.21,4.61,4.61,0,0,1-.88.07,2.81,2.81,0,0,1-1.62-.45,2.73,2.73,0,0,1-1-1.27,5.26,5.26,0,0,1-.33-2,4.78,4.78,0,0,1,.35-1.88,2.94,2.94,0,0,1,1-1.31,2.86,2.86,0,0,1,1.67-.47,3.74,3.74,0,0,1,1.73.39l-.33.75a3.72,3.72,0,0,0-.64-.26A3.1,3.1,0,0,0,267.05,76.54Z"/><rect class="cls-3" x="254" y="118" width="20" height="12" rx="6"/><path d="M260.51,127h-.88v-7.14h3.57v.78h-2.69v2.54H263V124h-2.53Z"/><path d="M267.05,120.54a1.83,1.83,0,0,0-1.16.37,2.26,2.26,0,0,0-.72,1,4.07,4.07,0,0,0-.25,1.5,3.57,3.57,0,0,0,.55,2.11,1.84,1.84,0,0,0,1.6.78,3.69,3.69,0,0,0,.76-.08,5.75,5.75,0,0,0,.71-.2v.78a4.16,4.16,0,0,1-.71.21,4.61,4.61,0,0,1-.88.07,2.88,2.88,0,0,1-1.62-.44,2.76,2.76,0,0,1-1-1.28,5.26,5.26,0,0,1-.33-2,4.78,4.78,0,0,1,.35-1.88,2.91,2.91,0,0,1,1-1.3,2.79,2.79,0,0,1,1.67-.48,3.74,3.74,0,0,1,1.73.39l-.33.75a3,3,0,0,0-.64-.25A2.68,2.68,0,0,0,267.05,120.54Z"/><rect class="cls-3" x="254" y="146" width="20" height="12" rx="6"/><path d="M260.51,155h-.88v-7.14h3.57v.78h-2.69v2.54H263V152h-2.53Z"/><path d="M267.05,148.54a1.83,1.83,0,0,0-1.16.37,2.26,2.26,0,0,0-.72,1,4.07,4.07,0,0,0-.25,1.5,3.57,3.57,0,0,0,.55,2.11,1.84,1.84,0,0,0,1.6.78,3.69,3.69,0,0,0,.76-.08,5.75,5.75,0,0,0,.71-.2v.78a4.16,4.16,0,0,1-.71.21,4.61,4.61,0,0,1-.88.07,2.88,2.88,0,0,1-1.62-.44,2.76,2.76,0,0,1-1-1.28,5.26,5.26,0,0,1-.33-2,4.78,4.78,0,0,1,.35-1.88,2.91,2.91,0,0,1,1-1.3,2.79,2.79,0,0,1,1.67-.48,3.74,3.74,0,0,1,1.73.39l-.33.75a3,3,0,0,0-.64-.25A2.68,2.68,0,0,0,267.05,148.54Z"/><rect class="cls-3" x="184" y="104" width="58" height="12" rx="6"/><path d="M190,113v-7.14h.88v6.35h2.7V113Z"/><path d="M196.43,107.54a1.71,1.71,0,0,1,1.32.45,2,2,0,0,1,.42,1.37V113h-.63l-.16-.75h0a2.07,2.07,0,0,1-.65.64,1.84,1.84,0,0,1-.94.21,1.44,1.44,0,0,1-1.09-.42,1.58,1.58,0,0,1-.42-1.17,1.48,1.48,0,0,1,.57-1.24,3,3,0,0,1,1.7-.48l.81,0v-.33a1.39,1.39,0,0,0-.25-.92.91.91,0,0,0-.72-.27,2.25,2.25,0,0,0-.68.11,4,4,0,0,0-.64.27l-.28-.64a3.44,3.44,0,0,1,.78-.32A3.24,3.24,0,0,1,196.43,107.54Zm.9,2.83-.69,0a2,2,0,0,0-1.17.31,1,1,0,0,0-.34.8.79.79,0,0,0,.87.9A1.3,1.3,0,0,0,197,112a1.62,1.62,0,0,0,.38-1.16Z"/><path d="M198.93,107.64h.9l1,3c.08.24.15.47.21.7s.12.46.16.67h0c0-.17.08-.37.15-.62s.15-.5.23-.75l1-3h.9l-2,6.13a3.09,3.09,0,0,1-.66,1.2,1.43,1.43,0,0,1-1.1.43l-.35,0-.29-.06v-.71l.23,0,.28,0a.86.86,0,0,0,.64-.24,1.83,1.83,0,0,0,.39-.74l.25-.7Z"/><path d="M206.14,107.54a1.84,1.84,0,0,1,1.09.31,1.87,1.87,0,0,1,.68.85,3,3,0,0,1,.23,1.24v.54h-3.26a2.28,2.28,0,0,0,.41,1.41,1.35,1.35,0,0,0,1.11.48,3.24,3.24,0,0,0,.79-.09,3.31,3.31,0,0,0,.73-.28v.75a3.91,3.91,0,0,1-.74.27,4.13,4.13,0,0,1-.84.08,2.1,2.1,0,0,1-1.71-.73,3,3,0,0,1-.62-2,3.41,3.41,0,0,1,.57-2.08A1.87,1.87,0,0,1,206.14,107.54Zm0,.7a1,1,0,0,0-.86.4,2.12,2.12,0,0,0-.38,1.16h2.38a2.07,2.07,0,0,0-.27-1.11A.94.94,0,0,0,206.13,108.24Z"/><path d="M211.63,107.54a2.65,2.65,0,0,1,.58.06l-.12.82a1.37,1.37,0,0,0-.25,0l-.26,0a1.12,1.12,0,0,0-.68.23,1.73,1.73,0,0,0-.48.63,2.33,2.33,0,0,0-.19,1V113h-.85v-5.36h.68l.11,1h0a2.46,2.46,0,0,1,.59-.75A1.25,1.25,0,0,1,211.63,107.54Z"/><path d="M218.35,113h-1L214,107.11h0c0,.25,0,.52,0,.83s0,.62,0,.93V113h-.83v-7.14h1l3.3,5.84h0c0-.21,0-.49,0-.82s0-.63,0-.9v-4.12h.81Z"/><path d="M224.21,110.31a3.17,3.17,0,0,1-.6,2,2,2,0,0,1-1.65.74,2.12,2.12,0,0,1-1.18-.33,2.21,2.21,0,0,1-.77-1,3.7,3.7,0,0,1-.28-1.49,3.17,3.17,0,0,1,.59-2,2,2,0,0,1,1.65-.72,2,2,0,0,1,1.62.71A3.09,3.09,0,0,1,224.21,110.31Zm-3.6,0a2.93,2.93,0,0,0,.33,1.52,1.13,1.13,0,0,0,1,.55,1.11,1.11,0,0,0,1-.55,2.94,2.94,0,0,0,.32-1.52,2.87,2.87,0,0,0-.32-1.51,1.28,1.28,0,0,0-2.07,0A3,3,0,0,0,220.61,110.31Z"/><path d="M227.72,107.54a2.49,2.49,0,0,1,.57.06l-.11.82a1.37,1.37,0,0,0-.25,0l-.26,0a1.12,1.12,0,0,0-.68.23,1.63,1.63,0,0,0-.48.63,2.33,2.33,0,0,0-.19,1V113h-.85v-5.36h.68l.11,1h0a2.46,2.46,0,0,1,.59-.75A1.25,1.25,0,0,1,227.72,107.54Z"/><path d="M234.49,107.54a1.5,1.5,0,0,1,1.21.46,2.21,2.21,0,0,1,.4,1.47V113h-.85v-3.45c0-.85-.31-1.28-.94-1.28a1,1,0,0,0-.95.45,2.53,2.53,0,0,0-.29,1.32v3h-.84v-3.46a1.58,1.58,0,0,0-.23-1,.85.85,0,0,0-.72-.31,1,1,0,0,0-1,.52,3.21,3.21,0,0,0-.26,1.42V113h-.85v-5.36h.68l.12.73h.05a1.44,1.44,0,0,1,.6-.62,1.64,1.64,0,0,1,.82-.21,1.35,1.35,0,0,1,1.44.88H233a1.66,1.66,0,0,1,.64-.67A1.91,1.91,0,0,1,234.49,107.54Z"/><rect class="cls-3" x="184" y="118" width="58" height="12" rx="6"/><path d="M203.25,121.4l.49.49-1.58,1.58,1.56,1.58-.49.49L201.65,124l-1.55,1.57-.5-.49,1.56-1.58-1.57-1.57.5-.5,1.57,1.58Z"/><path d="M211.17,121.64l-1.72,5.17a5.65,5.65,0,0,0-.24.88c-.07.31-.12.61-.16.91a5.81,5.81,0,0,0-.05.8h-.91a4.86,4.86,0,0,1,0-.7c0-.29.09-.58.16-.89a7.44,7.44,0,0,1,.22-.82l-1.88-5.35h.88l.93,2.63.29,1a5.31,5.31,0,0,1,.19.84h0c0-.14.06-.31.11-.52s.1-.42.16-.64l.18-.6.87-2.66Z"/><path d="M216.49,123.12h1.8v.7h-1.8v2h-.71v-2H214v-.7h1.81v-2h.71Z"/><path d="M224,119.35a2.17,2.17,0,0,1,1.48.49,1.77,1.77,0,0,1,.56,1.4,1.5,1.5,0,0,1-1.34,1.7v0a1.85,1.85,0,0,1,1.23.59,2.12,2.12,0,0,1,.42,1.41,2.09,2.09,0,0,1-.58,1.57,2.18,2.18,0,0,1-1.59.55,3.26,3.26,0,0,1-.84-.09,2.51,2.51,0,0,1-.63-.25v2.64h-.85v-7.84a2.15,2.15,0,0,1,.59-1.67A2.22,2.22,0,0,1,224,119.35Zm0,.72a1.25,1.25,0,0,0-.9.35,1.52,1.52,0,0,0-.37,1.17V126a3.17,3.17,0,0,0,.62.28,2.47,2.47,0,0,0,.75.11,1.36,1.36,0,0,0,1.07-.38,1.62,1.62,0,0,0,.34-1.09,1.49,1.49,0,0,0-.41-1.15,1.56,1.56,0,0,0-1.1-.37h-.41v-.74h.32a1.24,1.24,0,0,0,1-.36,1.47,1.47,0,0,0,.31-1,1.19,1.19,0,0,0-.33-.92A1.2,1.2,0,0,0,224,120.07Z"/><path d="M18.6,90h-1l-3.31-5.89h0c0,.25,0,.52,0,.83s0,.62,0,.93V90h-.82V82.86h1L17.8,88.7h0c0-.21,0-.49,0-.82s0-.63,0-.9V82.86h.82Z"/><path d="M26,84.4l.49.49-1.58,1.58,1.56,1.58-.49.49L24.38,87l-1.55,1.57-.5-.49,1.56-1.58L22.32,84.9l.5-.5L24.39,86Z"/><path class="cls-2" d="M213,16H190a25,25,0,0,0-25,25V69a25,25,0,0,0,25,25h11"/><polygon points="198.22 97.7 199.79 94 198.22 90.3 207 94 198.22 97.7"/><path class="cls-2" d="M213,102H190a25,25,0,0,0-25,25v14a25,25,0,0,0,25,25h11"/><polygon points="198.22 169.7 199.79 166 198.22 162.3 207 166 198.22 169.7"/><path class="cls-2" d="M79,106H42A10,10,0,0,1,32,96V78A10,10,0,0,1,42,68h3"/><polygon points="42.22 71.7 43.8 68 42.22 64.3 51 68 42.22 71.7"/><line class="cls-2" x1="136" y1="75" x2="136.3" y2="74.05"/><line class="cls-7" x1="136.89" y1="72.2" x2="155.4" y2="13.88"/><line class="cls-2" x1="155.7" y1="12.95" x2="156" y2="12"/><line class="cls-2" x1="136" y1="101" x2="136.26" y2="101.96"/><line class="cls-8" x1="136.79" y1="103.89" x2="155.47" y2="172.08"/><line class="cls-2" x1="155.74" y1="173.04" x2="156" y2="174"/></svg>