<svg id="Layer_1" data-name="Layer 1" xmlns="http://www.w3.org/2000/svg" viewBox="0 0 312 196"><defs><style>.cls-1{fill:#f0f0f0;stroke:#404040;}.cls-1,.cls-15,.cls-16,.cls-2{stroke-miterlimit:10;}.cls-15,.cls-16,.cls-2{fill:none;stroke:#000;}.cls-3{fill:#c0e0ff;}.cls-4{fill:#404040;}.cls-10,.cls-13,.cls-5,.cls-7{font-size:10px;}.cls-5,.cls-7{fill:#fff;}.cls-10,.cls-14,.cls-5{font-family:TimesNewRomanPSMT, Times New Roman;}.cls-13,.cls-6,.cls-7{font-family:TimesNewRomanPS-BoldItalicMT, Times New Roman;font-weight:700;font-style:italic;}.cls-8{letter-spacing:-0.07em;}.cls-9{fill:#ffc0c0;}.cls-11{letter-spacing:-0.02em;}.cls-12{letter-spacing:-0.06em;}.cls-14{font-weight:400;font-style:normal;}.cls-15{stroke-dasharray:1.94 1.94;}.cls-16{stroke-dasharray:1.99 1.99;}</style></defs><rect class="cls-1" x="160" y="12" width="138" height="162"/><rect class="cls-1" x="38" y="74" width="94" height="26"/><path class="cls-2" d="M278,12V25a12,12,0,0,1-12,12h0"/><path class="cls-2" d="M292,12v9a18,18,0,0,1-18,18h-8"/><path class="cls-2" d="M278,12V67a12,12,0,0,1-12,12h0"/><path class="cls-2" d="M292,12V63a18,18,0,0,1-18,18h-8"/><path class="cls-2" d="M278,12v99a12,12,0,0,1-12,12h0"/><path class="cls-2" d="M292,12v95a18,18,0,0,1-18,18h-8"/><path class="cls-2" d="M278,12V139a12,12,0,0,1-12,12h0"/><path class="cls-2" d="M292,12V135a18,18,0,0,1-18,18h-8"/><line class="cls-2" x1="126" y1="12" x2="126" y2="62"/><line class="cls-2" x1="57" y1="12" x2="57" y2="62"/><line class="cls-2" x1="112" y1="12" x2="112" y2="62"/><line class="cls-2" x1="85" y1="104" x2="85" y2="178.03"/><polygon points="81.3 175.22 85 176.79 88.7 175.22 85 184 81.3 175.22"/><line class="cls-2" x1="260" y1="38" x2="247.97" y2="38"/><polygon points="250.78 34.3 249.21 38 250.78 41.7 242 38 250.78 34.3"/><line class="cls-2" x1="260" y1="80" x2="247.97" y2="80"/><polygon points="250.78 76.3 249.21 80 250.78 83.7 242 80 250.78 76.3"/><line class="cls-2" x1="260" y1="124" x2="247.97" y2="124"/><polygon points="250.78 120.3 249.21 124 250.78 127.7 242 124 250.78 120.3"/><line class="cls-2" x1="260" y1="152" x2="247.97" y2="152"/><polygon points="250.78 148.3 249.21 152 250.78 155.7 242 152 250.78 148.3"/><line class="cls-2" x1="213" y1="12" x2="213" y2="178.03"/><polygon points="209.3 175.22 213 176.79 216.7 175.22 213 184 209.3 175.22"/><circle class="cls-3" cx="213" cy="94" r="6"/><rect class="cls-4" x="37" width="40" height="12"/><text class="cls-5" transform="translate(42.37 9)">noisy <tspan class="cls-6" x="24.17" y="0">x</tspan></text><rect class="cls-4" x="79" y="184" width="12" height="12"/><text class="cls-7" transform="translate(82.93 193)">ε</text><rect class="cls-4" x="207" y="184" width="12" height="12"/><text class="cls-7" transform="translate(209.21 193)">ε<tspan class="cls-8" x="4.1" y="0">’</tspan></text><rect class="cls-4" x="79" y="100" width="12" height="12"/><text class="cls-7" transform="translate(81.21 109)">ε<tspan class="cls-8" x="4.1" y="0">’</tspan></text><rect class="cls-4" x="120" width="12" height="12"/><text class="cls-7" transform="translate(123.78 9)">c</text><rect class="cls-4" x="207" width="12" height="12"/><text class="cls-7" transform="translate(208.99 9)">x<tspan class="cls-8" x="5" y="0">’</tspan></text><rect class="cls-4" x="106" width="12" height="12"/><text class="cls-7" transform="translate(110.45 9)">t</text><rect class="cls-4" x="272" width="12" height="12"/><text class="cls-7" transform="translate(274.87 9)">t<tspan class="cls-8" x="2.78" y="0">’</tspan></text><rect class="cls-4" x="286" width="12" height="12"/><text class="cls-7" transform="translate(288.04 9)">c<tspan class="cls-8" x="4.44" y="0">’</tspan></text><rect class="cls-4" x="51" y="62" width="12" height="12"/><text class="cls-7" transform="translate(52.99 71)">x<tspan class="cls-8" x="5" y="0">’</tspan></text><rect class="cls-4" x="120" y="62" width="12" height="12"/><text class="cls-7" transform="translate(122.04 71)">c<tspan class="cls-8" x="4.44" y="0">’</tspan></text><rect class="cls-4" x="106" y="62" width="12" height="12"/><text class="cls-7" transform="translate(108.87 71)">t<tspan class="cls-8" x="2.78" y="0">’</tspan></text><rect class="cls-9" x="13" y="14" width="88" height="12" rx="6"/><text class="cls-10" transform="translate(28.77 23)">1×16 Patchify</text><rect class="cls-3" x="109" y="25" width="34" height="12" rx="6" transform="translate(157 -95) rotate(90)"/><text class="cls-10" transform="translate(123 18.3) rotate(90)">FC ×2</text><rect class="cls-3" x="94" y="26" width="36" height="12" rx="6" transform="translate(144 -80) rotate(90)"/><text class="cls-10" transform="translate(109 17.84) rotate(90)">Embed</text><rect class="cls-9" x="13" y="28" width="88" height="12" rx="6"/><text class="cls-10" transform="translate(50.88 37)">FC</text><rect class="cls-9" x="13" y="42" width="88" height="12" rx="6"/><text class="cls-10" transform="translate(17.15 51)">Embed on time axis</text><text class="cls-10" transform="translate(44.23 90)">Modified Di<tspan class="cls-11" x="49.17" y="0">T</tspan><tspan x="55.1" y="0" xml:space="preserve"> Block</tspan></text><rect class="cls-3" x="56" y="118" width="58" height="12" rx="6"/><text class="cls-10" transform="translate(61.68 127)">LayerNorm</text><rect class="cls-3" x="56" y="132" width="58" height="12" rx="6"/><text class="cls-10" transform="translate(70.88 141)">× <tspan class="cls-6" x="8.14" y="0">γ</tspan><tspan x="12.3" y="0" xml:space="preserve"> + </tspan><tspan class="cls-6" x="22.94" y="0">β</tspan></text><rect class="cls-9" x="56" y="160" width="58" height="12" rx="6"/><text class="cls-10" transform="translate(62.51 169)">Unpatchify</text><rect class="cls-9" x="56" y="146" width="58" height="12" rx="6"/><text class="cls-10" transform="translate(78.88 155)">FC</text><rect class="cls-9" x="168" y="46" width="90" height="12" rx="6"/><text class="cls-10" transform="translate(173.14 55)">MHS<tspan class="cls-12" x="21.67" y="0">A</tspan><tspan x="28.34" y="0" xml:space="preserve"> on time axis</tspan></text><rect class="cls-9" x="168" y="60" width="90" height="12" rx="6"/><text class="cls-10" transform="translate(173.85 69)">Linear on freq. axis</text><rect class="cls-3" x="182" y="132" width="62" height="12" rx="6"/><text class="cls-10" transform="translate(186.46 141)">Pointwise FF</text><rect class="cls-3" x="184" y="74" width="58" height="12" rx="6"/><text class="cls-10" transform="translate(206.16 83)">× <tspan class="cls-6" x="8.14" y="0">α</tspan></text><rect class="cls-3" x="184" y="146" width="58" height="12" rx="6"/><text class="cls-10" transform="translate(206.16 155)">× <tspan class="cls-6" x="8.14" y="0">α</tspan></text><text class="cls-10" transform="translate(210.18 97)">+</text><circle class="cls-3" cx="213" cy="166" r="6"/><text class="cls-10" transform="translate(210.18 169)">+</text><rect class="cls-3" x="184" y="18" width="58" height="12" rx="6"/><text class="cls-10" transform="translate(189.68 27)">LayerNorm</text><rect class="cls-3" x="184" y="32" width="58" height="12" rx="6"/><text class="cls-10" transform="translate(198.88 41)">× <tspan class="cls-6" x="8.14" y="0">γ</tspan><tspan x="12.3" y="0" xml:space="preserve"> + </tspan><tspan class="cls-6" x="22.94" y="0">β</tspan></text><rect class="cls-3" x="254" y="32" width="20" height="12" rx="6"/><text class="cls-10" transform="translate(257.8 41)">FC</text><rect class="cls-3" x="254" y="74" width="20" height="12" rx="6"/><text class="cls-10" transform="translate(257.8 83)">FC</text><rect class="cls-3" x="254" y="118" width="20" height="12" rx="6"/><text class="cls-10" transform="translate(257.8 127)">FC</text><rect class="cls-3" x="254" y="146" width="20" height="12" rx="6"/><text class="cls-10" transform="translate(257.8 155)">FC</text><rect class="cls-3" x="184" y="104" width="58" height="12" rx="6"/><text class="cls-10" transform="translate(189.68 113)">LayerNorm</text><rect class="cls-3" x="184" y="118" width="58" height="12" rx="6"/><text class="cls-10" transform="translate(198.88 127)">× <tspan class="cls-6" x="8.14" y="0">γ</tspan><tspan x="12.3" y="0" xml:space="preserve"> + </tspan><tspan class="cls-6" x="22.94" y="0">β</tspan></text><text class="cls-13" transform="translate(11.64 90)">N<tspan class="cls-14" x="7.22" y="0" xml:space="preserve"> ×</tspan></text><path class="cls-2" d="M213,16H190a25,25,0,0,0-25,25V69a25,25,0,0,0,25,25h11"/><polygon points="198.22 97.7 199.79 94 198.22 90.3 207 94 198.22 97.7"/><path class="cls-2" d="M213,102H190a25,25,0,0,0-25,25v14a25,25,0,0,0,25,25h11"/><polygon points="198.22 169.7 199.79 166 198.22 162.3 207 166 198.22 169.7"/><path class="cls-2" d="M79,106H42A10,10,0,0,1,32,96V78A10,10,0,0,1,42,68h3"/><polygon points="42.22 71.7 43.8 68 42.22 64.3 51 68 42.22 71.7"/><line class="cls-2" x1="136" y1="75" x2="136.3" y2="74.05"/><line class="cls-15" x1="136.89" y1="72.2" x2="155.4" y2="13.88"/><line class="cls-2" x1="155.7" y1="12.95" x2="156" y2="12"/><line class="cls-2" x1="136" y1="101" x2="136.26" y2="101.96"/><line class="cls-16" x1="136.79" y1="103.89" x2="155.47" y2="172.08"/><line class="cls-2" x1="155.74" y1="173.04" x2="156" y2="174"/></svg>