<svg id="Layer_1" data-name="Layer 1" xmlns="http://www.w3.org/2000/svg" viewBox="0 0 312 100"><defs><style>.cls-1,.cls-2{fill:none;stroke:#000;stroke-miterlimit:10;}.cls-2{stroke-dasharray:2 2;}.cls-3{fill:#404040;}.cls-4,.cls-5{fill:#fff;}.cls-5,.cls-8{font-size:10px;font-family:TimesNewRomanPSMT, Times New Roman;}.cls-6{letter-spacing:-0.08em;}.cls-7{fill:#ffc0c0;}.cls-9{letter-spacing:-0.13em;}</style></defs><line class="cls-1" x1="77" y1="75" x2="157.03" y2="75"/><polygon points="154.22 78.7 155.79 75 154.22 71.3 163 75 154.22 78.7"/><line class="cls-1" x1="77" y1="25" x2="253.03" y2="25"/><polygon points="250.22 28.7 251.79 25 250.22 21.3 259 25 250.22 28.7"/><line class="cls-2" x1="13" y1="25" x2="39.03" y2="25"/><polygon points="36.22 28.7 37.8 25 36.22 21.3 45 25 36.22 28.7"/><line class="cls-1" x1="199" y1="75" x2="253.03" y2="75"/><polygon points="250.22 78.7 251.79 75 250.22 71.3 259 75 250.22 78.7"/><line class="cls-2" x1="13.5" y1="75" x2="39.53" y2="75"/><polygon points="36.72 78.7 38.3 75 36.72 71.3 45.5 75 36.72 78.7"/><rect class="cls-3" x="45" y="13" width="32" height="24"/><path class="cls-4" d="M55.37,22l-2.56-5.57v4.42a1.36,1.36,0,0,0,.14.77.74.74,0,0,0,.57.2h.23V22h-2.3v-.18h.23a.68.68,0,0,0,.6-.25,1.59,1.59,0,0,0,.1-.72V16.53a1.63,1.63,0,0,0-.09-.64.56.56,0,0,0-.25-.23,1.28,1.28,0,0,0-.59-.1v-.18h1.87l2.4,5.18,2.37-5.18H60v.18h-.23a.71.71,0,0,0-.6.25,1.55,1.55,0,0,0-.11.72v4.32a1.36,1.36,0,0,0,.14.77.74.74,0,0,0,.57.2H60V22H57.15v-.18h.23a.66.66,0,0,0,.6-.25,1.55,1.55,0,0,0,.11-.72V16.43L55.53,22Z"/><path class="cls-4" d="M61.24,19.21a2.26,2.26,0,0,0,.48,1.57,1.5,1.5,0,0,0,1.15.56,1.23,1.23,0,0,0,.76-.24,1.79,1.79,0,0,0,.55-.83l.15.1a2.34,2.34,0,0,1-.6,1.22,1.58,1.58,0,0,1-1.23.55,1.79,1.79,0,0,1-1.38-.63,2.38,2.38,0,0,1-.58-1.69A2.57,2.57,0,0,1,61.13,18a2,2,0,0,1,1.48-.64,1.64,1.64,0,0,1,1.23.5,1.78,1.78,0,0,1,.49,1.32Zm0-.28h2.07a1.79,1.79,0,0,0-.11-.61,1,1,0,0,0-.36-.43.94.94,0,0,0-.5-.15,1,1,0,0,0-.73.31A1.37,1.37,0,0,0,61.24,18.93Z"/><path class="cls-4" d="M66.46,15.06V21a1.67,1.67,0,0,0,.06.56.41.41,0,0,0,.19.2,1,1,0,0,0,.47.08V22H65v-.17a.93.93,0,0,0,.42-.07.42.42,0,0,0,.18-.21,1.71,1.71,0,0,0,.06-.56V16.93a7.87,7.87,0,0,0,0-.93.45.45,0,0,0-.11-.24.32.32,0,0,0-.2-.06.78.78,0,0,0-.32.08l-.08-.18,1.33-.54Z"/><path class="cls-4" d="M67.79,19.39h2.53v.74H67.79Z"/><path class="cls-4" d="M54.62,27.23v2.29h-.18a2.9,2.9,0,0,0-.32-1.05,1.62,1.62,0,0,0-.65-.62,1.83,1.83,0,0,0-.87-.23,1.2,1.2,0,0,0-.84.31,1,1,0,0,0-.33.7.85.85,0,0,0,.21.56,5.3,5.3,0,0,0,1.44,1,10.76,10.76,0,0,1,1.27.77,1.71,1.71,0,0,1,.52.62,1.74,1.74,0,0,1,.19.76,1.72,1.72,0,0,1-.59,1.3,2.12,2.12,0,0,1-1.5.54,3.12,3.12,0,0,1-.54,0l-.63-.18a3,3,0,0,0-.6-.15.27.27,0,0,0-.2.07.64.64,0,0,0-.1.3h-.18V31.88h.18A3.2,3.2,0,0,0,51.24,33a1.67,1.67,0,0,0,.66.59,2.1,2.1,0,0,0,1,.23,1.39,1.39,0,0,0,1-.32,1,1,0,0,0,.36-.76,1.08,1.08,0,0,0-.14-.5,1.49,1.49,0,0,0-.42-.46,10.67,10.67,0,0,0-1-.62,9.75,9.75,0,0,1-1.2-.76,2,2,0,0,1-.55-.63,1.54,1.54,0,0,1-.18-.75,1.66,1.66,0,0,1,.54-1.23,2,2,0,0,1,1.39-.51,2.8,2.8,0,0,1,1.12.26,1.13,1.13,0,0,0,.39.12.32.32,0,0,0,.21-.08.71.71,0,0,0,.13-.3Z"/><path class="cls-4" d="M55.58,30,57,29.42h.19v1a2.63,2.63,0,0,1,.69-.83,1.34,1.34,0,0,1,.74-.23,1.42,1.42,0,0,1,1.12.52,2.48,2.48,0,0,1,.55,1.68,2.82,2.82,0,0,1-.66,1.92,1.79,1.79,0,0,1-1.38.62,2,2,0,0,1-.63-.1,1.41,1.41,0,0,1-.43-.3V35.1a1.82,1.82,0,0,0,.05.59.43.43,0,0,0,.2.2,1.36,1.36,0,0,0,.5.07v.18H55.56V36h.12a1,1,0,0,0,.46-.1.37.37,0,0,0,.14-.18,1.86,1.86,0,0,0,0-.6V30.85a3.1,3.1,0,0,0,0-.56.37.37,0,0,0-.13-.17.39.39,0,0,0-.23-.06.79.79,0,0,0-.3.07Zm1.57.78v1.67a3.58,3.58,0,0,0,0,.71.9.9,0,0,0,.33.5,1.05,1.05,0,0,0,.67.21,1,1,0,0,0,.8-.38,2.2,2.2,0,0,0,.39-1.4,2.41,2.41,0,0,0-.45-1.57.92.92,0,0,0-.74-.39,1,1,0,0,0-.46.12A2.82,2.82,0,0,0,57.15,30.75Z"/><path class="cls-4" d="M61.66,31.21a2.26,2.26,0,0,0,.48,1.57,1.5,1.5,0,0,0,1.15.56,1.23,1.23,0,0,0,.76-.24,1.79,1.79,0,0,0,.55-.83l.15.1a2.34,2.34,0,0,1-.6,1.22,1.58,1.58,0,0,1-1.23.55,1.79,1.79,0,0,1-1.38-.63A2.38,2.38,0,0,1,61,31.82,2.57,2.57,0,0,1,61.55,30,2,2,0,0,1,63,29.39a1.64,1.64,0,0,1,1.23.5,1.78,1.78,0,0,1,.49,1.32Zm0-.28h2.07a1.79,1.79,0,0,0-.11-.61,1,1,0,0,0-.36-.43.94.94,0,0,0-.5-.15,1,1,0,0,0-.73.31A1.37,1.37,0,0,0,61.66,30.93Z"/><path class="cls-4" d="M69.14,32.3a2.38,2.38,0,0,1-.71,1.36,1.69,1.69,0,0,1-1.16.48,1.75,1.75,0,0,1-1.33-.64,2.51,2.51,0,0,1-.57-1.73A2.37,2.37,0,0,1,66,30.06a2,2,0,0,1,1.51-.66,1.6,1.6,0,0,1,1.08.35,1,1,0,0,1,.43.72.41.41,0,0,1-.12.3.47.47,0,0,1-.34.12.52.52,0,0,1-.43-.19.67.67,0,0,1-.11-.39.67.67,0,0,0-.2-.44.68.68,0,0,0-.47-.15,1,1,0,0,0-.79.36,2,2,0,0,0-.4,1.27,2.5,2.5,0,0,0,.4,1.41,1.2,1.2,0,0,0,1.06.62,1.29,1.29,0,0,0,.86-.33,2.18,2.18,0,0,0,.52-.82Z"/><path class="cls-4" d="M70.72,33.05a.55.55,0,0,1,.54.55.51.51,0,0,1-.16.38.53.53,0,0,1-.76,0,.51.51,0,0,1-.16-.38.5.5,0,0,1,.16-.39A.53.53,0,0,1,70.72,33.05Z"/><rect class="cls-3" x="259" y="19" width="49" height="12"/><text class="cls-5" transform="translate(262.52 28)"><tspan class="cls-6">W</tspan><tspan x="8.64" y="0">aveform</tspan></text><rect class="cls-7" x="207" y="19" width="40" height="12" rx="6"/><text class="cls-8" transform="translate(210.43 28)"><tspan class="cls-9">V</tspan><tspan x="5.93" y="0">ocoder</tspan></text><rect class="cls-3" x="163" y="63" width="36" height="24"/><path class="cls-4" d="M173.69,70.17l.16,0-.57,1.8h-5.13v-.18h.25a.67.67,0,0,0,.6-.27,1.57,1.57,0,0,0,.11-.73V66.55a1.34,1.34,0,0,0-.14-.77.71.71,0,0,0-.57-.22h-.25v-.18h3v.18a1.85,1.85,0,0,0-.74.1.58.58,0,0,0-.29.26,2.12,2.12,0,0,0-.08.74v4.16a1.4,1.4,0,0,0,.08.56.34.34,0,0,0,.18.15,2.78,2.78,0,0,0,.76,0h.49a3.75,3.75,0,0,0,1.07-.11,1.49,1.49,0,0,0,.56-.4A3.25,3.25,0,0,0,173.69,70.17Z"/><path class="cls-4" d="M175.92,67.4V71a1.67,1.67,0,0,0,.06.56.46.46,0,0,0,.18.21,1,1,0,0,0,.44.07V72h-2.18v-.17a1,1,0,0,0,.44-.07.38.38,0,0,0,.18-.21,1.63,1.63,0,0,0,.07-.56V69.27a5.87,5.87,0,0,0-.05-1,.41.41,0,0,0-.1-.21.33.33,0,0,0-.21-.06.93.93,0,0,0-.33.07l-.07-.18,1.35-.54Zm-.41-2.34a.5.5,0,0,1,.35.14.51.51,0,0,1,0,.7.47.47,0,0,1-.35.15.49.49,0,0,1-.35-.15.48.48,0,0,1,0-.7A.48.48,0,0,1,175.51,65.06Z"/><path class="cls-4" d="M178.46,68.34a2.09,2.09,0,0,1,1.5-.94,1.05,1.05,0,0,1,.62.18,1.16,1.16,0,0,1,.42.6,2.6,2.6,0,0,1,.11.9V71a1.78,1.78,0,0,0,.07.58.44.44,0,0,0,.17.19,1.09,1.09,0,0,0,.45.07V72h-2.22v-.17h.1a.73.73,0,0,0,.43-.1.51.51,0,0,0,.18-.28,3.27,3.27,0,0,0,0-.46V69.16a2,2,0,0,0-.16-.89.58.58,0,0,0-.54-.27,1.61,1.61,0,0,0-1.15.63V71a1.6,1.6,0,0,0,0,.56.44.44,0,0,0,.19.21,1.2,1.2,0,0,0,.48.07V72H177v-.17h.1a.51.51,0,0,0,.46-.18,1.23,1.23,0,0,0,.12-.66V69.33a6.12,6.12,0,0,0,0-1,.38.38,0,0,0-.11-.24.32.32,0,0,0-.2-.06.93.93,0,0,0-.33.07l-.07-.18,1.35-.54h.21Z"/><path class="cls-4" d="M182.9,69.21a2.31,2.31,0,0,0,.49,1.57,1.49,1.49,0,0,0,1.15.56,1.25,1.25,0,0,0,.76-.24,1.71,1.71,0,0,0,.54-.83l.16.1a2.34,2.34,0,0,1-.6,1.22,1.58,1.58,0,0,1-1.24.55,1.79,1.79,0,0,1-1.37-.63,2.38,2.38,0,0,1-.58-1.69A2.57,2.57,0,0,1,182.8,68a1.94,1.94,0,0,1,1.48-.64,1.64,1.64,0,0,1,1.23.5,1.82,1.82,0,0,1,.49,1.32Zm0-.28H185a1.84,1.84,0,0,0-.1-.61,1,1,0,0,0-.36-.43,1,1,0,0,0-.51-.15,1,1,0,0,0-.72.31A1.38,1.38,0,0,0,182.9,68.93Z"/><path class="cls-4" d="M189.12,71.36a6.22,6.22,0,0,1-.86.61,1.34,1.34,0,0,1-.56.12,1,1,0,0,1-.76-.31,1.17,1.17,0,0,1-.31-.84,1,1,0,0,1,.15-.56,2,2,0,0,1,.7-.63,10.6,10.6,0,0,1,1.64-.71v-.18a1.5,1.5,0,0,0-.21-.92.78.78,0,0,0-.62-.25.69.69,0,0,0-.48.17.49.49,0,0,0-.19.38v.28a.52.52,0,0,1-.11.35.44.44,0,0,1-.6,0,.49.49,0,0,1-.11-.35,1,1,0,0,1,.43-.77,1.79,1.79,0,0,1,1.2-.35,2,2,0,0,1,1,.2.92.92,0,0,1,.42.47,2.63,2.63,0,0,1,.09.86v1.52a5.5,5.5,0,0,0,0,.78.26.26,0,0,0,.08.19.15.15,0,0,0,.13,0,.28.28,0,0,0,.13,0,2.78,2.78,0,0,0,.4-.36v.28c-.37.48-.72.73-1,.73a.49.49,0,0,1-.38-.17A1,1,0,0,1,189.12,71.36Zm0-.32V69.33c-.49.2-.8.34-1,.42a1.62,1.62,0,0,0-.55.45.88.88,0,0,0-.16.51.85.85,0,0,0,.21.59.65.65,0,0,0,.48.23A1.71,1.71,0,0,0,189.12,71Z"/><path class="cls-4" d="M192.34,67.4v1c.37-.67.76-1,1.15-1a.6.6,0,0,1,.44.16.51.51,0,0,1,.18.38.42.42,0,0,1-.13.32.38.38,0,0,1-.3.13.6.6,0,0,1-.38-.17.62.62,0,0,0-.32-.16.3.3,0,0,0-.19.09,2.57,2.57,0,0,0-.45.66V71a1.39,1.39,0,0,0,.09.56.49.49,0,0,0,.23.22.94.94,0,0,0,.46.09V72h-2.29v-.17a1,1,0,0,0,.51-.11.42.42,0,0,0,.17-.25,3.59,3.59,0,0,0,0-.47V69.26a7.63,7.63,0,0,0,0-.93.36.36,0,0,0-.12-.22.33.33,0,0,0-.21-.06.94.94,0,0,0-.34.07l-.05-.18,1.35-.54Z"/><path class="cls-4" d="M174.62,77.23v2.29h-.18a2.9,2.9,0,0,0-.32-1,1.62,1.62,0,0,0-.65-.62,1.83,1.83,0,0,0-.87-.23,1.2,1.2,0,0,0-.84.31,1,1,0,0,0-.33.7.85.85,0,0,0,.21.56,5.3,5.3,0,0,0,1.44,1,10.76,10.76,0,0,1,1.27.77,1.71,1.71,0,0,1,.52.62,1.74,1.74,0,0,1,.19.76,1.72,1.72,0,0,1-.59,1.3,2.12,2.12,0,0,1-1.5.54,3.12,3.12,0,0,1-.54,0l-.63-.18a3,3,0,0,0-.6-.15.27.27,0,0,0-.2.07.64.64,0,0,0-.1.3h-.18V81.88h.18a3.2,3.2,0,0,0,.34,1.07,1.67,1.67,0,0,0,.66.59,2.1,2.1,0,0,0,1,.23,1.39,1.39,0,0,0,1-.32,1,1,0,0,0,.36-.76,1.08,1.08,0,0,0-.14-.5,1.49,1.49,0,0,0-.42-.46,10.67,10.67,0,0,0-1-.62,9.75,9.75,0,0,1-1.2-.76,2,2,0,0,1-.55-.63,1.54,1.54,0,0,1-.18-.75,1.66,1.66,0,0,1,.54-1.23,2,2,0,0,1,1.39-.51,2.8,2.8,0,0,1,1.12.26,1.13,1.13,0,0,0,.39.12.32.32,0,0,0,.21-.08.71.71,0,0,0,.13-.3Z"/><path class="cls-4" d="M175.58,80l1.38-.55h.19v1a2.63,2.63,0,0,1,.69-.83,1.34,1.34,0,0,1,.74-.23,1.41,1.41,0,0,1,1.12.52,2.48,2.48,0,0,1,.55,1.68,2.82,2.82,0,0,1-.66,1.92,1.79,1.79,0,0,1-1.38.62,2,2,0,0,1-.63-.1,1.41,1.41,0,0,1-.43-.3V85.1a1.82,1.82,0,0,0,0,.59.43.43,0,0,0,.2.2,1.36,1.36,0,0,0,.5.07v.18h-2.34V86h.12a1,1,0,0,0,.46-.1.37.37,0,0,0,.14-.18,1.86,1.86,0,0,0,.05-.6V80.85a3.1,3.1,0,0,0,0-.56.37.37,0,0,0-.13-.17.39.39,0,0,0-.23-.06.79.79,0,0,0-.3.07Zm1.57.78v1.67a3.58,3.58,0,0,0,0,.71.9.9,0,0,0,.33.5,1.06,1.06,0,0,0,.68.21,1,1,0,0,0,.79-.38,2.2,2.2,0,0,0,.39-1.4,2.41,2.41,0,0,0-.45-1.57.92.92,0,0,0-.74-.39,1,1,0,0,0-.46.12A2.82,2.82,0,0,0,177.15,80.75Z"/><path class="cls-4" d="M181.66,81.21a2.26,2.26,0,0,0,.48,1.57,1.5,1.5,0,0,0,1.15.56,1.23,1.23,0,0,0,.76-.24,1.79,1.79,0,0,0,.55-.83l.15.1a2.34,2.34,0,0,1-.6,1.22,1.58,1.58,0,0,1-1.23.55,1.79,1.79,0,0,1-1.38-.63,2.42,2.42,0,0,1-.58-1.69,2.57,2.57,0,0,1,.59-1.79,2,2,0,0,1,1.48-.64,1.64,1.64,0,0,1,1.23.5,1.78,1.78,0,0,1,.49,1.32Zm0-.28h2.07a1.79,1.79,0,0,0-.11-.61,1,1,0,0,0-.36-.43.94.94,0,0,0-.5-.15,1,1,0,0,0-.73.31A1.37,1.37,0,0,0,181.66,80.93Z"/><path class="cls-4" d="M189.14,82.3a2.38,2.38,0,0,1-.71,1.36,1.69,1.69,0,0,1-1.16.48,1.75,1.75,0,0,1-1.33-.64,2.51,2.51,0,0,1-.57-1.73,2.37,2.37,0,0,1,.63-1.71,2,2,0,0,1,1.51-.66,1.6,1.6,0,0,1,1.08.35,1,1,0,0,1,.43.72.41.41,0,0,1-.12.3.47.47,0,0,1-.34.12.52.52,0,0,1-.43-.19.76.76,0,0,1-.11-.39.67.67,0,0,0-.2-.44.68.68,0,0,0-.47-.15,1,1,0,0,0-.79.36,2,2,0,0,0-.4,1.27,2.5,2.5,0,0,0,.4,1.41,1.2,1.2,0,0,0,1.06.62,1.29,1.29,0,0,0,.86-.33,2.18,2.18,0,0,0,.52-.82Z"/><path class="cls-4" d="M190.72,83.05a.57.57,0,0,1,.39.16.56.56,0,0,1,.15.39.51.51,0,0,1-.16.38.53.53,0,0,1-.76,0,.51.51,0,0,1-.16-.38.5.5,0,0,1,.16-.39A.53.53,0,0,1,190.72,83.05Z"/><rect class="cls-7" x="85" y="51" width="64" height="48" rx="6"/><path d="M100.44,56.9v1.93a1.34,1.34,0,0,0,.14.77.68.68,0,0,0,.56.22h.25V60H98.56v-.18h.24a.7.7,0,0,0,.61-.27,1.77,1.77,0,0,0,.09-.72V54.55a1.41,1.41,0,0,0-.13-.78.74.74,0,0,0-.57-.21h-.24v-.18H101a4.36,4.36,0,0,1,1.4.18,1.92,1.92,0,0,1,.87.62,1.6,1.6,0,0,1,.35,1,1.73,1.73,0,0,1-.54,1.32,2.09,2.09,0,0,1-1.51.51,4.75,4.75,0,0,1-.51,0C100.85,57,100.65,56.94,100.44,56.9Zm0-.28.46.07.34,0a1.18,1.18,0,0,0,.88-.39,1.49,1.49,0,0,0,.37-1,1.77,1.77,0,0,0-.18-.8,1.17,1.17,0,0,0-.5-.55,1.37,1.37,0,0,0-.73-.19,2.51,2.51,0,0,0-.64.1Z"/><path d="M105.57,55.4v1c.38-.67.76-1,1.15-1a.64.64,0,0,1,.45.16.48.48,0,0,1,.17.38.47.47,0,0,1-.12.32.41.41,0,0,1-.3.13.66.66,0,0,1-.39-.17.64.64,0,0,0-.31-.17.3.3,0,0,0-.19.1,2.4,2.4,0,0,0-.46.66V59a1.22,1.22,0,0,0,.1.56.52.52,0,0,0,.22.22,1.12,1.12,0,0,0,.46.08V60h-2.29v-.18a1,1,0,0,0,.51-.1.45.45,0,0,0,.17-.25,2.16,2.16,0,0,0,0-.48V57.26a5.34,5.34,0,0,0,0-.93.42.42,0,0,0-.11-.22.38.38,0,0,0-.21-.07,1,1,0,0,0-.35.08l0-.18,1.36-.54Z"/><path d="M109.78,55.4a2,2,0,0,1,1.63.77,2.35,2.35,0,0,1,.52,1.51,2.89,2.89,0,0,1-.28,1.22,2.1,2.1,0,0,1-1.92,1.24,1.89,1.89,0,0,1-1.61-.81,2.52,2.52,0,0,1-.5-1.52,2.78,2.78,0,0,1,.3-1.23,2.07,2.07,0,0,1,.81-.89A2,2,0,0,1,109.78,55.4Zm-.15.31a1,1,0,0,0-.52.16,1,1,0,0,0-.42.54,2.5,2.5,0,0,0-.16,1,3.53,3.53,0,0,0,.38,1.68,1.16,1.16,0,0,0,1,.71,1,1,0,0,0,.78-.39,2.25,2.25,0,0,0,.31-1.34,3,3,0,0,0-.52-1.88A1.05,1.05,0,0,0,109.63,55.71Z"/><path d="M112.27,56l1.38-.55h.18v1a2.64,2.64,0,0,1,.7-.83,1.26,1.26,0,0,1,.73-.23,1.43,1.43,0,0,1,1.13.52,2.53,2.53,0,0,1,.55,1.68,2.83,2.83,0,0,1-.66,1.92,1.79,1.79,0,0,1-1.38.62,1.73,1.73,0,0,1-.63-.11,1.32,1.32,0,0,1-.44-.29V61.1a1.76,1.76,0,0,0,.06.59.39.39,0,0,0,.19.19,1.22,1.22,0,0,0,.51.08v.18h-2.34V62h.12a1,1,0,0,0,.46-.1.37.37,0,0,0,.14-.18,1.9,1.9,0,0,0,0-.61V56.85a2.17,2.17,0,0,0,0-.56.3.3,0,0,0-.12-.17.39.39,0,0,0-.23-.06.79.79,0,0,0-.3.07Zm1.56.78v1.67a3.32,3.32,0,0,0,0,.71.9.9,0,0,0,.33.5,1.05,1.05,0,0,0,.67.21.94.94,0,0,0,.79-.38,2.16,2.16,0,0,0,.4-1.4,2.46,2.46,0,0,0-.45-1.58.94.94,0,0,0-.74-.38,1,1,0,0,0-.46.12A2.79,2.79,0,0,0,113.83,56.75Z"/><path d="M119.78,55.4a2,2,0,0,1,1.63.77,2.35,2.35,0,0,1,.52,1.51,2.89,2.89,0,0,1-.28,1.22,2.1,2.1,0,0,1-1.92,1.24,1.89,1.89,0,0,1-1.61-.81,2.52,2.52,0,0,1-.5-1.52,2.78,2.78,0,0,1,.3-1.23,2.07,2.07,0,0,1,.81-.89A2,2,0,0,1,119.78,55.4Zm-.15.31a1,1,0,0,0-.52.16,1,1,0,0,0-.42.54,2.5,2.5,0,0,0-.16,1,3.53,3.53,0,0,0,.38,1.68,1.16,1.16,0,0,0,1,.71,1,1,0,0,0,.78-.39,2.25,2.25,0,0,0,.31-1.34,3,3,0,0,0-.52-1.88A1.05,1.05,0,0,0,119.63,55.71Z"/><path d="M125.48,55.4v1.52h-.16a2,2,0,0,0-.47-1,1.09,1.09,0,0,0-.74-.26.81.81,0,0,0-.55.18.53.53,0,0,0-.21.4.73.73,0,0,0,.15.47,1.67,1.67,0,0,0,.62.43l.71.34c.66.33,1,.75,1,1.28a1.19,1.19,0,0,1-.46,1,1.6,1.6,0,0,1-1,.38,3.44,3.44,0,0,1-.94-.15,1.14,1.14,0,0,0-.26-.05.19.19,0,0,0-.18.13h-.16v-1.6H123a1.77,1.77,0,0,0,.52,1,1.29,1.29,0,0,0,.87.35.81.81,0,0,0,.55-.2.63.63,0,0,0,.21-.48.74.74,0,0,0-.24-.56,4.13,4.13,0,0,0-.94-.58,2.83,2.83,0,0,1-.93-.64,1.07,1.07,0,0,1-.22-.7,1.23,1.23,0,0,1,.38-.92,1.33,1.33,0,0,1,1-.37,2.14,2.14,0,0,1,.64.11,1.27,1.27,0,0,0,.33.07.21.21,0,0,0,.12,0,.76.76,0,0,0,.1-.15Z"/><path d="M127.24,57.21a2.21,2.21,0,0,0,.48,1.56,1.48,1.48,0,0,0,1.15.57,1.23,1.23,0,0,0,.76-.24,1.79,1.79,0,0,0,.55-.83l.15.1a2.38,2.38,0,0,1-.6,1.22,1.61,1.61,0,0,1-1.23.55,1.79,1.79,0,0,1-1.38-.63,2.42,2.42,0,0,1-.58-1.69,2.57,2.57,0,0,1,.59-1.79,1.92,1.92,0,0,1,1.48-.64,1.64,1.64,0,0,1,1.23.5,1.78,1.78,0,0,1,.49,1.32Zm0-.28h2.07a2.15,2.15,0,0,0-.1-.61,1.11,1.11,0,0,0-.37-.43.94.94,0,0,0-.5-.15,1,1,0,0,0-.73.31A1.35,1.35,0,0,0,127.24,56.93Z"/><path d="M134.08,59.5a2.43,2.43,0,0,1-.64.49,1.53,1.53,0,0,1-.67.15,1.66,1.66,0,0,1-1.28-.62,2.23,2.23,0,0,1-.55-1.57,2.81,2.81,0,0,1,.61-1.76,1.87,1.87,0,0,1,1.56-.8,1.33,1.33,0,0,1,1,.38v-.83a8.22,8.22,0,0,0,0-.94.44.44,0,0,0-.12-.24.31.31,0,0,0-.19-.06,1,1,0,0,0-.34.07l-.06-.17,1.33-.54h.22v5.17a8.55,8.55,0,0,0,0,1,.54.54,0,0,0,.12.24.34.34,0,0,0,.19.07,1,1,0,0,0,.35-.09l.06.17-1.33.56h-.23Zm0-.34V56.85a1.67,1.67,0,0,0-.17-.6,1,1,0,0,0-.39-.42,1,1,0,0,0-.47-.14,1,1,0,0,0-.77.39,2.16,2.16,0,0,0-.44,1.48,2.3,2.3,0,0,0,.43,1.51,1.22,1.22,0,0,0,.95.53A1.19,1.19,0,0,0,134.08,59.16Z"/><path d="M109.69,70.17l.16,0-.57,1.8h-5.13v-.18h.25a.67.67,0,0,0,.6-.27,1.57,1.57,0,0,0,.11-.73V66.55a1.41,1.41,0,0,0-.14-.78.74.74,0,0,0-.57-.21h-.25v-.18h3v.18a1.85,1.85,0,0,0-.74.1.58.58,0,0,0-.29.26,2.12,2.12,0,0,0-.08.74v4.16a1.4,1.4,0,0,0,.08.56.34.34,0,0,0,.18.15,3.3,3.3,0,0,0,.76,0h.49a3.75,3.75,0,0,0,1.07-.11,1.49,1.49,0,0,0,.56-.4A3.25,3.25,0,0,0,109.69,70.17Z"/><path d="M111.92,67.4V71a1.67,1.67,0,0,0,.06.56.46.46,0,0,0,.18.21,1.08,1.08,0,0,0,.44.06V72h-2.18v-.18a1,1,0,0,0,.44-.06.38.38,0,0,0,.18-.21,1.63,1.63,0,0,0,.07-.56V69.27a5.87,5.87,0,0,0,0-1,.41.41,0,0,0-.1-.21.33.33,0,0,0-.21-.07,1,1,0,0,0-.33.08l-.07-.18,1.35-.54Zm-.41-2.34a.5.5,0,0,1,.35.84.47.47,0,0,1-.35.15.49.49,0,0,1-.35-.15.48.48,0,0,1,0-.7A.45.45,0,0,1,111.51,65.06Z"/><path d="M114.46,68.34a2.09,2.09,0,0,1,1.5-.94,1.05,1.05,0,0,1,.62.18,1.16,1.16,0,0,1,.42.6,2.6,2.6,0,0,1,.11.9V71a1.82,1.82,0,0,0,.07.58.44.44,0,0,0,.17.19,1.14,1.14,0,0,0,.45.06V72h-2.22v-.18h.1a.74.74,0,0,0,.43-.09.51.51,0,0,0,.18-.28,3.27,3.27,0,0,0,0-.46V69.16a2,2,0,0,0-.16-.89.58.58,0,0,0-.54-.27,1.61,1.61,0,0,0-1.15.63V71a1.6,1.6,0,0,0,.05.56.55.55,0,0,0,.19.21,1.25,1.25,0,0,0,.48.06V72H113v-.18h.1a.51.51,0,0,0,.46-.17,1.25,1.25,0,0,0,.12-.66V69.33a6,6,0,0,0,0-1,.38.38,0,0,0-.11-.24.32.32,0,0,0-.2-.07,1,1,0,0,0-.33.08l-.07-.18,1.35-.54h.21Z"/><path d="M118.9,69.21a2.26,2.26,0,0,0,.49,1.56,1.47,1.47,0,0,0,1.15.57,1.25,1.25,0,0,0,.76-.24,1.71,1.71,0,0,0,.54-.83l.16.1a2.38,2.38,0,0,1-.6,1.22,1.62,1.62,0,0,1-1.24.55,1.79,1.79,0,0,1-1.37-.63,2.38,2.38,0,0,1-.58-1.69A2.57,2.57,0,0,1,118.8,68a1.9,1.9,0,0,1,1.48-.64,1.64,1.64,0,0,1,1.23.5,1.82,1.82,0,0,1,.49,1.32Zm0-.28H121a1.84,1.84,0,0,0-.1-.61,1,1,0,0,0-.36-.43,1,1,0,0,0-.51-.15,1,1,0,0,0-.72.31A1.35,1.35,0,0,0,118.9,68.93Z"/><path d="M125.12,71.36a6.22,6.22,0,0,1-.86.61,1.34,1.34,0,0,1-.56.12,1,1,0,0,1-.76-.31,1.19,1.19,0,0,1-.31-.84,1.05,1.05,0,0,1,.15-.57,2,2,0,0,1,.7-.62,10.6,10.6,0,0,1,1.64-.71v-.18a1.48,1.48,0,0,0-.21-.92.78.78,0,0,0-.62-.25.69.69,0,0,0-.48.17.49.49,0,0,0-.19.38v.28a.52.52,0,0,1-.11.35.43.43,0,0,1-.6,0,.49.49,0,0,1-.11-.35,1,1,0,0,1,.43-.77,1.79,1.79,0,0,1,1.2-.35,2,2,0,0,1,1,.2.89.89,0,0,1,.42.47,2.63,2.63,0,0,1,.09.86v1.52a5.71,5.71,0,0,0,0,.78.26.26,0,0,0,.08.19.15.15,0,0,0,.13,0,.28.28,0,0,0,.13,0,2.78,2.78,0,0,0,.4-.36v.28c-.37.48-.72.73-1,.73a.49.49,0,0,1-.38-.17A1,1,0,0,1,125.12,71.36Zm0-.32V69.33c-.49.2-.8.34-1,.42a1.62,1.62,0,0,0-.55.45.86.86,0,0,0-.16.51.81.81,0,0,0,.21.58.63.63,0,0,0,.48.24A1.78,1.78,0,0,0,125.12,71Z"/><path d="M128.34,67.4v1c.37-.67.76-1,1.15-1a.6.6,0,0,1,.44.16.49.49,0,0,1,.18.38.44.44,0,0,1-.13.32.38.38,0,0,1-.3.13.66.66,0,0,1-.38-.17.66.66,0,0,0-.32-.17.32.32,0,0,0-.19.1,2.4,2.4,0,0,0-.45.66V71a1.39,1.39,0,0,0,.09.56.55.55,0,0,0,.23.22,1.08,1.08,0,0,0,.46.08V72h-2.29v-.18a1,1,0,0,0,.51-.1.45.45,0,0,0,.17-.25,3.8,3.8,0,0,0,0-.48V69.26a7.63,7.63,0,0,0,0-.93.36.36,0,0,0-.12-.22.33.33,0,0,0-.21-.07,1,1,0,0,0-.34.08l0-.18,1.35-.54Z"/><path d="M96,77.23v2.29h-.18a2.9,2.9,0,0,0-.32-1,1.59,1.59,0,0,0-.64-.62,1.72,1.72,0,0,0-.87-.23,1.16,1.16,0,0,0-.84.31.94.94,0,0,0-.34.7.87.87,0,0,0,.21.56,5.94,5.94,0,0,0,1.44,1,8.89,8.89,0,0,1,1.27.77,1.71,1.71,0,0,1,.52.62,1.59,1.59,0,0,1,.19.76,1.74,1.74,0,0,1-.59,1.3,2.12,2.12,0,0,1-1.5.54,3.12,3.12,0,0,1-.54,0l-.63-.18a2.69,2.69,0,0,0-.6-.15.24.24,0,0,0-.19.07.62.62,0,0,0-.11.3h-.18V81.88h.18A3.44,3.44,0,0,0,92.66,83a1.82,1.82,0,0,0,.66.59,2.13,2.13,0,0,0,1,.23,1.37,1.37,0,0,0,1-.32,1,1,0,0,0,.36-.76,1.05,1.05,0,0,0-.14-.5,1.45,1.45,0,0,0-.41-.46,11.21,11.21,0,0,0-1-.62,10.07,10.07,0,0,1-1.21-.76,2.15,2.15,0,0,1-.55-.63,1.6,1.6,0,0,1-.18-.75,1.66,1.66,0,0,1,.54-1.23,2,2,0,0,1,1.4-.51,2.63,2.63,0,0,1,1.11.26,1.27,1.27,0,0,0,.39.12.3.3,0,0,0,.21-.08.6.6,0,0,0,.13-.3Z"/><path d="M97,80l1.38-.55h.19v1a2.63,2.63,0,0,1,.69-.83,1.29,1.29,0,0,1,.74-.23,1.41,1.41,0,0,1,1.12.52,2.48,2.48,0,0,1,.55,1.68,2.83,2.83,0,0,1-.66,1.92,1.77,1.77,0,0,1-1.38.62A1.64,1.64,0,0,1,99,84a1.23,1.23,0,0,1-.44-.29V85.1a2.24,2.24,0,0,0,.05.59.41.41,0,0,0,.2.19,1.13,1.13,0,0,0,.5.08v.18H97V86h.12a1,1,0,0,0,.46-.1.45.45,0,0,0,.15-.18,2.27,2.27,0,0,0,.05-.61V80.85a2.78,2.78,0,0,0,0-.56.35.35,0,0,0-.36-.23.79.79,0,0,0-.3.07Zm1.57.78v1.67a3.58,3.58,0,0,0,0,.71.92.92,0,0,0,.34.5,1,1,0,0,0,.67.21,1,1,0,0,0,.79-.38,2.22,2.22,0,0,0,.39-1.4,2.46,2.46,0,0,0-.45-1.58.92.92,0,0,0-.74-.38,1,1,0,0,0-.46.12A2.82,2.82,0,0,0,98.57,80.75Z"/><path d="M103.08,81.21a2.31,2.31,0,0,0,.48,1.56,1.48,1.48,0,0,0,1.15.57,1.23,1.23,0,0,0,.76-.24,1.79,1.79,0,0,0,.55-.83l.15.1a2.38,2.38,0,0,1-.6,1.22,1.59,1.59,0,0,1-1.23.55,1.79,1.79,0,0,1-1.38-.63,2.42,2.42,0,0,1-.57-1.69A2.57,2.57,0,0,1,103,80a1.93,1.93,0,0,1,1.48-.64,1.68,1.68,0,0,1,1.24.5,1.82,1.82,0,0,1,.48,1.32Zm0-.28h2.07a2.15,2.15,0,0,0-.1-.61,1,1,0,0,0-.37-.43.94.94,0,0,0-.5-.15,1,1,0,0,0-.73.31A1.4,1.4,0,0,0,103.08,80.93Z"/><path d="M110.56,82.3a2.43,2.43,0,0,1-.7,1.36,1.71,1.71,0,0,1-1.17.48,1.75,1.75,0,0,1-1.33-.64,2.52,2.52,0,0,1-.57-1.73,2.4,2.4,0,0,1,.63-1.72,2,2,0,0,1,1.51-.65,1.64,1.64,0,0,1,1.08.34,1,1,0,0,1,.43.73.41.41,0,0,1-.12.3.45.45,0,0,1-.34.11.52.52,0,0,1-.43-.18.76.76,0,0,1-.11-.39.63.63,0,0,0-.2-.44.68.68,0,0,0-.47-.15,1,1,0,0,0-.79.36,2,2,0,0,0-.39,1.27,2.58,2.58,0,0,0,.39,1.41,1.21,1.21,0,0,0,1.06.62,1.27,1.27,0,0,0,.86-.33,2.18,2.18,0,0,0,.52-.82Z"/><path d="M112.5,78.06v1.47h1v.34h-1v2.9a1,1,0,0,0,.13.59.39.39,0,0,0,.32.15.63.63,0,0,0,.31-.1.64.64,0,0,0,.23-.3h.19a1.48,1.48,0,0,1-.48.72,1,1,0,0,1-.64.24.88.88,0,0,1-.44-.12.71.71,0,0,1-.32-.36,1.81,1.81,0,0,1-.1-.71v-3H111v-.16a1.9,1.9,0,0,0,.55-.37,3,3,0,0,0,.5-.6,6.29,6.29,0,0,0,.31-.68Z"/><path d="M115.29,79.4v1c.38-.67.76-1,1.15-1a.64.64,0,0,1,.45.16.52.52,0,0,1,.17.38.47.47,0,0,1-.12.32.42.42,0,0,1-.31.13.66.66,0,0,1-.38-.17.68.68,0,0,0-.31-.17.3.3,0,0,0-.19.1,2.4,2.4,0,0,0-.46.66V83a1.39,1.39,0,0,0,.09.56.61.61,0,0,0,.23.22,1.12,1.12,0,0,0,.46.08V84h-2.29v-.18a1,1,0,0,0,.51-.1.45.45,0,0,0,.17-.25,2.16,2.16,0,0,0,0-.48V81.26a6.74,6.74,0,0,0,0-.93.42.42,0,0,0-.11-.22.38.38,0,0,0-.22-.07,1,1,0,0,0-.34.08l0-.18,1.36-.54Z"/><path d="M119.5,79.4a2,2,0,0,1,1.63.77,2.35,2.35,0,0,1,.52,1.51,2.89,2.89,0,0,1-.28,1.22,2.1,2.1,0,0,1-1.92,1.24,1.89,1.89,0,0,1-1.61-.81,2.46,2.46,0,0,1-.5-1.52,2.78,2.78,0,0,1,.3-1.23,2.07,2.07,0,0,1,.81-.89A2,2,0,0,1,119.5,79.4Zm-.15.31a1,1,0,0,0-.52.16,1,1,0,0,0-.42.54,2.5,2.5,0,0,0-.16,1,3.53,3.53,0,0,0,.38,1.68,1.16,1.16,0,0,0,1,.71,1,1,0,0,0,.78-.39,2.25,2.25,0,0,0,.31-1.34,3.09,3.09,0,0,0-.52-1.88A1.05,1.05,0,0,0,119.35,79.71Z"/><path d="M123.51,82.37a1.49,1.49,0,0,1-.63-.56,1.45,1.45,0,0,1-.22-.79,1.55,1.55,0,0,1,.5-1.15,1.76,1.76,0,0,1,1.28-.47,1.93,1.93,0,0,1,1.11.31h1.19a.1.1,0,0,1,.05,0,.3.3,0,0,1,0,.16.34.34,0,0,1,0,.17s0,0-.05,0a.84.84,0,0,1-.24,0h-.58a1.51,1.51,0,0,1-.21,2,1.84,1.84,0,0,1-1.28.44,2.33,2.33,0,0,1-.68-.1,1.17,1.17,0,0,0-.29.33.53.53,0,0,0-.08.23.23.23,0,0,0,.08.16.61.61,0,0,0,.32.12l.68,0c.67,0,1.11,0,1.3.07a1.17,1.17,0,0,1,.73.34.9.9,0,0,1,.27.67,1.42,1.42,0,0,1-.52,1,2.79,2.79,0,0,1-2,.71,2.83,2.83,0,0,1-1.6-.43c-.24-.16-.36-.33-.36-.5a.69.69,0,0,1,0-.24,2.94,2.94,0,0,1,.34-.5l.5-.53a1.51,1.51,0,0,1-.36-.27.39.39,0,0,1-.1-.27.72.72,0,0,1,.14-.4A3.05,3.05,0,0,1,123.51,82.37ZM123.46,84a3,3,0,0,0-.35.46,1,1,0,0,0-.11.4.49.49,0,0,0,.28.41,2.74,2.74,0,0,0,1.41.3,2.17,2.17,0,0,0,1.3-.31.83.83,0,0,0,.41-.66.37.37,0,0,0-.24-.36,3.23,3.23,0,0,0-1-.13C124.42,84.09,123.85,84.05,123.46,84Zm.9-4.37a.79.79,0,0,0-.61.29,1.34,1.34,0,0,0-.24.88,1.92,1.92,0,0,0,.33,1.2.81.81,0,0,0,.65.32.77.77,0,0,0,.61-.28,1.31,1.31,0,0,0,.23-.87A2,2,0,0,0,125,80,.79.79,0,0,0,124.36,79.63Z"/><path d="M128.62,79.4v1c.38-.67.76-1,1.15-1a.64.64,0,0,1,.45.16.52.52,0,0,1,.17.38.47.47,0,0,1-.12.32.42.42,0,0,1-.31.13.66.66,0,0,1-.38-.17.68.68,0,0,0-.31-.17.3.3,0,0,0-.19.1,2.4,2.4,0,0,0-.46.66V83a1.39,1.39,0,0,0,.09.56.61.61,0,0,0,.23.22,1.12,1.12,0,0,0,.46.08V84h-2.29v-.18a1,1,0,0,0,.51-.1.45.45,0,0,0,.17-.25,2.16,2.16,0,0,0,0-.48V81.26a6.74,6.74,0,0,0,0-.93.42.42,0,0,0-.11-.22.38.38,0,0,0-.22-.07,1,1,0,0,0-.34.08l0-.18,1.36-.54Z"/><path d="M133.18,83.36a6.72,6.72,0,0,1-.87.61,1.31,1.31,0,0,1-.56.12,1,1,0,0,1-.76-.31,1.18,1.18,0,0,1-.3-.84,1.15,1.15,0,0,1,.14-.57,2,2,0,0,1,.7-.62,10.37,10.37,0,0,1,1.65-.71v-.18a1.41,1.41,0,0,0-.22-.92.77.77,0,0,0-.61-.25.69.69,0,0,0-.49.17.52.52,0,0,0-.19.38v.28a.52.52,0,0,1-.11.35.43.43,0,0,1-.6,0,.54.54,0,0,1-.11-.35,1,1,0,0,1,.43-.77,1.81,1.81,0,0,1,1.2-.35,2,2,0,0,1,1,.2.89.89,0,0,1,.42.47,2.63,2.63,0,0,1,.09.86v1.52a5.71,5.71,0,0,0,0,.78.26.26,0,0,0,.08.19.15.15,0,0,0,.13,0,.28.28,0,0,0,.13,0,2.78,2.78,0,0,0,.4-.36v.28c-.37.48-.71.73-1.05.73a.49.49,0,0,1-.38-.17A.9.9,0,0,1,133.18,83.36Zm0-.32V81.33q-.74.3-1,.42a1.62,1.62,0,0,0-.55.45.86.86,0,0,0-.16.51.81.81,0,0,0,.21.58.63.63,0,0,0,.48.24A1.84,1.84,0,0,0,133.18,83Z"/><path d="M136.41,80.35c.33-.33.52-.52.58-.56a1.53,1.53,0,0,1,.47-.29,1.31,1.31,0,0,1,.5-.1,1.12,1.12,0,0,1,.72.24,1.18,1.18,0,0,1,.41.71,3.4,3.4,0,0,1,.85-.77,1.53,1.53,0,0,1,.71-.18,1.17,1.17,0,0,1,.64.18,1.23,1.23,0,0,1,.43.6,2.71,2.71,0,0,1,.11.89V83a1.9,1.9,0,0,0,.06.58.52.52,0,0,0,.18.18.93.93,0,0,0,.43.07V84h-2.2v-.18h.09a.75.75,0,0,0,.45-.11.42.42,0,0,0,.16-.25,3.47,3.47,0,0,0,0-.47V81.07a1.77,1.77,0,0,0-.13-.78.66.66,0,0,0-.61-.31,1.08,1.08,0,0,0-.52.13,3,3,0,0,0-.64.48V83a1.58,1.58,0,0,0,.06.57.39.39,0,0,0,.19.19,1.09,1.09,0,0,0,.48.07V84h-2.26v-.18a1.16,1.16,0,0,0,.51-.08.45.45,0,0,0,.19-.27,2,2,0,0,0,0-.48V81.07a1.53,1.53,0,0,0-.16-.79.7.7,0,0,0-.6-.31,1.05,1.05,0,0,0-.53.14,2,2,0,0,0-.62.48V83a1.7,1.7,0,0,0,.06.57.44.44,0,0,0,.18.2,1.28,1.28,0,0,0,.49.06V84h-2.22v-.18a1.05,1.05,0,0,0,.43-.06.43.43,0,0,0,.19-.21,1.71,1.71,0,0,0,.06-.56V81.28a6.24,6.24,0,0,0,0-1,.35.35,0,0,0-.11-.22.3.3,0,0,0-.2-.07,1,1,0,0,0-.33.08l-.07-.18,1.35-.54h.21Z"/><path d="M95.71,96H93.94L91.7,92.9H91v1.93a1.26,1.26,0,0,0,.14.77.67.67,0,0,0,.55.22H92V96H89.12v-.18h.25a.67.67,0,0,0,.6-.27,1.52,1.52,0,0,0,.11-.72V90.55a1.38,1.38,0,0,0-.14-.78.74.74,0,0,0-.57-.21h-.25v-.18h2.42a5.83,5.83,0,0,1,1.55.15,1.74,1.74,0,0,1,.85.57,1.47,1.47,0,0,1,.35,1,1.52,1.52,0,0,1-.4,1.06,2.25,2.25,0,0,1-1.23.64L94,94.68a3.69,3.69,0,0,0,.8.87,2.12,2.12,0,0,0,.88.27ZM91,92.6h.27a2.18,2.18,0,0,0,1.43-.41,1.3,1.3,0,0,0,.48-1,1.36,1.36,0,0,0-.39-1,1.38,1.38,0,0,0-1-.39,4.43,4.43,0,0,0-.77.09Z"/><path d="M96.69,93.21a2.26,2.26,0,0,0,.48,1.56,1.48,1.48,0,0,0,1.15.57,1.23,1.23,0,0,0,.76-.24,1.79,1.79,0,0,0,.55-.83l.15.1a2.38,2.38,0,0,1-.6,1.22,1.61,1.61,0,0,1-1.23.55,1.79,1.79,0,0,1-1.38-.63A2.42,2.42,0,0,1,96,93.82,2.57,2.57,0,0,1,96.58,92a1.92,1.92,0,0,1,1.48-.64,1.64,1.64,0,0,1,1.23.5,1.78,1.78,0,0,1,.49,1.32Zm0-.28h2.07a2.15,2.15,0,0,0-.1-.61,1.11,1.11,0,0,0-.37-.43.94.94,0,0,0-.5-.15,1,1,0,0,0-.73.31A1.35,1.35,0,0,0,96.69,92.93Z"/><path d="M104.17,94.3a2.38,2.38,0,0,1-.71,1.36,1.69,1.69,0,0,1-1.16.48A1.75,1.75,0,0,1,101,95.5a2.52,2.52,0,0,1-.57-1.73,2.4,2.4,0,0,1,.63-1.72,2,2,0,0,1,1.51-.65,1.64,1.64,0,0,1,1.08.34,1,1,0,0,1,.43.73.41.41,0,0,1-.12.3.45.45,0,0,1-.34.11.51.51,0,0,1-.43-.18.76.76,0,0,1-.11-.39.67.67,0,0,0-.2-.44.68.68,0,0,0-.47-.15,1,1,0,0,0-.79.36,2,2,0,0,0-.4,1.27,2.58,2.58,0,0,0,.4,1.41,1.2,1.2,0,0,0,1.06.62,1.29,1.29,0,0,0,.86-.33,2.18,2.18,0,0,0,.52-.82Z"/><path d="M107,91.4a2,2,0,0,1,1.63.77,2.35,2.35,0,0,1,.52,1.51,2.89,2.89,0,0,1-.28,1.22A2.1,2.1,0,0,1,107,96.14a1.89,1.89,0,0,1-1.61-.81,2.46,2.46,0,0,1-.5-1.52,2.78,2.78,0,0,1,.3-1.23,2.07,2.07,0,0,1,.81-.89A2,2,0,0,1,107,91.4Zm-.15.31a1,1,0,0,0-.52.16,1,1,0,0,0-.42.54,2.5,2.5,0,0,0-.16,1,3.53,3.53,0,0,0,.38,1.68,1.16,1.16,0,0,0,1,.71,1,1,0,0,0,.78-.39,2.25,2.25,0,0,0,.31-1.34,3.09,3.09,0,0,0-.52-1.88A1.05,1.05,0,0,0,106.85,91.71Z"/><path d="M111.12,92.34a2.09,2.09,0,0,1,1.5-.94,1.11,1.11,0,0,1,.63.18,1.28,1.28,0,0,1,.42.6,2.93,2.93,0,0,1,.1.9V95a1.82,1.82,0,0,0,.07.58.44.44,0,0,0,.17.19,1.14,1.14,0,0,0,.45.06V96h-2.22v-.18h.1a.74.74,0,0,0,.43-.09.46.46,0,0,0,.18-.28,3.27,3.27,0,0,0,0-.46V93.16a2,2,0,0,0-.16-.89.58.58,0,0,0-.54-.27,1.61,1.61,0,0,0-1.15.63V95a1.6,1.6,0,0,0,0,.56.55.55,0,0,0,.19.21,1.25,1.25,0,0,0,.48.06V96h-2.21v-.18h.1a.51.51,0,0,0,.46-.17,1.25,1.25,0,0,0,.12-.66V93.33a6,6,0,0,0,0-1,.38.38,0,0,0-.11-.24A.32.32,0,0,0,110,92a1,1,0,0,0-.33.08l-.07-.18,1.35-.54h.21Z"/><path d="M117.7,91.4v1.52h-.16a2,2,0,0,0-.47-1,1.09,1.09,0,0,0-.74-.26.86.86,0,0,0-.56.18.53.53,0,0,0-.21.4.74.74,0,0,0,.16.47,1.67,1.67,0,0,0,.62.43l.71.34c.66.33,1,.75,1,1.28a1.19,1.19,0,0,1-.46,1,1.6,1.6,0,0,1-1,.38,3.44,3.44,0,0,1-.94-.15,1.12,1.12,0,0,0-.27,0,.19.19,0,0,0-.17.13H115v-1.6h.16a1.77,1.77,0,0,0,.52,1,1.29,1.29,0,0,0,.87.35.81.81,0,0,0,.55-.2.63.63,0,0,0,.21-.48.74.74,0,0,0-.24-.56,4.13,4.13,0,0,0-.94-.58,2.72,2.72,0,0,1-.93-.64,1.07,1.07,0,0,1-.22-.7,1.19,1.19,0,0,1,.38-.92,1.33,1.33,0,0,1,1-.37,2.14,2.14,0,0,1,.64.11,1.27,1.27,0,0,0,.33.07.21.21,0,0,0,.12,0,.76.76,0,0,0,.1-.15Z"/><path d="M120,90.06v1.47h1v.34h-1v2.9a1,1,0,0,0,.13.59.39.39,0,0,0,.32.15.63.63,0,0,0,.31-.1.64.64,0,0,0,.23-.3h.19a1.48,1.48,0,0,1-.48.72,1,1,0,0,1-.64.24.88.88,0,0,1-.44-.12.71.71,0,0,1-.32-.36,1.81,1.81,0,0,1-.1-.71v-3h-.71v-.16a1.9,1.9,0,0,0,.55-.37,3,3,0,0,0,.5-.6,6.29,6.29,0,0,0,.31-.68Z"/><path d="M122.79,91.4v1c.38-.67.76-1,1.15-1a.64.64,0,0,1,.45.16.52.52,0,0,1,.17.38.47.47,0,0,1-.12.32.42.42,0,0,1-.31.13.66.66,0,0,1-.38-.17.68.68,0,0,0-.31-.17.3.3,0,0,0-.19.1,2.4,2.4,0,0,0-.46.66V95a1.39,1.39,0,0,0,.09.56.61.61,0,0,0,.23.22,1.12,1.12,0,0,0,.46.08V96h-2.29v-.18a1,1,0,0,0,.51-.1.45.45,0,0,0,.17-.25,2.16,2.16,0,0,0,0-.48V93.26a6.74,6.74,0,0,0,0-.93.42.42,0,0,0-.11-.22.38.38,0,0,0-.22-.07,1,1,0,0,0-.34.08l0-.18,1.36-.54Z"/><path d="M128.73,91.53v2.71a7.51,7.51,0,0,0,0,1,.39.39,0,0,0,.12.24.29.29,0,0,0,.19.07.82.82,0,0,0,.34-.09l.07.17-1.34.56h-.22v-1a4.29,4.29,0,0,1-.88.79,1.44,1.44,0,0,1-.64.16,1,1,0,0,1-.65-.22,1.17,1.17,0,0,1-.39-.56,3.5,3.5,0,0,1-.1-1v-2a1,1,0,0,0-.07-.44.52.52,0,0,0-.2-.19,1,1,0,0,0-.49-.06v-.18h1.57v3a1.14,1.14,0,0,0,.21.82.78.78,0,0,0,.53.2,1.11,1.11,0,0,0,.48-.14,2.54,2.54,0,0,0,.63-.5V92.37a.74.74,0,0,0-.14-.52.87.87,0,0,0-.58-.14v-.18Z"/><path d="M133.61,94.3a2.44,2.44,0,0,1-.71,1.36,1.69,1.69,0,0,1-1.16.48,1.75,1.75,0,0,1-1.33-.64,2.52,2.52,0,0,1-.57-1.73,2.4,2.4,0,0,1,.63-1.72A2,2,0,0,1,132,91.4a1.64,1.64,0,0,1,1.08.34,1,1,0,0,1,.42.73.44.44,0,0,1-.11.3.47.47,0,0,1-.34.11.51.51,0,0,1-.43-.18.67.67,0,0,1-.11-.39.67.67,0,0,0-.2-.44.71.71,0,0,0-.48-.15,1,1,0,0,0-.78.36,1.9,1.9,0,0,0-.4,1.27,2.5,2.5,0,0,0,.4,1.41,1.2,1.2,0,0,0,1.06.62,1.29,1.29,0,0,0,.86-.33,2.18,2.18,0,0,0,.52-.82Z"/><path d="M135.55,90.06v1.47h1v.34h-1v2.9a1,1,0,0,0,.12.59.41.41,0,0,0,.32.15.59.59,0,0,0,.55-.4h.19a1.48,1.48,0,0,1-.48.72,1,1,0,0,1-.65.24.91.91,0,0,1-.44-.12.73.73,0,0,1-.31-.36,1.78,1.78,0,0,1-.11-.71v-3H134v-.16a1.9,1.9,0,0,0,.55-.37,3.32,3.32,0,0,0,.5-.6,6.29,6.29,0,0,0,.31-.68Z"/><path d="M139.22,91.4a2,2,0,0,1,1.63.77,2.35,2.35,0,0,1,.52,1.51,2.9,2.9,0,0,1-.29,1.22,2,2,0,0,1-.79.92,2.1,2.1,0,0,1-1.13.32,1.88,1.88,0,0,1-1.6-.81,2.46,2.46,0,0,1-.51-1.52,2.8,2.8,0,0,1,.31-1.23,2.05,2.05,0,0,1,.8-.89A2,2,0,0,1,139.22,91.4Zm-.15.31a.93.93,0,0,0-.52.16,1,1,0,0,0-.43.54,2.69,2.69,0,0,0-.16,1,3.42,3.42,0,0,0,.39,1.68,1.16,1.16,0,0,0,1,.71.94.94,0,0,0,.78-.39,2.18,2.18,0,0,0,.31-1.34,3.09,3.09,0,0,0-.51-1.88A1.07,1.07,0,0,0,139.07,91.71Z"/><path d="M143.34,91.4v1c.37-.67.76-1,1.15-1a.6.6,0,0,1,.44.16.49.49,0,0,1,.18.38.44.44,0,0,1-.13.32.38.38,0,0,1-.3.13.66.66,0,0,1-.38-.17.66.66,0,0,0-.32-.17.32.32,0,0,0-.19.1,2.4,2.4,0,0,0-.45.66V95a1.39,1.39,0,0,0,.09.56.55.55,0,0,0,.23.22,1.08,1.08,0,0,0,.46.08V96h-2.29v-.18a1,1,0,0,0,.51-.1.45.45,0,0,0,.17-.25,3.8,3.8,0,0,0,0-.48V93.26a7.63,7.63,0,0,0,0-.93.36.36,0,0,0-.12-.22.33.33,0,0,0-.21-.07,1,1,0,0,0-.34.08l-.05-.18,1.35-.54Z"/><rect class="cls-3" x="45.5" y="63" width="32" height="24"/><path class="cls-4" d="M55.87,72l-2.56-5.57v4.42a1.36,1.36,0,0,0,.14.77.74.74,0,0,0,.57.2h.23V72H52v-.18h.23a.68.68,0,0,0,.6-.25,1.59,1.59,0,0,0,.1-.72V66.53a1.63,1.63,0,0,0-.09-.64.56.56,0,0,0-.25-.23,1.28,1.28,0,0,0-.59-.1v-.18h1.87l2.4,5.18,2.37-5.18h1.87v.18h-.23a.71.71,0,0,0-.6.25,1.55,1.55,0,0,0-.11.72v4.32a1.36,1.36,0,0,0,.14.77.74.74,0,0,0,.57.2h.23V72H57.65v-.18h.23a.66.66,0,0,0,.6-.25,1.55,1.55,0,0,0,.11-.72V66.43L56,72Z"/><path class="cls-4" d="M61.74,69.21a2.26,2.26,0,0,0,.48,1.57,1.5,1.5,0,0,0,1.15.56,1.23,1.23,0,0,0,.76-.24,1.79,1.79,0,0,0,.55-.83l.15.1a2.34,2.34,0,0,1-.6,1.22,1.58,1.58,0,0,1-1.23.55,1.79,1.79,0,0,1-1.38-.63A2.38,2.38,0,0,1,61,69.82,2.57,2.57,0,0,1,61.63,68a2,2,0,0,1,1.48-.64,1.64,1.64,0,0,1,1.23.5,1.78,1.78,0,0,1,.49,1.32Zm0-.28h2.07a1.79,1.79,0,0,0-.11-.61,1,1,0,0,0-.36-.43.94.94,0,0,0-.5-.15,1,1,0,0,0-.73.31A1.37,1.37,0,0,0,61.74,68.93Z"/><path class="cls-4" d="M67,65.06V71a1.67,1.67,0,0,0,.06.56.41.41,0,0,0,.19.2,1,1,0,0,0,.47.08V72H65.49v-.17a.93.93,0,0,0,.42-.07.42.42,0,0,0,.18-.21,1.71,1.71,0,0,0,.06-.56V66.93a7.87,7.87,0,0,0,0-.93.45.45,0,0,0-.11-.24.32.32,0,0,0-.2-.06.78.78,0,0,0-.32.08l-.08-.18,1.33-.54Z"/><path class="cls-4" d="M68.29,69.39h2.53v.74H68.29Z"/><path class="cls-4" d="M55.12,77.23v2.29h-.18a2.9,2.9,0,0,0-.32-1,1.62,1.62,0,0,0-.65-.62,1.83,1.83,0,0,0-.87-.23,1.2,1.2,0,0,0-.84.31,1,1,0,0,0-.33.7.85.85,0,0,0,.21.56,5.3,5.3,0,0,0,1.44,1,10.76,10.76,0,0,1,1.27.77,1.71,1.71,0,0,1,.52.62,1.74,1.74,0,0,1,.19.76,1.72,1.72,0,0,1-.59,1.3,2.12,2.12,0,0,1-1.5.54,3.12,3.12,0,0,1-.54,0l-.63-.18a3,3,0,0,0-.6-.15.27.27,0,0,0-.2.07.64.64,0,0,0-.1.3h-.18V81.88h.18A3.2,3.2,0,0,0,51.74,83a1.67,1.67,0,0,0,.66.59,2.1,2.1,0,0,0,1,.23,1.39,1.39,0,0,0,1-.32,1,1,0,0,0,.36-.76,1.08,1.08,0,0,0-.14-.5,1.49,1.49,0,0,0-.42-.46,10.67,10.67,0,0,0-1-.62,9.75,9.75,0,0,1-1.2-.76,2,2,0,0,1-.55-.63,1.54,1.54,0,0,1-.18-.75,1.66,1.66,0,0,1,.54-1.23,2,2,0,0,1,1.39-.51,2.8,2.8,0,0,1,1.12.26,1.13,1.13,0,0,0,.39.12.32.32,0,0,0,.21-.08.71.71,0,0,0,.13-.3Z"/><path class="cls-4" d="M56.08,80l1.38-.55h.19v1a2.63,2.63,0,0,1,.69-.83,1.34,1.34,0,0,1,.74-.23,1.42,1.42,0,0,1,1.12.52,2.48,2.48,0,0,1,.55,1.68,2.82,2.82,0,0,1-.66,1.92,1.79,1.79,0,0,1-1.38.62,2,2,0,0,1-.63-.1,1.41,1.41,0,0,1-.43-.3V85.1a1.82,1.82,0,0,0,.05.59.43.43,0,0,0,.2.2,1.36,1.36,0,0,0,.5.07v.18H56.06V86h.12a1,1,0,0,0,.46-.1.37.37,0,0,0,.14-.18,1.86,1.86,0,0,0,0-.6V80.85a3.1,3.1,0,0,0,0-.56.37.37,0,0,0-.13-.17.39.39,0,0,0-.23-.06.79.79,0,0,0-.3.07Zm1.57.78v1.67a3.58,3.58,0,0,0,0,.71.9.9,0,0,0,.33.5,1.05,1.05,0,0,0,.67.21,1,1,0,0,0,.8-.38,2.2,2.2,0,0,0,.39-1.4,2.41,2.41,0,0,0-.45-1.57.92.92,0,0,0-.74-.39,1,1,0,0,0-.46.12A2.82,2.82,0,0,0,57.65,80.75Z"/><path class="cls-4" d="M62.16,81.21a2.26,2.26,0,0,0,.48,1.57,1.5,1.5,0,0,0,1.15.56,1.23,1.23,0,0,0,.76-.24,1.79,1.79,0,0,0,.55-.83l.15.1a2.34,2.34,0,0,1-.6,1.22,1.58,1.58,0,0,1-1.23.55A1.79,1.79,0,0,1,62,83.51a2.38,2.38,0,0,1-.58-1.69A2.57,2.57,0,0,1,62.05,80a2,2,0,0,1,1.48-.64,1.64,1.64,0,0,1,1.23.5,1.78,1.78,0,0,1,.49,1.32Zm0-.28h2.07a1.79,1.79,0,0,0-.11-.61,1,1,0,0,0-.36-.43.94.94,0,0,0-.5-.15,1,1,0,0,0-.73.31A1.37,1.37,0,0,0,62.16,80.93Z"/><path class="cls-4" d="M69.64,82.3a2.38,2.38,0,0,1-.71,1.36,1.69,1.69,0,0,1-1.16.48,1.75,1.75,0,0,1-1.33-.64,2.51,2.51,0,0,1-.57-1.73,2.37,2.37,0,0,1,.63-1.71A2,2,0,0,1,68,79.4a1.6,1.6,0,0,1,1.08.35,1,1,0,0,1,.43.72.41.41,0,0,1-.12.3.47.47,0,0,1-.34.12.52.52,0,0,1-.43-.19.67.67,0,0,1-.11-.39.67.67,0,0,0-.2-.44.68.68,0,0,0-.47-.15,1,1,0,0,0-.79.36,2,2,0,0,0-.4,1.27,2.5,2.5,0,0,0,.4,1.41,1.2,1.2,0,0,0,1.06.62,1.29,1.29,0,0,0,.86-.33,2.18,2.18,0,0,0,.52-.82Z"/><path class="cls-4" d="M71.22,83.05a.55.55,0,0,1,.54.55.51.51,0,0,1-.16.38.53.53,0,0,1-.76,0,.51.51,0,0,1-.16-.38.5.5,0,0,1,.16-.39A.53.53,0,0,1,71.22,83.05Z"/><rect class="cls-3" x="259.5" y="69" width="49" height="12"/><text class="cls-5" transform="translate(263.02 78)"><tspan class="cls-6">W</tspan><tspan x="8.64" y="0">aveform</tspan></text><rect class="cls-7" x="207.5" y="69" width="40" height="12" rx="6"/><text class="cls-8" transform="translate(210.93 78)"><tspan class="cls-9">V</tspan><tspan x="5.93" y="0">ocoder</tspan></text><text class="cls-8" transform="translate(3 9)">Existing pipeline</text><text class="cls-8" transform="translate(3 51)">Proposed pipeline</text></svg>