<svg id="Layer_1" data-name="Layer 1" xmlns="http://www.w3.org/2000/svg" viewBox="0 0 312 100"><defs><style>.cls-1,.cls-2{fill:none;stroke:#000;stroke-miterlimit:10;}.cls-2{stroke-dasharray:2 2;}.cls-3{fill:#404040;}.cls-4{fill:#fff;}.cls-5{fill:#ffc0c0;}</style></defs><line class="cls-1" x1="77" y1="75" x2="157.03" y2="75"/><polygon points="154.22 78.7 155.79 75 154.22 71.3 163 75 154.22 78.7"/><line class="cls-1" x1="77" y1="25" x2="253.03" y2="25"/><polygon points="250.22 28.7 251.79 25 250.22 21.3 259 25 250.22 28.7"/><line class="cls-2" x1="13" y1="25" x2="39.03" y2="25"/><polygon points="36.22 28.7 37.8 25 36.22 21.3 45 25 36.22 28.7"/><line class="cls-1" x1="199" y1="75" x2="253.03" y2="75"/><polygon points="250.22 78.7 251.79 75 250.22 71.3 259 75 250.22 78.7"/><line class="cls-2" x1="13.5" y1="75" x2="39.53" y2="75"/><polygon points="36.72 78.7 38.3 75 36.72 71.3 45.5 75 36.72 78.7"/><rect class="cls-3" x="45" y="13" width="32" height="24"/><path class="cls-4" d="M55.33,22l-2.12-6.16h0c0,.25,0,.54,0,.84s0,.61,0,.9V22h-.82V14.86H53.7l2,5.84h0l2-5.84H59V22h-.86V17.55c0-.27,0-.56,0-.86s0-.59,0-.84h0L56.07,22Z"/><path class="cls-4" d="M62.56,16.54a1.84,1.84,0,0,1,1.09.31,1.94,1.94,0,0,1,.68.85,3.19,3.19,0,0,1,.23,1.24v.54H61.3a2.27,2.27,0,0,0,.41,1.42,1.34,1.34,0,0,0,1.11.47,3.24,3.24,0,0,0,.79-.09,3.44,3.44,0,0,0,.72-.28v.75a3.68,3.68,0,0,1-.74.27,4.1,4.1,0,0,1-.83.08A2.14,2.14,0,0,1,61,21.37a3,3,0,0,1-.61-2A3.34,3.34,0,0,1,61,17.28,1.87,1.87,0,0,1,62.56,16.54Zm0,.7a1,1,0,0,0-.86.4,2.12,2.12,0,0,0-.38,1.16h2.38a2.07,2.07,0,0,0-.27-1.11A1,1,0,0,0,62.55,17.24Z"/><path class="cls-4" d="M66.65,22H65.8V14.4h.85Z"/><path class="cls-4" d="M67.77,19.71v-.79h2.34v.79Z"/><path class="cls-4" d="M54.29,32.07a1.9,1.9,0,0,1-.62,1.49A2.49,2.49,0,0,1,52,34.1,6.23,6.23,0,0,1,51,34a2.72,2.72,0,0,1-.79-.25v-.86a4.31,4.31,0,0,0,.84.29,4,4,0,0,0,1,.12,1.55,1.55,0,0,0,1-.32,1.1,1.1,0,0,0,.36-.85,1.2,1.2,0,0,0-.13-.59,1.3,1.3,0,0,0-.46-.44,5.86,5.86,0,0,0-.87-.43,3.28,3.28,0,0,1-1.24-.79,1.82,1.82,0,0,1-.43-1.3,1.72,1.72,0,0,1,.27-1,1.66,1.66,0,0,1,.74-.64,2.51,2.51,0,0,1,1.1-.23,4.32,4.32,0,0,1,1,.11,4.06,4.06,0,0,1,.79.27l-.27.77a4.52,4.52,0,0,0-.73-.26,2.88,2.88,0,0,0-.78-.1,1.3,1.3,0,0,0-.9.29,1,1,0,0,0-.31.75,1.23,1.23,0,0,0,.13.61,1.21,1.21,0,0,0,.44.43,4.83,4.83,0,0,0,.82.4,3.93,3.93,0,0,1,1.3.81A1.66,1.66,0,0,1,54.29,32.07Z"/><path class="cls-4" d="M57.85,28.54a1.71,1.71,0,0,1,1.44.69,3.41,3.41,0,0,1,.53,2.08,3.49,3.49,0,0,1-.53,2.08,1.7,1.7,0,0,1-1.43.71,1.73,1.73,0,0,1-.91-.22,1.79,1.79,0,0,1-.59-.57h0c0,.12,0,.26,0,.42s0,.29,0,.4V36.4h-.85V28.64h.69l.12.73h0a1.78,1.78,0,0,1,.59-.6A1.62,1.62,0,0,1,57.85,28.54Zm-.17.72a1.12,1.12,0,0,0-1,.47,2.73,2.73,0,0,0-.31,1.41v.18a3.15,3.15,0,0,0,.3,1.54,1.1,1.1,0,0,0,1,.52,1,1,0,0,0,.93-.56,3.09,3.09,0,0,0,.31-1.51,3,3,0,0,0-.31-1.51A1,1,0,0,0,57.68,29.26Z"/><path class="cls-4" d="M63,28.54a1.84,1.84,0,0,1,1.09.31,1.94,1.94,0,0,1,.68.85A3.19,3.19,0,0,1,65,30.94v.54H61.7a2.27,2.27,0,0,0,.41,1.42,1.34,1.34,0,0,0,1.11.47,3.24,3.24,0,0,0,.79-.09,3.44,3.44,0,0,0,.72-.28v.75A3.83,3.83,0,0,1,64,34a4.28,4.28,0,0,1-.84.08,2.1,2.1,0,0,1-1.71-.73,3,3,0,0,1-.62-2,3.34,3.34,0,0,1,.57-2.08A1.87,1.87,0,0,1,63,28.54Zm0,.7a1,1,0,0,0-.86.4,2.12,2.12,0,0,0-.38,1.16h2.38a2.07,2.07,0,0,0-.27-1.11A1,1,0,0,0,63,29.24Z"/><path class="cls-4" d="M68.13,34.1a2,2,0,0,1-1.6-.67,3.07,3.07,0,0,1-.6-2.08,3.12,3.12,0,0,1,.61-2.12,2.11,2.11,0,0,1,1.64-.69,3.13,3.13,0,0,1,.7.08,2.23,2.23,0,0,1,.57.19l-.27.71a4.7,4.7,0,0,0-.49-.16,1.89,1.89,0,0,0-.51-.07c-.91,0-1.37.68-1.37,2.05a2.75,2.75,0,0,0,.34,1.51,1.12,1.12,0,0,0,1,.51,2.69,2.69,0,0,0,.65-.08,2.49,2.49,0,0,0,.56-.21v.74A2.47,2.47,0,0,1,68.13,34.1Z"/><path class="cls-4" d="M70.4,33.46a.66.66,0,0,1,.17-.5A.55.55,0,0,1,71,32.8a.6.6,0,0,1,.42.15.84.84,0,0,1,0,1,.57.57,0,0,1-.42.16.55.55,0,0,1-.42-.16A.67.67,0,0,1,70.4,33.46Z"/><rect class="cls-3" x="259" y="19" width="49" height="12"/><path class="cls-4" d="M270,20.86,268.28,28h-.94l-1.21-4.63c-.06-.23-.12-.47-.18-.74a6.5,6.5,0,0,1-.12-.67c0,.13-.06.34-.11.61s-.11.54-.18.81L264.36,28h-.94l-1.74-7.14h.91l1,4.37c.06.33.12.64.18.94s.1.56.13.79c0-.27.09-.55.15-.86s.13-.61.2-.9l1.13-4.34h.87l1.15,4.36c.08.29.15.59.21.89s.1.58.14.85c0-.27.07-.56.13-.85s.12-.6.2-.89l1-4.36Z"/><path class="cls-4" d="M272.55,22.54a1.7,1.7,0,0,1,1.31.45,2,2,0,0,1,.42,1.37V28h-.63l-.15-.75h0a2.1,2.1,0,0,1-.66.64,1.83,1.83,0,0,1-.93.21,1.46,1.46,0,0,1-1.1-.42,1.58,1.58,0,0,1-.41-1.17,1.47,1.47,0,0,1,.56-1.24,3,3,0,0,1,1.71-.48l.8,0v-.33a1.39,1.39,0,0,0-.25-.92.91.91,0,0,0-.71-.27,2.2,2.2,0,0,0-.68.11,4.06,4.06,0,0,0-.65.27l-.27-.64a3.18,3.18,0,0,1,.77-.32A3.26,3.26,0,0,1,272.55,22.54Zm.89,2.83-.68,0a1.93,1.93,0,0,0-1.17.31,1,1,0,0,0-.34.8.9.9,0,0,0,.23.69.92.92,0,0,0,.63.21,1.3,1.3,0,0,0,.95-.38,1.62,1.62,0,0,0,.38-1.16Z"/><path class="cls-4" d="M276.83,28,275,22.64h.9l1,3.17q.09.32.21.69a5.91,5.91,0,0,1,.15.66h0a4.26,4.26,0,0,1,.14-.58c.07-.25.14-.48.21-.7l1-3.24h.9L277.79,28Z"/><path class="cls-4" d="M282.24,22.54a1.83,1.83,0,0,1,1.08.31,1.87,1.87,0,0,1,.68.85,3,3,0,0,1,.24,1.24v.54H281a2.27,2.27,0,0,0,.4,1.42,1.38,1.38,0,0,0,1.12.47,3.21,3.21,0,0,0,.78-.09A3.31,3.31,0,0,0,284,27v.75a3.91,3.91,0,0,1-.74.27,4.1,4.1,0,0,1-.83.08,2.11,2.11,0,0,1-1.72-.73,3,3,0,0,1-.61-2,3.34,3.34,0,0,1,.57-2.08A1.87,1.87,0,0,1,282.24,22.54Zm0,.7a1.06,1.06,0,0,0-.87.4A2.12,2.12,0,0,0,281,24.8h2.38a2.07,2.07,0,0,0-.28-1.11A.93.93,0,0,0,282.23,23.24Z"/><path class="cls-4" d="M287.68,23.32h-1.16V28h-.86V23.32h-.83V22.9l.83-.29V22.3a2.27,2.27,0,0,1,.38-1.47,1.42,1.42,0,0,1,1.17-.48,2.76,2.76,0,0,1,.51,0,2.83,2.83,0,0,1,.44.12l-.22.68-.33-.09a1.47,1.47,0,0,0-.36,0,.62.62,0,0,0-.56.28,1.83,1.83,0,0,0-.17.93v.36h1.16Z"/><path class="cls-4" d="M292.78,25.31a3.17,3.17,0,0,1-.6,2.05,2,2,0,0,1-1.65.74,2.06,2.06,0,0,1-1.17-.33,2.19,2.19,0,0,1-.78-1,3.79,3.79,0,0,1-.27-1.5,3.17,3.17,0,0,1,.58-2,2.22,2.22,0,0,1,3.27,0A3,3,0,0,1,292.78,25.31Zm-3.59,0a3,3,0,0,0,.33,1.53,1.24,1.24,0,0,0,2.05,0,3,3,0,0,0,.33-1.53,2.87,2.87,0,0,0-.33-1.51,1.13,1.13,0,0,0-1-.53,1.11,1.11,0,0,0-1,.53A2.87,2.87,0,0,0,289.19,25.31Z"/><path class="cls-4" d="M296.29,22.54a2.65,2.65,0,0,1,.58.06l-.11.82-.25-.05-.27,0a1.09,1.09,0,0,0-.67.23,1.61,1.61,0,0,0-.49.64,2.28,2.28,0,0,0-.18.94V28H294V22.64h.69l.1.95h.05a2.29,2.29,0,0,1,.58-.75A1.27,1.27,0,0,1,296.29,22.54Z"/><path class="cls-4" d="M303.06,22.54a1.5,1.5,0,0,1,1.21.46,2.21,2.21,0,0,1,.4,1.47V28h-.84V24.55c0-.85-.32-1.28-.95-1.28a1,1,0,0,0-.95.46,2.47,2.47,0,0,0-.29,1.31v3h-.84V24.54a1.58,1.58,0,0,0-.23-1,.87.87,0,0,0-.72-.31,1,1,0,0,0-1,.52,3.21,3.21,0,0,0-.26,1.42V28h-.85V22.64h.69l.12.73h0a1.44,1.44,0,0,1,.6-.62,1.67,1.67,0,0,1,.82-.21,1.37,1.37,0,0,1,1.45.88h.05a1.55,1.55,0,0,1,.63-.66A1.81,1.81,0,0,1,303.06,22.54Z"/><rect class="cls-5" x="207" y="19" width="40" height="12" rx="6"/><path d="M215,20.86,212.72,28h-.93l-2.24-7.14h.92l1.41,4.67c.09.27.16.52.22.77s.11.49.15.72a7.27,7.27,0,0,1,.16-.72c.06-.25.13-.52.22-.79L214,20.86Z"/><path d="M219.77,25.31a3.23,3.23,0,0,1-.59,2.05,2,2,0,0,1-1.66.74,2,2,0,0,1-1.17-.34,2.13,2.13,0,0,1-.77-1,3.54,3.54,0,0,1-.28-1.49,3.17,3.17,0,0,1,.59-2,2,2,0,0,1,1.65-.72,2,2,0,0,1,1.62.71A3.09,3.09,0,0,1,219.77,25.31Zm-3.59,0a2.93,2.93,0,0,0,.33,1.52,1.24,1.24,0,0,0,2.06,0,3,3,0,0,0,.32-1.52,3,3,0,0,0-.32-1.51,1.15,1.15,0,0,0-1-.53,1.12,1.12,0,0,0-1,.53A3,3,0,0,0,216.18,25.31Z"/><path d="M223,28.1a2,2,0,0,1-1.6-.68,3,3,0,0,1-.6-2.07,3.12,3.12,0,0,1,.62-2.12,2.07,2.07,0,0,1,1.63-.69,2.76,2.76,0,0,1,.71.08,2.29,2.29,0,0,1,.56.19l-.27.71a4.7,4.7,0,0,0-.49-.16,1.89,1.89,0,0,0-.51-.07c-.91,0-1.37.68-1.37,2.05a2.69,2.69,0,0,0,.34,1.5,1.11,1.11,0,0,0,1,.52,2.69,2.69,0,0,0,.65-.08,2.49,2.49,0,0,0,.56-.21v.74A2.47,2.47,0,0,1,223,28.1Z"/><path d="M229.54,25.31a3.23,3.23,0,0,1-.59,2.05,2,2,0,0,1-1.66.74,2,2,0,0,1-1.17-.34,2.13,2.13,0,0,1-.77-1,3.54,3.54,0,0,1-.28-1.49,3.17,3.17,0,0,1,.59-2,2,2,0,0,1,1.65-.72,2,2,0,0,1,1.62.71A3.09,3.09,0,0,1,229.54,25.31Zm-3.59,0a2.93,2.93,0,0,0,.33,1.52,1.24,1.24,0,0,0,2.06,0,3,3,0,0,0,.32-1.52,3,3,0,0,0-.32-1.51,1.15,1.15,0,0,0-1-.53,1.12,1.12,0,0,0-1,.53A3,3,0,0,0,226,25.31Z"/><path d="M232.5,28.1a1.69,1.69,0,0,1-1.44-.7,3.43,3.43,0,0,1-.53-2.07,3.47,3.47,0,0,1,.53-2.08,1.86,1.86,0,0,1,2.34-.49,1.89,1.89,0,0,1,.59.57h0c0-.11,0-.25,0-.4s0-.27,0-.38V20.4h.86V28h-.69l-.12-.71h0a2,2,0,0,1-.59.59A1.76,1.76,0,0,1,232.5,28.1Zm.16-.72a1.16,1.16,0,0,0,1-.46,2.5,2.5,0,0,0,.31-1.4v-.21a3.27,3.27,0,0,0-.29-1.53,1.11,1.11,0,0,0-1.06-.52,1,1,0,0,0-.93.55,3.12,3.12,0,0,0-.31,1.53,3,3,0,0,0,.31,1.51A1,1,0,0,0,232.66,27.38Z"/><path d="M238.26,22.54a1.91,1.91,0,0,1,1.09.3,2.06,2.06,0,0,1,.68.85,3.28,3.28,0,0,1,.23,1.25v.54H237a2.21,2.21,0,0,0,.41,1.41,1.32,1.32,0,0,0,1.11.48,3.24,3.24,0,0,0,.79-.09A3.44,3.44,0,0,0,240,27v.75a3.12,3.12,0,0,1-.74.26,3.46,3.46,0,0,1-.83.09,2.1,2.1,0,0,1-1.71-.73,3,3,0,0,1-.62-2,3.34,3.34,0,0,1,.57-2.08A1.87,1.87,0,0,1,238.26,22.54Zm0,.7a1,1,0,0,0-.86.4A2.12,2.12,0,0,0,237,24.8h2.38a2.14,2.14,0,0,0-.27-1.12A1,1,0,0,0,238.25,23.24Z"/><path d="M243.75,22.54a2.49,2.49,0,0,1,.57.06l-.11.82-.25-.05-.27,0a1.09,1.09,0,0,0-.67.23,1.56,1.56,0,0,0-.48.63,2.18,2.18,0,0,0-.19.95V28h-.85V22.64h.68l.11.95h0a2.31,2.31,0,0,1,.59-.75A1.23,1.23,0,0,1,243.75,22.54Z"/><rect class="cls-3" x="163" y="63" width="36" height="24"/><path class="cls-4" d="M168.58,72V64.86h.88v6.35h2.71V72Z"/><path class="cls-4" d="M173.6,64.62a.48.48,0,0,1,.35.14.56.56,0,0,1,.14.43.53.53,0,0,1-.14.42.45.45,0,0,1-.35.14.48.48,0,0,1-.36-.14.54.54,0,0,1-.15-.42.56.56,0,0,1,.15-.43A.52.52,0,0,1,173.6,64.62Zm.41,2V72h-.85V66.64Z"/><path class="cls-4" d="M177.92,66.54a1.68,1.68,0,0,1,1.29.46,2.12,2.12,0,0,1,.42,1.46V72h-.84V68.55a1.57,1.57,0,0,0-.25-1,.91.91,0,0,0-.77-.32,1.12,1.12,0,0,0-1.05.49,2.82,2.82,0,0,0-.3,1.46V72h-.85V66.64h.68l.13.73h0a1.59,1.59,0,0,1,.64-.62A1.85,1.85,0,0,1,177.92,66.54Z"/><path class="cls-4" d="M183,66.54a1.84,1.84,0,0,1,1.09.31,1.87,1.87,0,0,1,.68.85,3,3,0,0,1,.23,1.24v.54h-3.26a2.33,2.33,0,0,0,.41,1.42,1.37,1.37,0,0,0,1.11.47,3.24,3.24,0,0,0,.79-.09,3.06,3.06,0,0,0,.72-.28v.75a3.6,3.6,0,0,1-.73.27,4.13,4.13,0,0,1-.84.08,2.1,2.1,0,0,1-1.71-.73,3,3,0,0,1-.62-2,3.34,3.34,0,0,1,.57-2.08A1.87,1.87,0,0,1,183,66.54Zm0,.7a1.06,1.06,0,0,0-.86.4,2.12,2.12,0,0,0-.38,1.16h2.38a2.07,2.07,0,0,0-.27-1.11A.94.94,0,0,0,183,67.24Z"/><path class="cls-4" d="M188.08,66.54a1.73,1.73,0,0,1,1.32.45,2,2,0,0,1,.41,1.37V72h-.63l-.15-.75h0a2.07,2.07,0,0,1-.65.64,1.83,1.83,0,0,1-.93.21,1.5,1.5,0,0,1-1.11-.42,1.62,1.62,0,0,1-.41-1.17,1.48,1.48,0,0,1,.57-1.24,3,3,0,0,1,1.7-.48l.8,0v-.33a1.39,1.39,0,0,0-.24-.92.91.91,0,0,0-.72-.27,2.25,2.25,0,0,0-.68.11,4.48,4.48,0,0,0-.65.27l-.26-.64a3.28,3.28,0,0,1,.76-.32A3.37,3.37,0,0,1,188.08,66.54Zm.89,2.83-.68,0a2,2,0,0,0-1.17.31,1,1,0,0,0-.34.8.79.79,0,0,0,.86.9,1.3,1.3,0,0,0,1-.38,1.62,1.62,0,0,0,.37-1.16Z"/><path class="cls-4" d="M193.59,66.54a2.65,2.65,0,0,1,.58.06l-.12.82a1.37,1.37,0,0,0-.25,0l-.26,0a1.12,1.12,0,0,0-.68.23,1.69,1.69,0,0,0-.48.64,2.28,2.28,0,0,0-.19.94V72h-.85V66.64H192l.11,1h0a2.46,2.46,0,0,1,.59-.75A1.25,1.25,0,0,1,193.59,66.54Z"/><path class="cls-4" d="M174.29,82.07a1.9,1.9,0,0,1-.62,1.49,2.49,2.49,0,0,1-1.68.54,6.23,6.23,0,0,1-1-.08,2.72,2.72,0,0,1-.79-.25v-.86a4.31,4.31,0,0,0,.84.29,4,4,0,0,0,1,.12,1.55,1.55,0,0,0,1.05-.32,1.1,1.1,0,0,0,.36-.85,1.2,1.2,0,0,0-.13-.59,1.39,1.39,0,0,0-.46-.44,5.86,5.86,0,0,0-.87-.43,3.28,3.28,0,0,1-1.24-.79,1.82,1.82,0,0,1-.43-1.3,1.8,1.8,0,0,1,.26-1,1.74,1.74,0,0,1,.75-.64,2.51,2.51,0,0,1,1.1-.23,4.32,4.32,0,0,1,1,.11,4.06,4.06,0,0,1,.79.27l-.27.77a4.52,4.52,0,0,0-.73-.26,2.88,2.88,0,0,0-.78-.1,1.3,1.3,0,0,0-.9.29,1,1,0,0,0-.31.75,1.23,1.23,0,0,0,.13.61,1.21,1.21,0,0,0,.44.43,4.83,4.83,0,0,0,.82.4,3.93,3.93,0,0,1,1.3.81A1.7,1.7,0,0,1,174.29,82.07Z"/><path class="cls-4" d="M177.85,78.54a1.71,1.71,0,0,1,1.44.69,3.41,3.41,0,0,1,.53,2.08,3.49,3.49,0,0,1-.53,2.08,1.7,1.7,0,0,1-1.43.71,1.73,1.73,0,0,1-.91-.22,1.79,1.79,0,0,1-.59-.57h-.05q0,.18,0,.42c0,.15,0,.29,0,.4V86.4h-.85V78.64h.69l.12.73h0a1.85,1.85,0,0,1,.58-.6A1.68,1.68,0,0,1,177.85,78.54Zm-.17.72a1.12,1.12,0,0,0-1,.47,2.73,2.73,0,0,0-.31,1.41v.18a3.15,3.15,0,0,0,.3,1.54,1.1,1.1,0,0,0,1,.52,1,1,0,0,0,.93-.56,3.09,3.09,0,0,0,.31-1.51,3,3,0,0,0-.31-1.51A1,1,0,0,0,177.68,79.26Z"/><path class="cls-4" d="M183,78.54a1.79,1.79,0,0,1,1.08.31,1.81,1.81,0,0,1,.68.85,3,3,0,0,1,.24,1.24v.54H181.7a2.27,2.27,0,0,0,.41,1.42,1.34,1.34,0,0,0,1.11.47,3.1,3.1,0,0,0,.78-.09,3.31,3.31,0,0,0,.73-.28v.75A3.83,3.83,0,0,1,184,84a4.28,4.28,0,0,1-.84.08,2.1,2.1,0,0,1-1.71-.73,3,3,0,0,1-.62-2,3.34,3.34,0,0,1,.57-2.08A1.87,1.87,0,0,1,183,78.54Zm0,.7a1.06,1.06,0,0,0-.87.4,2.21,2.21,0,0,0-.37,1.16h2.38a2.07,2.07,0,0,0-.27-1.11A1,1,0,0,0,183,79.24Z"/><path class="cls-4" d="M188.13,84.1a2,2,0,0,1-1.61-.67,4,4,0,0,1,0-4.2,2.11,2.11,0,0,1,1.64-.69,3.13,3.13,0,0,1,.7.08,2.23,2.23,0,0,1,.57.19l-.27.71a4.7,4.7,0,0,0-.49-.16,1.89,1.89,0,0,0-.51-.07c-.91,0-1.37.68-1.37,2a2.84,2.84,0,0,0,.33,1.51,1.15,1.15,0,0,0,1,.51,2.69,2.69,0,0,0,.65-.08,2.49,2.49,0,0,0,.56-.21v.74A2.47,2.47,0,0,1,188.13,84.1Z"/><path class="cls-4" d="M190.4,83.46a.7.7,0,0,1,.16-.5.59.59,0,0,1,.43-.16.6.6,0,0,1,.42.15.84.84,0,0,1,0,1,.57.57,0,0,1-.42.16.59.59,0,0,1-.43-.16A.71.71,0,0,1,190.4,83.46Z"/><rect class="cls-5" x="85" y="51" width="64" height="48" rx="6"/><path d="M99.31,52.86a2.71,2.71,0,0,1,1.87.54,2,2,0,0,1,.59,1.56,2.6,2.6,0,0,1-.25,1.16,1.82,1.82,0,0,1-.82.8,3.22,3.22,0,0,1-1.5.3h-.69V60h-.88V52.86Zm-.06.76h-.74v2.84h.6a2.12,2.12,0,0,0,1.33-.34,1.35,1.35,0,0,0,.43-1.13,1.29,1.29,0,0,0-.39-1A1.92,1.92,0,0,0,99.25,53.62Z"/><path d="M105.24,54.54a2.49,2.49,0,0,1,.57.06l-.11.82-.25-.05-.27,0a1.09,1.09,0,0,0-.67.23,1.56,1.56,0,0,0-.48.63,2.18,2.18,0,0,0-.19.95V60H103V54.64h.68l.11,1h0a2.31,2.31,0,0,1,.59-.75A1.23,1.23,0,0,1,105.24,54.54Z"/><path d="M110.74,57.31a3.23,3.23,0,0,1-.59,2,2,2,0,0,1-1.66.74,2,2,0,0,1-1.17-.34,2.21,2.21,0,0,1-.78-1,3.71,3.71,0,0,1-.27-1.49,3.11,3.11,0,0,1,.59-2.05,2,2,0,0,1,1.65-.72,2,2,0,0,1,1.61.71A3,3,0,0,1,110.74,57.31Zm-3.59,0a2.93,2.93,0,0,0,.33,1.52,1.24,1.24,0,0,0,2.06,0,3,3,0,0,0,.32-1.52,3,3,0,0,0-.32-1.51,1.15,1.15,0,0,0-1-.53,1.12,1.12,0,0,0-1,.53A3,3,0,0,0,107.15,57.31Z"/><path d="M114.35,54.54a1.71,1.71,0,0,1,1.44.69,4.33,4.33,0,0,1,0,4.15,1.68,1.68,0,0,1-1.43.72,1.83,1.83,0,0,1-.91-.22,1.89,1.89,0,0,1-.59-.57h0c0,.12,0,.26,0,.41s0,.3,0,.41V62.4H112V54.64h.69l.12.73h0a2,2,0,0,1,.58-.61A1.78,1.78,0,0,1,114.35,54.54Zm-.17.72a1.13,1.13,0,0,0-1,.46,2.79,2.79,0,0,0-.31,1.42v.18a3.15,3.15,0,0,0,.3,1.54,1.1,1.1,0,0,0,1,.52,1,1,0,0,0,.93-.56,3.09,3.09,0,0,0,.31-1.51,3,3,0,0,0-.31-1.51A1,1,0,0,0,114.18,55.26Z"/><path d="M121.79,57.31a3.23,3.23,0,0,1-.59,2,2,2,0,0,1-1.66.74,2,2,0,0,1-1.17-.34,2.21,2.21,0,0,1-.78-1,3.71,3.71,0,0,1-.27-1.49,3.11,3.11,0,0,1,.59-2.05,2,2,0,0,1,1.65-.72,2,2,0,0,1,1.61.71A3.09,3.09,0,0,1,121.79,57.31Zm-3.59,0a2.93,2.93,0,0,0,.33,1.52,1.11,1.11,0,0,0,1,.55,1.08,1.08,0,0,0,1-.55,2.93,2.93,0,0,0,.33-1.52,2.87,2.87,0,0,0-.33-1.51,1.27,1.27,0,0,0-2.06,0A3,3,0,0,0,118.2,57.31Z"/><path d="M126.15,58.53a1.39,1.39,0,0,1-.52,1.17,2.17,2.17,0,0,1-1.39.4,3.6,3.6,0,0,1-.86-.09,2.09,2.09,0,0,1-.65-.24V59a3.65,3.65,0,0,0,.68.29,2.62,2.62,0,0,0,.83.13,1.3,1.3,0,0,0,.82-.21.7.7,0,0,0,.26-.57.66.66,0,0,0-.24-.52,3.1,3.1,0,0,0-.89-.51,6.88,6.88,0,0,1-.78-.42,1.58,1.58,0,0,1-.51-.48,1.35,1.35,0,0,1-.18-.72,1.23,1.23,0,0,1,.5-1,2.18,2.18,0,0,1,1.33-.37,3.47,3.47,0,0,1,.81.09,3.64,3.64,0,0,1,.72.26l-.3.68a4,4,0,0,0-.61-.23,2.39,2.39,0,0,0-.66-.09,1.24,1.24,0,0,0-.72.18.56.56,0,0,0-.25.48.66.66,0,0,0,.11.38,1.2,1.2,0,0,0,.37.3,7,7,0,0,0,.71.34,3.57,3.57,0,0,1,1,.63A1.25,1.25,0,0,1,126.15,58.53Z"/><path d="M129.2,54.54a1.91,1.91,0,0,1,1.09.3,2,2,0,0,1,.67.85,3.1,3.1,0,0,1,.24,1.25v.54h-3.26a2.28,2.28,0,0,0,.4,1.41,1.36,1.36,0,0,0,1.12.48,3.24,3.24,0,0,0,.79-.09A3.44,3.44,0,0,0,131,59v.75a3.12,3.12,0,0,1-.74.26,3.46,3.46,0,0,1-.83.09,2.13,2.13,0,0,1-1.72-.73,3,3,0,0,1-.61-2,3.34,3.34,0,0,1,.57-2.08A1.87,1.87,0,0,1,129.2,54.54Zm0,.7a1,1,0,0,0-.86.4A2.12,2.12,0,0,0,128,56.8h2.38a2,2,0,0,0-.28-1.12A.94.94,0,0,0,129.19,55.24Z"/><path d="M134.13,60.1a1.69,1.69,0,0,1-1.44-.7,4.33,4.33,0,0,1,0-4.15,1.7,1.7,0,0,1,1.44-.71,1.66,1.66,0,0,1,.89.22,1.82,1.82,0,0,1,.6.57h0c0-.11,0-.25,0-.4s0-.27,0-.38V52.4h.86V60h-.69l-.12-.71h0a2,2,0,0,1-.59.59A1.76,1.76,0,0,1,134.13,60.1Zm.16-.72a1.14,1.14,0,0,0,1-.46,2.5,2.5,0,0,0,.32-1.4v-.21a3.14,3.14,0,0,0-.3-1.53,1.08,1.08,0,0,0-1.05-.52,1,1,0,0,0-.94.55,3.25,3.25,0,0,0-.3,1.53,3,3,0,0,0,.31,1.51A1,1,0,0,0,134.29,59.38Z"/><path d="M104.58,72V64.86h.88v6.35h2.71V72Z"/><path d="M109.6,64.62a.48.48,0,0,1,.35.14.56.56,0,0,1,.14.43.53.53,0,0,1-.14.42.48.48,0,0,1-.35.14.52.52,0,0,1-.36-.14.54.54,0,0,1-.15-.42.56.56,0,0,1,.15-.43A.52.52,0,0,1,109.6,64.62Zm.41,2V72h-.85V66.64Z"/><path d="M113.92,66.54a1.68,1.68,0,0,1,1.29.46,2.12,2.12,0,0,1,.42,1.46V72h-.84V68.55a1.57,1.57,0,0,0-.25-1,.91.91,0,0,0-.77-.32,1.14,1.14,0,0,0-1,.48,2.88,2.88,0,0,0-.3,1.47V72h-.85V66.64h.68l.13.73h0a1.59,1.59,0,0,1,.64-.62A1.85,1.85,0,0,1,113.92,66.54Z"/><path d="M119,66.54a1.91,1.91,0,0,1,1.09.3,2,2,0,0,1,.68.85,3.1,3.1,0,0,1,.23,1.25v.54h-3.26a2.28,2.28,0,0,0,.41,1.41,1.35,1.35,0,0,0,1.11.48,3.24,3.24,0,0,0,.79-.09,3.06,3.06,0,0,0,.72-.28v.75a3,3,0,0,1-.73.26,3.49,3.49,0,0,1-.84.09,2.1,2.1,0,0,1-1.71-.73,3,3,0,0,1-.62-2,3.34,3.34,0,0,1,.57-2.08A1.87,1.87,0,0,1,119,66.54Zm0,.7a1,1,0,0,0-.86.4,2.12,2.12,0,0,0-.38,1.16h2.38a2.14,2.14,0,0,0-.27-1.12A1,1,0,0,0,119,67.24Z"/><path d="M124.08,66.54a1.73,1.73,0,0,1,1.32.45,2,2,0,0,1,.41,1.37V72h-.63l-.15-.75h0a2.07,2.07,0,0,1-.65.64,1.83,1.83,0,0,1-.93.21,1.5,1.5,0,0,1-1.11-.42,1.62,1.62,0,0,1-.41-1.17,1.48,1.48,0,0,1,.57-1.24,3,3,0,0,1,1.7-.48l.8,0v-.33a1.39,1.39,0,0,0-.24-.92.91.91,0,0,0-.72-.27,2.25,2.25,0,0,0-.68.11,4.48,4.48,0,0,0-.65.27l-.26-.64a3.28,3.28,0,0,1,.76-.32A3.37,3.37,0,0,1,124.08,66.54Zm.89,2.83-.68,0a2,2,0,0,0-1.17.31,1,1,0,0,0-.34.8.86.86,0,0,0,.24.68.86.86,0,0,0,.62.22,1.27,1.27,0,0,0,1-.39,1.58,1.58,0,0,0,.37-1.15Z"/><path d="M129.59,66.54a2.65,2.65,0,0,1,.58.06l-.12.82a1.37,1.37,0,0,0-.25,0l-.26,0a1.12,1.12,0,0,0-.68.23,1.65,1.65,0,0,0-.48.63,2.33,2.33,0,0,0-.19,1V72h-.85V66.64H128l.11,1h0a2.46,2.46,0,0,1,.59-.75A1.25,1.25,0,0,1,129.59,66.54Z"/><path d="M94.1,82.07a1.84,1.84,0,0,1-.63,1.48,2.4,2.4,0,0,1-1.67.55,6.23,6.23,0,0,1-1-.08,2.72,2.72,0,0,1-.79-.25v-.86a4.43,4.43,0,0,0,.83.29,4.09,4.09,0,0,0,1,.12,1.55,1.55,0,0,0,1-.32,1.1,1.1,0,0,0,.36-.85,1.11,1.11,0,0,0-.59-1,5.86,5.86,0,0,0-.87-.43,3.41,3.41,0,0,1-1.25-.79,1.86,1.86,0,0,1-.42-1.3,1.78,1.78,0,0,1,.27-1,1.75,1.75,0,0,1,.73-.64,2.59,2.59,0,0,1,1.11-.22,4.17,4.17,0,0,1,1,.11,3.94,3.94,0,0,1,.8.27l-.27.77a4.52,4.52,0,0,0-.73-.26,2.88,2.88,0,0,0-.78-.1,1.3,1.3,0,0,0-.9.29,1,1,0,0,0-.31.75,1.23,1.23,0,0,0,.13.61,1.26,1.26,0,0,0,.43.43,5.41,5.41,0,0,0,.83.4,4.09,4.09,0,0,1,1.3.8A1.7,1.7,0,0,1,94.1,82.07Z"/><path d="M97.66,78.54a1.71,1.71,0,0,1,1.44.69,4.33,4.33,0,0,1,0,4.15,1.68,1.68,0,0,1-1.43.72,1.83,1.83,0,0,1-.91-.22,1.89,1.89,0,0,1-.59-.57h0c0,.12,0,.26,0,.41s0,.3,0,.41V86.4h-.85V78.64H96l.12.73h0a2,2,0,0,1,.58-.61A1.78,1.78,0,0,1,97.66,78.54Zm-.17.72a1.13,1.13,0,0,0-1,.46,2.79,2.79,0,0,0-.31,1.42v.18a3.15,3.15,0,0,0,.3,1.54,1.1,1.1,0,0,0,1,.52,1,1,0,0,0,.93-.56,3.09,3.09,0,0,0,.31-1.51,3,3,0,0,0-.31-1.51A1,1,0,0,0,97.49,79.26Z"/><path d="M102.77,78.54a1.86,1.86,0,0,1,1.08.3,1.91,1.91,0,0,1,.68.85,3.1,3.1,0,0,1,.24,1.25v.54h-3.26a2.21,2.21,0,0,0,.41,1.41,1.32,1.32,0,0,0,1.11.48,3.1,3.1,0,0,0,.78-.09,3.31,3.31,0,0,0,.73-.28v.75a3.12,3.12,0,0,1-.74.26,3.46,3.46,0,0,1-.83.09,2.14,2.14,0,0,1-1.72-.73,3,3,0,0,1-.61-2,3.34,3.34,0,0,1,.57-2.08A1.87,1.87,0,0,1,102.77,78.54Zm0,.7a1,1,0,0,0-.87.4,2.12,2.12,0,0,0-.37,1.16h2.38a2,2,0,0,0-.28-1.12A.94.94,0,0,0,102.76,79.24Z"/><path d="M107.94,84.1a2,2,0,0,1-1.61-.68,4,4,0,0,1,0-4.19,2.09,2.09,0,0,1,1.64-.69,2.64,2.64,0,0,1,.7.08,2.23,2.23,0,0,1,.57.19l-.27.71a4.7,4.7,0,0,0-.49-.16,1.89,1.89,0,0,0-.51-.07c-.91,0-1.37.68-1.37,2a2.69,2.69,0,0,0,.34,1.5,1.11,1.11,0,0,0,1,.52,2.69,2.69,0,0,0,.65-.08,2.49,2.49,0,0,0,.56-.21v.74A2.47,2.47,0,0,1,107.94,84.1Z"/><path d="M111.93,83.38l.35,0a2,2,0,0,0,.31-.08v.67a1.57,1.57,0,0,1-.38.11,2.59,2.59,0,0,1-.47,0,1.43,1.43,0,0,1-1-.35,1.59,1.59,0,0,1-.39-1.23v-3.2h-.67v-.43l.69-.3.3-1.18h.53v1.23h1.31v.68h-1.31v3.16a1,1,0,0,0,.19.67A.63.63,0,0,0,111.93,83.38Z"/><path d="M115.81,78.54a2.49,2.49,0,0,1,.57.06l-.11.82-.25,0-.27,0a1.09,1.09,0,0,0-.67.23,1.67,1.67,0,0,0-.49.63,2.33,2.33,0,0,0-.18,1V84h-.85V78.64h.68l.11,1h0a2.43,2.43,0,0,1,.58-.75A1.27,1.27,0,0,1,115.81,78.54Z"/><path d="M121.31,81.31a3.17,3.17,0,0,1-.6,2,2.2,2.2,0,0,1-2.82.4,2.21,2.21,0,0,1-.78-1,3.71,3.71,0,0,1-.27-1.49,3.17,3.17,0,0,1,.58-2,2.23,2.23,0,0,1,3.27,0A3.09,3.09,0,0,1,121.31,81.31Zm-3.59,0a2.93,2.93,0,0,0,.33,1.52,1.11,1.11,0,0,0,1,.55,1.08,1.08,0,0,0,1-.55,2.93,2.93,0,0,0,.33-1.52,2.87,2.87,0,0,0-.33-1.51,1.27,1.27,0,0,0-2.06,0A3,3,0,0,0,117.72,81.31Z"/><path d="M124.27,78.54a1.79,1.79,0,0,1,.84.19,1.82,1.82,0,0,1,.65.62h0l.11-.71h.7v5.44a2.42,2.42,0,0,1-.55,1.72,2.23,2.23,0,0,1-1.72.6,4,4,0,0,1-1.69-.33v-.79a3.46,3.46,0,0,0,.8.29,3.93,3.93,0,0,0,.92.1,1.35,1.35,0,0,0,1-.38,1.48,1.48,0,0,0,.37-1.1v-.55q0-.23,0-.36h0a1.65,1.65,0,0,1-1.49.82,1.69,1.69,0,0,1-1.45-.72,3.43,3.43,0,0,1-.52-2,3.51,3.51,0,0,1,.52-2.06A1.71,1.71,0,0,1,124.27,78.54Zm.14.73a1,1,0,0,0-.92.53,3.08,3.08,0,0,0-.31,1.54c0,1.36.42,2,1.25,2a1.15,1.15,0,0,0,1-.45,2.33,2.33,0,0,0,.33-1.39v-.22a2.84,2.84,0,0,0-.33-1.57A1.15,1.15,0,0,0,124.41,79.27Z"/><path d="M130.42,78.54a2.49,2.49,0,0,1,.57.06l-.11.82-.25,0-.27,0a1.09,1.09,0,0,0-.67.23,1.67,1.67,0,0,0-.49.63,2.33,2.33,0,0,0-.18,1V84h-.85V78.64h.68l.11,1h0a2.43,2.43,0,0,1,.58-.75A1.27,1.27,0,0,1,130.42,78.54Z"/><path d="M133.55,78.54a1.69,1.69,0,0,1,1.31.45,2,2,0,0,1,.42,1.37V84h-.63l-.15-.75h0a2.1,2.1,0,0,1-.66.64,1.78,1.78,0,0,1-.93.21,1.46,1.46,0,0,1-1.1-.42,1.62,1.62,0,0,1-.41-1.17,1.5,1.5,0,0,1,.56-1.24,3,3,0,0,1,1.71-.48l.8,0v-.33a1.33,1.33,0,0,0-.25-.92.91.91,0,0,0-.71-.27,2.25,2.25,0,0,0-.68.11,4.06,4.06,0,0,0-.65.27l-.27-.64a3.34,3.34,0,0,1,1.67-.44Zm.89,2.83-.68,0a2,2,0,0,0-1.17.31,1,1,0,0,0-.34.8.9.9,0,0,0,.23.68.88.88,0,0,0,.63.22,1.25,1.25,0,0,0,.95-.39,1.58,1.58,0,0,0,.38-1.15Z"/><path d="M142.1,78.54a1.51,1.51,0,0,1,1.21.46,2.21,2.21,0,0,1,.4,1.47V84h-.85V80.55c0-.85-.31-1.28-.94-1.28a1,1,0,0,0-1,.45,2.54,2.54,0,0,0-.28,1.32v3h-.84V80.54a1.58,1.58,0,0,0-.24-1,.81.81,0,0,0-.71-.31,1,1,0,0,0-1,.52,3.21,3.21,0,0,0-.26,1.42V84h-.85V78.64h.68l.12.73h0a1.42,1.42,0,0,1,.59-.62,1.68,1.68,0,0,1,.83-.21,1.35,1.35,0,0,1,1.44.88h0a1.6,1.6,0,0,1,.64-.67A1.89,1.89,0,0,1,142.1,78.54Z"/><path d="M89.75,88.86a2.8,2.8,0,0,1,1.85.51,1.88,1.88,0,0,1,.59,1.51,2,2,0,0,1-.37,1.25,2.32,2.32,0,0,1-.93.67L92.66,96h-1l-1.57-3H88.92v3H88V88.86Zm0,.77h-.81V92.3h.87q1.5,0,1.5-1.38a1.2,1.2,0,0,0-.38-1A1.92,1.92,0,0,0,89.73,89.63Z"/><path d="M95.44,90.54a1.9,1.9,0,0,1,1.08.3,2,2,0,0,1,.68.85,3.1,3.1,0,0,1,.24,1.25v.54H94.17a2.28,2.28,0,0,0,.41,1.41,1.36,1.36,0,0,0,1.12.48,3.21,3.21,0,0,0,.78-.09,3.31,3.31,0,0,0,.73-.28v.75a3.28,3.28,0,0,1-.74.26,3.49,3.49,0,0,1-.84.09,2.1,2.1,0,0,1-1.71-.73,3,3,0,0,1-.62-2,3.34,3.34,0,0,1,.58-2.08A1.86,1.86,0,0,1,95.44,90.54Zm0,.7a1,1,0,0,0-.86.4,2.12,2.12,0,0,0-.37,1.16h2.38a2.14,2.14,0,0,0-.28-1.12A1,1,0,0,0,95.42,91.24Z"/><path d="M100.61,96.1A2,2,0,0,1,99,95.42a3,3,0,0,1-.59-2.07A3.12,3.12,0,0,1,99,91.23a2.09,2.09,0,0,1,1.64-.69,2.68,2.68,0,0,1,.7.08,2.29,2.29,0,0,1,.56.19l-.26.71a4.7,4.7,0,0,0-.49-.16,1.89,1.89,0,0,0-.51-.07c-.92,0-1.37.68-1.37,2a2.78,2.78,0,0,0,.33,1.5,1.12,1.12,0,0,0,1,.52,2.75,2.75,0,0,0,.65-.08,2.69,2.69,0,0,0,.56-.21v.74A2.5,2.5,0,0,1,100.61,96.1Z"/><path d="M107.18,93.31a3.17,3.17,0,0,1-.6,2,2,2,0,0,1-1.65.74,2,2,0,0,1-1.18-.34,2.13,2.13,0,0,1-.77-1,3.71,3.71,0,0,1-.27-1.49,3.17,3.17,0,0,1,.58-2,2,2,0,0,1,1.66-.72,2,2,0,0,1,1.61.71A3.09,3.09,0,0,1,107.18,93.31Zm-3.6,0a2.93,2.93,0,0,0,.34,1.52,1.23,1.23,0,0,0,2,0,2.94,2.94,0,0,0,.32-1.52A2.87,2.87,0,0,0,106,91.8a1.13,1.13,0,0,0-1-.53,1.11,1.11,0,0,0-1,.53A2.87,2.87,0,0,0,103.58,93.31Z"/><path d="M110.79,90.54a1.68,1.68,0,0,1,1.29.46,2.12,2.12,0,0,1,.42,1.46V96h-.84V92.55a1.57,1.57,0,0,0-.25-1,.91.91,0,0,0-.77-.32,1.14,1.14,0,0,0-1,.48,2.88,2.88,0,0,0-.3,1.47V96h-.85V90.64h.68l.13.73h0a1.59,1.59,0,0,1,.64-.62A1.85,1.85,0,0,1,110.79,90.54Z"/><path d="M117.12,94.53a1.41,1.41,0,0,1-.51,1.17,2.2,2.2,0,0,1-1.4.4,3.6,3.6,0,0,1-.86-.09,2,2,0,0,1-.64-.24V95a3.38,3.38,0,0,0,.68.29,2.6,2.6,0,0,0,.82.13,1.33,1.33,0,0,0,.83-.21.7.7,0,0,0,.25-.57.65.65,0,0,0-.23-.52,3.25,3.25,0,0,0-.89-.51,8.1,8.1,0,0,1-.79-.42,1.64,1.64,0,0,1-.5-.48,1.26,1.26,0,0,1-.18-.72,1.2,1.2,0,0,1,.5-1,2.18,2.18,0,0,1,1.33-.37,3.44,3.44,0,0,1,.8.09,3.23,3.23,0,0,1,.72.26l-.3.68a3.92,3.92,0,0,0-.6-.23,2.5,2.5,0,0,0-.66-.09,1.25,1.25,0,0,0-.73.18.58.58,0,0,0-.25.48.66.66,0,0,0,.11.38,1.25,1.25,0,0,0,.38.3,7,7,0,0,0,.71.34,3.71,3.71,0,0,1,1,.63A1.24,1.24,0,0,1,117.12,94.53Z"/><path d="M119.92,95.38a2.19,2.19,0,0,0,.36,0l.3-.08v.67a1.34,1.34,0,0,1-.38.11,2.49,2.49,0,0,1-.46,0,1.44,1.44,0,0,1-1-.35,1.63,1.63,0,0,1-.38-1.23v-3.2h-.67v-.43l.68-.3.3-1.18h.53v1.23h1.32v.68h-1.32v3.16a1,1,0,0,0,.19.67A.64.64,0,0,0,119.92,95.38Z"/><path d="M123.8,90.54a2.65,2.65,0,0,1,.58.06l-.12.82a1.37,1.37,0,0,0-.25,0l-.26,0a1.12,1.12,0,0,0-.68.23,1.65,1.65,0,0,0-.48.63,2.33,2.33,0,0,0-.19,1V96h-.85V90.64h.68l.11,1h0a2.46,2.46,0,0,1,.59-.75A1.25,1.25,0,0,1,123.8,90.54Z"/><path d="M129.31,90.64V96h-.69l-.12-.71h0a1.5,1.5,0,0,1-.64.61,1.91,1.91,0,0,1-.86.2,1.63,1.63,0,0,1-1.31-.49,2.28,2.28,0,0,1-.42-1.47v-3.5h.86v3.41c0,.88.34,1.32,1,1.32a1.17,1.17,0,0,0,1.08-.49,2.86,2.86,0,0,0,.29-1.43V90.64Z"/><path d="M132.8,96.1a2,2,0,0,1-1.6-.68,3,3,0,0,1-.6-2.07,3.12,3.12,0,0,1,.62-2.12,2.07,2.07,0,0,1,1.63-.69,2.71,2.71,0,0,1,.71.08,2.29,2.29,0,0,1,.56.19l-.27.71a4,4,0,0,0-.49-.16,1.89,1.89,0,0,0-.51-.07c-.91,0-1.37.68-1.37,2a2.77,2.77,0,0,0,.34,1.5,1.11,1.11,0,0,0,1,.52,2.63,2.63,0,0,0,.65-.08,2.49,2.49,0,0,0,.56-.21v.74A2.45,2.45,0,0,1,132.8,96.1Z"/><path d="M136.79,95.38a2.07,2.07,0,0,0,.35,0,1.73,1.73,0,0,0,.31-.08v.67a1.45,1.45,0,0,1-.38.11,2.5,2.5,0,0,1-.47,0,1.43,1.43,0,0,1-1-.35,1.59,1.59,0,0,1-.39-1.23v-3.2h-.67v-.43l.69-.3.3-1.18h.53v1.23h1.31v.68h-1.31v3.16a1,1,0,0,0,.19.67A.64.64,0,0,0,136.79,95.38Z"/><path d="M142.61,93.31a3.17,3.17,0,0,1-.59,2,2.21,2.21,0,0,1-2.83.4,2.13,2.13,0,0,1-.77-1,3.7,3.7,0,0,1-.28-1.49,3.17,3.17,0,0,1,.59-2,2,2,0,0,1,1.65-.72,2,2,0,0,1,1.62.71A3.09,3.09,0,0,1,142.61,93.31Zm-3.59,0a2.93,2.93,0,0,0,.33,1.52,1.24,1.24,0,0,0,2.06,0,2.94,2.94,0,0,0,.32-1.52,2.87,2.87,0,0,0-.32-1.51,1.28,1.28,0,0,0-2.07,0A3,3,0,0,0,139,93.31Z"/><path d="M146.13,90.54a2.49,2.49,0,0,1,.57.06l-.11.82a1.37,1.37,0,0,0-.25,0l-.27,0a1.11,1.11,0,0,0-.67.23,1.56,1.56,0,0,0-.48.63,2.33,2.33,0,0,0-.19,1V96h-.85V90.64h.68l.11,1h0a2.46,2.46,0,0,1,.59-.75A1.25,1.25,0,0,1,146.13,90.54Z"/><rect class="cls-3" x="45.5" y="63" width="32" height="24"/><path class="cls-4" d="M55.83,72l-2.12-6.16h0c0,.25,0,.54,0,.84s0,.61,0,.9V72h-.82V64.86H54.2l2,5.84h0l2-5.84h1.27V72h-.86V67.55c0-.27,0-.56,0-.86s0-.59,0-.84h0L56.57,72Z"/><path class="cls-4" d="M63.06,66.54a1.84,1.84,0,0,1,1.09.31,1.94,1.94,0,0,1,.68.85,3.19,3.19,0,0,1,.23,1.24v.54H61.8a2.27,2.27,0,0,0,.41,1.42,1.34,1.34,0,0,0,1.11.47,3.24,3.24,0,0,0,.79-.09,3.44,3.44,0,0,0,.72-.28v.75a3.68,3.68,0,0,1-.74.27,4.1,4.1,0,0,1-.83.08,2.14,2.14,0,0,1-1.72-.73,3,3,0,0,1-.61-2,3.34,3.34,0,0,1,.57-2.08A1.87,1.87,0,0,1,63.06,66.54Zm0,.7a1,1,0,0,0-.86.4,2.12,2.12,0,0,0-.38,1.16h2.38a2.07,2.07,0,0,0-.27-1.11A1,1,0,0,0,63.05,67.24Z"/><path class="cls-4" d="M67.15,72H66.3V64.4h.85Z"/><path class="cls-4" d="M68.27,69.71v-.79h2.34v.79Z"/><path class="cls-4" d="M54.79,82.07a1.9,1.9,0,0,1-.62,1.49,2.49,2.49,0,0,1-1.68.54,6.23,6.23,0,0,1-1-.08,2.72,2.72,0,0,1-.79-.25v-.86a4.31,4.31,0,0,0,.84.29,4,4,0,0,0,1,.12,1.55,1.55,0,0,0,1-.32,1.1,1.1,0,0,0,.36-.85,1.2,1.2,0,0,0-.13-.59,1.3,1.3,0,0,0-.46-.44,5.86,5.86,0,0,0-.87-.43,3.28,3.28,0,0,1-1.24-.79,1.82,1.82,0,0,1-.43-1.3,1.72,1.72,0,0,1,.27-1,1.66,1.66,0,0,1,.74-.64,2.51,2.51,0,0,1,1.1-.23,4.32,4.32,0,0,1,1,.11,4.06,4.06,0,0,1,.79.27l-.27.77a4.52,4.52,0,0,0-.73-.26,2.88,2.88,0,0,0-.78-.1,1.3,1.3,0,0,0-.9.29,1,1,0,0,0-.31.75,1.23,1.23,0,0,0,.13.61,1.21,1.21,0,0,0,.44.43,4.83,4.83,0,0,0,.82.4,3.93,3.93,0,0,1,1.3.81A1.66,1.66,0,0,1,54.79,82.07Z"/><path class="cls-4" d="M58.35,78.54a1.71,1.71,0,0,1,1.44.69,3.41,3.41,0,0,1,.53,2.08,3.49,3.49,0,0,1-.53,2.08,1.7,1.7,0,0,1-1.43.71,1.73,1.73,0,0,1-.91-.22,1.79,1.79,0,0,1-.59-.57h0c0,.12,0,.26,0,.42s0,.29,0,.4V86.4H56V78.64h.69l.12.73h0a1.78,1.78,0,0,1,.59-.6A1.62,1.62,0,0,1,58.35,78.54Zm-.17.72a1.12,1.12,0,0,0-1,.47,2.73,2.73,0,0,0-.31,1.41v.18a3.15,3.15,0,0,0,.3,1.54,1.1,1.1,0,0,0,1,.52,1,1,0,0,0,.93-.56,3.09,3.09,0,0,0,.31-1.51,3,3,0,0,0-.31-1.51A1,1,0,0,0,58.18,79.26Z"/><path class="cls-4" d="M63.46,78.54a1.84,1.84,0,0,1,1.09.31,1.94,1.94,0,0,1,.68.85,3.19,3.19,0,0,1,.23,1.24v.54H62.2a2.27,2.27,0,0,0,.41,1.42,1.34,1.34,0,0,0,1.11.47,3.24,3.24,0,0,0,.79-.09,3.44,3.44,0,0,0,.72-.28v.75a3.83,3.83,0,0,1-.73.27,4.28,4.28,0,0,1-.84.08A2.1,2.1,0,0,1,62,83.37a3,3,0,0,1-.62-2,3.34,3.34,0,0,1,.57-2.08A1.87,1.87,0,0,1,63.46,78.54Zm0,.7a1,1,0,0,0-.86.4,2.12,2.12,0,0,0-.38,1.16h2.38a2.07,2.07,0,0,0-.27-1.11A1,1,0,0,0,63.45,79.24Z"/><path class="cls-4" d="M68.63,84.1a2,2,0,0,1-1.6-.67,3.07,3.07,0,0,1-.6-2.08A3.12,3.12,0,0,1,67,79.23a2.11,2.11,0,0,1,1.64-.69,3.13,3.13,0,0,1,.7.08,2.23,2.23,0,0,1,.57.19l-.27.71a4.7,4.7,0,0,0-.49-.16,1.89,1.89,0,0,0-.51-.07c-.91,0-1.37.68-1.37,2a2.75,2.75,0,0,0,.34,1.51,1.12,1.12,0,0,0,1,.51,2.69,2.69,0,0,0,.65-.08,2.49,2.49,0,0,0,.56-.21v.74A2.47,2.47,0,0,1,68.63,84.1Z"/><path class="cls-4" d="M70.9,83.46a.66.66,0,0,1,.17-.5.55.55,0,0,1,.42-.16.6.6,0,0,1,.42.15.84.84,0,0,1,0,1,.57.57,0,0,1-.42.16.55.55,0,0,1-.42-.16A.67.67,0,0,1,70.9,83.46Z"/><rect class="cls-3" x="259.5" y="69" width="49" height="12"/><path class="cls-4" d="M270.52,70.86,268.78,78h-.94l-1.21-4.63c-.06-.23-.12-.47-.18-.74a6.5,6.5,0,0,1-.12-.67c0,.13-.06.34-.11.61s-.11.54-.18.81L264.86,78h-.94l-1.74-7.14h.91l1,4.37c.06.33.12.64.18.94s.1.56.13.79c0-.27.09-.55.15-.86s.13-.61.2-.9l1.13-4.34h.87l1.15,4.36c.08.29.15.59.21.89s.1.58.14.85c0-.27.07-.56.13-.85s.12-.6.2-.89l1-4.36Z"/><path class="cls-4" d="M273.05,72.54a1.7,1.7,0,0,1,1.31.45,2,2,0,0,1,.42,1.37V78h-.63l-.15-.75h0a2.1,2.1,0,0,1-.66.64,1.83,1.83,0,0,1-.93.21,1.46,1.46,0,0,1-1.1-.42,1.58,1.58,0,0,1-.41-1.17,1.47,1.47,0,0,1,.56-1.24,3,3,0,0,1,1.71-.48l.8,0v-.33a1.39,1.39,0,0,0-.25-.92.91.91,0,0,0-.71-.27,2.2,2.2,0,0,0-.68.11,4.06,4.06,0,0,0-.65.27l-.27-.64a3.18,3.18,0,0,1,.77-.32A3.26,3.26,0,0,1,273.05,72.54Zm.89,2.83-.68,0a1.93,1.93,0,0,0-1.17.31,1,1,0,0,0-.34.8.9.9,0,0,0,.23.69.92.92,0,0,0,.63.21,1.3,1.3,0,0,0,.95-.38,1.62,1.62,0,0,0,.38-1.16Z"/><path class="cls-4" d="M277.33,78l-1.79-5.36h.9l1,3.17q.09.31.21.69a5.91,5.91,0,0,1,.15.66h0a4.26,4.26,0,0,1,.14-.58c.07-.25.14-.48.21-.7l1-3.24h.9L278.29,78Z"/><path class="cls-4" d="M282.74,72.54a1.83,1.83,0,0,1,1.08.31,1.87,1.87,0,0,1,.68.85,3,3,0,0,1,.24,1.24v.54h-3.26a2.27,2.27,0,0,0,.4,1.42,1.38,1.38,0,0,0,1.12.47,3.21,3.21,0,0,0,.78-.09,3.31,3.31,0,0,0,.73-.28v.75a3.91,3.91,0,0,1-.74.27,4.1,4.1,0,0,1-.83.08,2.11,2.11,0,0,1-1.72-.73,3,3,0,0,1-.61-2,3.34,3.34,0,0,1,.57-2.08A1.87,1.87,0,0,1,282.74,72.54Zm0,.7a1.06,1.06,0,0,0-.87.4,2.12,2.12,0,0,0-.37,1.16h2.38a2.07,2.07,0,0,0-.28-1.11A.93.93,0,0,0,282.73,73.24Z"/><path class="cls-4" d="M288.18,73.32H287V78h-.86V73.32h-.83V72.9l.83-.29V72.3a2.27,2.27,0,0,1,.38-1.47,1.42,1.42,0,0,1,1.17-.48,2.76,2.76,0,0,1,.51.05,2.83,2.83,0,0,1,.44.12l-.22.68-.33-.09a1.47,1.47,0,0,0-.36,0,.62.62,0,0,0-.56.28,1.83,1.83,0,0,0-.17.93v.36h1.16Z"/><path class="cls-4" d="M293.28,75.31a3.17,3.17,0,0,1-.6,2,2,2,0,0,1-1.65.74,2.06,2.06,0,0,1-1.17-.33,2.19,2.19,0,0,1-.78-1,3.79,3.79,0,0,1-.27-1.5,3.17,3.17,0,0,1,.58-2,2.22,2.22,0,0,1,3.27,0A3,3,0,0,1,293.28,75.31Zm-3.59,0a3,3,0,0,0,.33,1.53,1.24,1.24,0,0,0,2.05,0,3,3,0,0,0,.33-1.53,2.87,2.87,0,0,0-.33-1.51,1.13,1.13,0,0,0-1-.53,1.11,1.11,0,0,0-1,.53A2.87,2.87,0,0,0,289.69,75.31Z"/><path class="cls-4" d="M296.79,72.54a2.65,2.65,0,0,1,.58.06l-.11.82-.25,0-.27,0a1.09,1.09,0,0,0-.67.23,1.61,1.61,0,0,0-.49.64,2.28,2.28,0,0,0-.18.94V78h-.86V72.64h.69l.1,1h.05a2.29,2.29,0,0,1,.58-.75A1.27,1.27,0,0,1,296.79,72.54Z"/><path class="cls-4" d="M303.56,72.54a1.5,1.5,0,0,1,1.21.46,2.21,2.21,0,0,1,.4,1.47V78h-.84V74.55c0-.85-.32-1.28-.95-1.28a1,1,0,0,0-.95.46,2.47,2.47,0,0,0-.29,1.31v3h-.84V74.54a1.58,1.58,0,0,0-.23-1,.87.87,0,0,0-.72-.31,1,1,0,0,0-1,.52,3.21,3.21,0,0,0-.26,1.42V78h-.85V72.64H299l.12.73h0a1.44,1.44,0,0,1,.6-.62,1.67,1.67,0,0,1,.82-.21,1.37,1.37,0,0,1,1.45.88H302a1.55,1.55,0,0,1,.63-.66A1.81,1.81,0,0,1,303.56,72.54Z"/><rect class="cls-5" x="207.5" y="69" width="40" height="12" rx="6"/><path d="M215.47,70.86,213.22,78h-.93l-2.24-7.14H211l1.41,4.67c.09.27.16.52.22.77s.11.49.15.72a7.27,7.27,0,0,1,.16-.72c.06-.25.13-.52.22-.79l1.41-4.65Z"/><path d="M220.27,75.31a3.23,3.23,0,0,1-.59,2,2,2,0,0,1-1.66.74,2,2,0,0,1-1.17-.34,2.13,2.13,0,0,1-.77-1,3.54,3.54,0,0,1-.28-1.49,3.17,3.17,0,0,1,.59-2,2,2,0,0,1,1.65-.72,2,2,0,0,1,1.62.71A3.09,3.09,0,0,1,220.27,75.31Zm-3.59,0a2.93,2.93,0,0,0,.33,1.52,1.24,1.24,0,0,0,2.06,0,3,3,0,0,0,.32-1.52,3,3,0,0,0-.32-1.51,1.15,1.15,0,0,0-1-.53,1.12,1.12,0,0,0-1,.53A3,3,0,0,0,216.68,75.31Z"/><path d="M223.47,78.1a2,2,0,0,1-1.6-.68,3,3,0,0,1-.6-2.07,3.12,3.12,0,0,1,.62-2.12,2.07,2.07,0,0,1,1.63-.69,2.76,2.76,0,0,1,.71.08,2.29,2.29,0,0,1,.56.19l-.27.71a4.7,4.7,0,0,0-.49-.16,1.89,1.89,0,0,0-.51-.07c-.91,0-1.37.68-1.37,2a2.69,2.69,0,0,0,.34,1.5,1.11,1.11,0,0,0,1,.52,2.69,2.69,0,0,0,.65-.08,2.49,2.49,0,0,0,.56-.21v.74A2.47,2.47,0,0,1,223.47,78.1Z"/><path d="M230,75.31a3.23,3.23,0,0,1-.59,2,2,2,0,0,1-1.66.74,2,2,0,0,1-1.17-.34,2.13,2.13,0,0,1-.77-1,3.54,3.54,0,0,1-.28-1.49,3.17,3.17,0,0,1,.59-2,2,2,0,0,1,1.65-.72,2,2,0,0,1,1.62.71A3.09,3.09,0,0,1,230,75.31Zm-3.59,0a2.93,2.93,0,0,0,.33,1.52,1.24,1.24,0,0,0,2.06,0,3,3,0,0,0,.32-1.52,3,3,0,0,0-.32-1.51,1.15,1.15,0,0,0-1-.53,1.12,1.12,0,0,0-1,.53A3,3,0,0,0,226.45,75.31Z"/><path d="M233,78.1a1.69,1.69,0,0,1-1.44-.7,4.33,4.33,0,0,1,0-4.15,1.86,1.86,0,0,1,2.34-.49,1.89,1.89,0,0,1,.59.57h0c0-.11,0-.25,0-.4s0-.27,0-.38V70.4h.86V78h-.69l-.12-.71h0a2,2,0,0,1-.59.59A1.76,1.76,0,0,1,233,78.1Zm.16-.72a1.16,1.16,0,0,0,1-.46,2.5,2.5,0,0,0,.31-1.4v-.21a3.27,3.27,0,0,0-.29-1.53,1.11,1.11,0,0,0-1.06-.52,1,1,0,0,0-.93.55,3.12,3.12,0,0,0-.31,1.53,3,3,0,0,0,.31,1.51A1,1,0,0,0,233.16,77.38Z"/><path d="M238.76,72.54a1.91,1.91,0,0,1,1.09.3,2.06,2.06,0,0,1,.68.85,3.28,3.28,0,0,1,.23,1.25v.54H237.5a2.21,2.21,0,0,0,.41,1.41,1.32,1.32,0,0,0,1.11.48,3.24,3.24,0,0,0,.79-.09,3.44,3.44,0,0,0,.72-.28v.75a3.12,3.12,0,0,1-.74.26,3.46,3.46,0,0,1-.83.09,2.1,2.1,0,0,1-1.71-.73,3,3,0,0,1-.62-2,3.34,3.34,0,0,1,.57-2.08A1.87,1.87,0,0,1,238.76,72.54Zm0,.7a1,1,0,0,0-.86.4,2.12,2.12,0,0,0-.38,1.16h2.38a2.14,2.14,0,0,0-.27-1.12A1,1,0,0,0,238.75,73.24Z"/><path d="M244.25,72.54a2.49,2.49,0,0,1,.57.06l-.11.82-.25,0-.27,0a1.09,1.09,0,0,0-.67.23,1.56,1.56,0,0,0-.48.63,2.18,2.18,0,0,0-.19,1V78H242V72.64h.68l.11,1h0a2.31,2.31,0,0,1,.59-.75A1.23,1.23,0,0,1,244.25,72.54Z"/><path d="M7.45,9H3.88V1.86H7.45v.78H4.76V4.89H7.29v.77H4.76V8.22H7.45Z"/><path d="M9.86,6.25,8.25,3.64H9.2l1.17,2,1.16-2h.94L10.86,6.26,12.56,9h-1L10.36,6.89,9.1,9H8.17Z"/><path d="M13.94,1.62a.48.48,0,0,1,.35.14.6.6,0,0,1,.14.43.57.57,0,0,1-.14.42.48.48,0,0,1-.35.14.49.49,0,0,1-.36-.14.54.54,0,0,1-.15-.42.56.56,0,0,1,.15-.43A.49.49,0,0,1,13.94,1.62Zm.41,2V9H13.5V3.64Z"/><path d="M19,7.53a1.41,1.41,0,0,1-.51,1.17,2.22,2.22,0,0,1-1.4.4A3.6,3.6,0,0,1,16.23,9a2.09,2.09,0,0,1-.65-.24V8a4,4,0,0,0,.68.29,2.66,2.66,0,0,0,.83.13,1.3,1.3,0,0,0,.82-.21.7.7,0,0,0,.26-.57.68.68,0,0,0-.23-.52,3.35,3.35,0,0,0-.9-.51c-.3-.14-.56-.28-.78-.41a1.6,1.6,0,0,1-.51-.49A1.35,1.35,0,0,1,15.57,5a1.21,1.21,0,0,1,.51-1,2.13,2.13,0,0,1,1.32-.37,3.47,3.47,0,0,1,.81.09,3.64,3.64,0,0,1,.72.26l-.3.68A4,4,0,0,0,18,4.34a2.39,2.39,0,0,0-.66-.09,1.24,1.24,0,0,0-.72.18.56.56,0,0,0-.25.48.66.66,0,0,0,.11.38,1.2,1.2,0,0,0,.37.3,7,7,0,0,0,.71.34,3.44,3.44,0,0,1,1,.63A1.22,1.22,0,0,1,19,7.53Z"/><path d="M21.8,8.38l.35,0a2,2,0,0,0,.31-.08v.67a1.22,1.22,0,0,1-.38.11,2.59,2.59,0,0,1-.47,0,1.43,1.43,0,0,1-1-.35,1.59,1.59,0,0,1-.39-1.23V4.32h-.67V3.89l.69-.3.3-1.18h.53V3.64H22.4v.68H21.09V7.48a1,1,0,0,0,.19.68A.65.65,0,0,0,21.8,8.38Z"/><path d="M23.87,1.62a.48.48,0,0,1,.35.14.6.6,0,0,1,.14.43.57.57,0,0,1-.14.42.48.48,0,0,1-.35.14.53.53,0,0,1-.37-.14.57.57,0,0,1-.14-.42.6.6,0,0,1,.14-.43A.53.53,0,0,1,23.87,1.62Zm.41,2V9h-.85V3.64Z"/><path d="M28.19,3.54A1.66,1.66,0,0,1,29.47,4a2.07,2.07,0,0,1,.43,1.46V9h-.85V5.55a1.51,1.51,0,0,0-.25-1A.89.89,0,0,0,28,4.27,1.15,1.15,0,0,0,27,4.75a3,3,0,0,0-.29,1.47V9h-.85V3.64h.68l.12.73h.05a1.47,1.47,0,0,1,.64-.62A1.79,1.79,0,0,1,28.19,3.54Z"/><path d="M33.12,3.54a1.8,1.8,0,0,1,.84.2,1.71,1.71,0,0,1,.65.61h0l.11-.71h.7V9.08a2.42,2.42,0,0,1-.55,1.72,2.23,2.23,0,0,1-1.72.6,4,4,0,0,1-1.69-.33v-.79a3.46,3.46,0,0,0,.8.29,3.93,3.93,0,0,0,.92.1,1.35,1.35,0,0,0,1-.38,1.48,1.48,0,0,0,.37-1.1V8.64q0-.23,0-.36h0a1.65,1.65,0,0,1-1.49.82,1.69,1.69,0,0,1-1.45-.72,3.43,3.43,0,0,1-.52-2.05,3.45,3.45,0,0,1,.52-2A1.7,1.7,0,0,1,33.12,3.54Zm.14.73a1,1,0,0,0-.92.53A3.08,3.08,0,0,0,32,6.34c0,1.36.42,2,1.25,2a1.15,1.15,0,0,0,1-.45,2.33,2.33,0,0,0,.33-1.39V6.32a2.84,2.84,0,0,0-.33-1.57A1.15,1.15,0,0,0,33.26,4.27Z"/><path d="M41.68,3.54a1.71,1.71,0,0,1,1.44.69,3.41,3.41,0,0,1,.53,2.08,3.43,3.43,0,0,1-.53,2.07,1.68,1.68,0,0,1-1.43.72,1.73,1.73,0,0,1-.91-.22,1.89,1.89,0,0,1-.59-.57h0c0,.12,0,.26,0,.41s0,.3,0,.41V11.4h-.85V3.64H40l.12.73h0a2,2,0,0,1,.58-.61A1.78,1.78,0,0,1,41.68,3.54Zm-.17.72a1.13,1.13,0,0,0-1,.46,2.79,2.79,0,0,0-.31,1.42v.18a3.15,3.15,0,0,0,.3,1.54,1.1,1.1,0,0,0,1,.52,1,1,0,0,0,.93-.56,3.09,3.09,0,0,0,.31-1.51,3,3,0,0,0-.31-1.51A1,1,0,0,0,41.51,4.26Z"/><path d="M45.37,1.62a.48.48,0,0,1,.35.14.6.6,0,0,1,.14.43.57.57,0,0,1-.14.42.48.48,0,0,1-.35.14A.53.53,0,0,1,45,2.61a.57.57,0,0,1-.14-.42A.6.6,0,0,1,45,1.76.53.53,0,0,1,45.37,1.62Zm.41,2V9h-.85V3.64Z"/><path d="M49.68,3.54a1.71,1.71,0,0,1,1.44.69,3.41,3.41,0,0,1,.53,2.08,3.43,3.43,0,0,1-.53,2.07,1.68,1.68,0,0,1-1.43.72,1.73,1.73,0,0,1-.91-.22,1.89,1.89,0,0,1-.59-.57h0c0,.12,0,.26,0,.41s0,.3,0,.41V11.4h-.85V3.64H48l.12.73h0a2,2,0,0,1,.58-.61A1.78,1.78,0,0,1,49.68,3.54Zm-.17.72a1.13,1.13,0,0,0-1,.46,2.79,2.79,0,0,0-.31,1.42v.18a3.15,3.15,0,0,0,.3,1.54,1.1,1.1,0,0,0,1,.52,1,1,0,0,0,.93-.56,3.09,3.09,0,0,0,.31-1.51,3,3,0,0,0-.31-1.51A1,1,0,0,0,49.51,4.26Z"/><path d="M54.79,3.54a1.91,1.91,0,0,1,1.09.3,1.94,1.94,0,0,1,.67.86,3,3,0,0,1,.24,1.24v.54H53.53a2.28,2.28,0,0,0,.4,1.41,1.36,1.36,0,0,0,1.12.48,3.1,3.1,0,0,0,.78-.09A3.31,3.31,0,0,0,56.56,8v.75a3.12,3.12,0,0,1-.74.26A3.46,3.46,0,0,1,55,9.1a2.13,2.13,0,0,1-1.72-.73,3,3,0,0,1-.61-2,3.34,3.34,0,0,1,.57-2.08A1.87,1.87,0,0,1,54.79,3.54Zm0,.7a1,1,0,0,0-.86.4,2.12,2.12,0,0,0-.38,1.16h2.38a2,2,0,0,0-.28-1.12A.94.94,0,0,0,54.78,4.24Z"/><path d="M58.88,9H58V1.4h.85Z"/><path d="M60.87,1.62a.48.48,0,0,1,.35.14.6.6,0,0,1,.14.43.57.57,0,0,1-.14.42.48.48,0,0,1-.35.14.53.53,0,0,1-.37-.14.57.57,0,0,1-.14-.42.6.6,0,0,1,.14-.43A.53.53,0,0,1,60.87,1.62Zm.41,2V9h-.85V3.64Z"/><path d="M65.19,3.54A1.66,1.66,0,0,1,66.47,4a2.07,2.07,0,0,1,.43,1.46V9h-.85V5.55a1.51,1.51,0,0,0-.25-1A.89.89,0,0,0,65,4.27,1.15,1.15,0,0,0,64,4.75a3,3,0,0,0-.29,1.47V9h-.85V3.64h.68l.12.73h0a1.51,1.51,0,0,1,.63-.62A1.86,1.86,0,0,1,65.19,3.54Z"/><path d="M70.29,3.54a1.86,1.86,0,0,1,1.08.3,1.89,1.89,0,0,1,.68.86,3,3,0,0,1,.24,1.24v.54H69a2.28,2.28,0,0,0,.4,1.41,1.36,1.36,0,0,0,1.12.48,3.1,3.1,0,0,0,.78-.09A3.31,3.31,0,0,0,72.06,8v.75a3.12,3.12,0,0,1-.74.26,3.46,3.46,0,0,1-.83.09,2.13,2.13,0,0,1-1.72-.73,3,3,0,0,1-.61-2,3.34,3.34,0,0,1,.57-2.08A1.87,1.87,0,0,1,70.29,3.54Zm0,.7a1,1,0,0,0-.87.4A2.12,2.12,0,0,0,69,5.8h2.38a2,2,0,0,0-.28-1.12A.94.94,0,0,0,70.28,4.24Z"/><path d="M5.56,43.86a2.71,2.71,0,0,1,1.87.54A2,2,0,0,1,8,46a2.6,2.6,0,0,1-.25,1.16,1.82,1.82,0,0,1-.82.8,3.22,3.22,0,0,1-1.5.3H4.76V51H3.88V43.86Zm-.06.76H4.76v2.84h.6a2.12,2.12,0,0,0,1.33-.34A1.35,1.35,0,0,0,7.12,46a1.29,1.29,0,0,0-.39-1A1.92,1.92,0,0,0,5.5,44.62Z"/><path d="M11.49,45.54a2.49,2.49,0,0,1,.57.06l-.11.82-.25-.05-.27,0a1.09,1.09,0,0,0-.67.23,1.63,1.63,0,0,0-.48.63,2.21,2.21,0,0,0-.19.95V51H9.24V45.64h.68l.11,1h0a2.31,2.31,0,0,1,.59-.75A1.23,1.23,0,0,1,11.49,45.54Z"/><path d="M17,48.31a3.17,3.17,0,0,1-.6,2,2,2,0,0,1-1.65.74,2,2,0,0,1-1.17-.34,2.21,2.21,0,0,1-.78-1,3.71,3.71,0,0,1-.27-1.49,3.17,3.17,0,0,1,.58-2.05,2,2,0,0,1,1.66-.72,2.06,2.06,0,0,1,1.62.71A3.09,3.09,0,0,1,17,48.31Zm-3.59,0a2.93,2.93,0,0,0,.33,1.52,1.24,1.24,0,0,0,2.06,0,3,3,0,0,0,.32-1.52,3,3,0,0,0-.32-1.51,1.15,1.15,0,0,0-1-.53,1.12,1.12,0,0,0-1,.53A3,3,0,0,0,13.4,48.31Z"/><path d="M20.6,45.54a1.71,1.71,0,0,1,1.44.69,4.33,4.33,0,0,1,0,4.15,1.68,1.68,0,0,1-1.43.72,1.73,1.73,0,0,1-.91-.22,1.89,1.89,0,0,1-.59-.57h-.05c0,.12,0,.26,0,.41s0,.3,0,.41V53.4h-.85V45.64H19l.12.73h0a2,2,0,0,1,.58-.61A1.78,1.78,0,0,1,20.6,45.54Zm-.17.72a1.13,1.13,0,0,0-1,.46,2.79,2.79,0,0,0-.31,1.42v.18a3.15,3.15,0,0,0,.3,1.54,1.1,1.1,0,0,0,1,.52,1,1,0,0,0,.93-.56,3.09,3.09,0,0,0,.31-1.51,3,3,0,0,0-.31-1.51A1,1,0,0,0,20.43,46.26Z"/><path d="M28,48.31a3.17,3.17,0,0,1-.6,2,2.2,2.2,0,0,1-2.82.4,2.21,2.21,0,0,1-.78-1,3.71,3.71,0,0,1-.27-1.49,3.17,3.17,0,0,1,.58-2.05,2.23,2.23,0,0,1,3.27,0A3.09,3.09,0,0,1,28,48.31Zm-3.59,0a2.93,2.93,0,0,0,.33,1.52,1.11,1.11,0,0,0,1,.55,1.08,1.08,0,0,0,1-.55,2.93,2.93,0,0,0,.33-1.52,2.87,2.87,0,0,0-.33-1.51,1.27,1.27,0,0,0-2.06,0A3,3,0,0,0,24.45,48.31Z"/><path d="M32.4,49.53a1.39,1.39,0,0,1-.52,1.17,2.17,2.17,0,0,1-1.39.4,3.75,3.75,0,0,1-.87-.09,2.12,2.12,0,0,1-.64-.24V50a3.65,3.65,0,0,0,.68.29,2.62,2.62,0,0,0,.83.13,1.3,1.3,0,0,0,.82-.21.7.7,0,0,0,.26-.57.66.66,0,0,0-.24-.52,3.1,3.1,0,0,0-.89-.51c-.3-.14-.56-.28-.78-.41a1.6,1.6,0,0,1-.51-.49A1.35,1.35,0,0,1,29,47a1.23,1.23,0,0,1,.5-1,2.18,2.18,0,0,1,1.33-.37,3.47,3.47,0,0,1,.81.09,3.64,3.64,0,0,1,.72.26l-.3.68a4,4,0,0,0-.61-.23,2.39,2.39,0,0,0-.66-.09,1.24,1.24,0,0,0-.72.18.56.56,0,0,0-.25.48.66.66,0,0,0,.11.38,1.2,1.2,0,0,0,.37.3,7,7,0,0,0,.71.34,3.57,3.57,0,0,1,1,.63A1.25,1.25,0,0,1,32.4,49.53Z"/><path d="M35.45,45.54a1.91,1.91,0,0,1,1.09.3,1.94,1.94,0,0,1,.67.86,3,3,0,0,1,.24,1.24v.54H34.19a2.28,2.28,0,0,0,.4,1.41,1.36,1.36,0,0,0,1.12.48,3.24,3.24,0,0,0,.79-.09,3.44,3.44,0,0,0,.72-.28v.75a3.12,3.12,0,0,1-.74.26,3.46,3.46,0,0,1-.83.09,2.13,2.13,0,0,1-1.72-.73,3,3,0,0,1-.61-2,3.34,3.34,0,0,1,.57-2.08A1.87,1.87,0,0,1,35.45,45.54Zm0,.7a1,1,0,0,0-.86.4,2.12,2.12,0,0,0-.38,1.16h2.38a2,2,0,0,0-.28-1.12A.94.94,0,0,0,35.44,46.24Z"/><path d="M40.38,51.1a1.69,1.69,0,0,1-1.44-.7,4.33,4.33,0,0,1,0-4.15,1.7,1.7,0,0,1,1.44-.71,1.66,1.66,0,0,1,.89.22,1.82,1.82,0,0,1,.6.57h.05c0-.11,0-.25,0-.4s0-.27,0-.38V43.4h.86V51H42l-.12-.71h-.05a2,2,0,0,1-.59.59A1.67,1.67,0,0,1,40.38,51.1Zm.16-.72a1.14,1.14,0,0,0,1-.46,2.5,2.5,0,0,0,.32-1.4v-.21a3.14,3.14,0,0,0-.3-1.53,1.08,1.08,0,0,0-1-.52,1,1,0,0,0-.94.55,3.25,3.25,0,0,0-.3,1.53,3,3,0,0,0,.31,1.52A1,1,0,0,0,40.54,50.38Z"/><path d="M48.94,45.54a1.71,1.71,0,0,1,1.44.69,4.33,4.33,0,0,1,0,4.15A1.68,1.68,0,0,1,49,51.1a1.73,1.73,0,0,1-.91-.22,1.89,1.89,0,0,1-.59-.57H47.4c0,.12,0,.26,0,.41s0,.3,0,.41V53.4H46.6V45.64h.69l.12.73h0a2,2,0,0,1,.58-.61A1.78,1.78,0,0,1,48.94,45.54Zm-.17.72a1.13,1.13,0,0,0-1,.46,2.79,2.79,0,0,0-.31,1.42v.18a3.15,3.15,0,0,0,.3,1.54,1.1,1.1,0,0,0,1,.52,1,1,0,0,0,.93-.56A3.09,3.09,0,0,0,50,48.31a3,3,0,0,0-.31-1.51A1,1,0,0,0,48.77,46.26Z"/><path d="M52.63,43.62a.48.48,0,0,1,.35.14.6.6,0,0,1,.14.43.57.57,0,0,1-.14.42.48.48,0,0,1-.35.14.53.53,0,0,1-.37-.14.57.57,0,0,1-.14-.42.6.6,0,0,1,.14-.43A.53.53,0,0,1,52.63,43.62Zm.41,2V51h-.85V45.64Z"/><path d="M56.94,45.54a1.71,1.71,0,0,1,1.44.69,4.33,4.33,0,0,1,0,4.15A1.68,1.68,0,0,1,57,51.1a1.73,1.73,0,0,1-.91-.22,1.89,1.89,0,0,1-.59-.57H55.4c0,.12,0,.26,0,.41s0,.3,0,.41V53.4H54.6V45.64h.69l.12.73h0a2,2,0,0,1,.58-.61A1.78,1.78,0,0,1,56.94,45.54Zm-.17.72a1.13,1.13,0,0,0-1,.46,2.79,2.79,0,0,0-.31,1.42v.18a3.15,3.15,0,0,0,.3,1.54,1.1,1.1,0,0,0,1,.52,1,1,0,0,0,.93-.56A3.09,3.09,0,0,0,58,48.31a3,3,0,0,0-.31-1.51A1,1,0,0,0,56.77,46.26Z"/><path d="M62.05,45.54a1.86,1.86,0,0,1,1.08.3,1.89,1.89,0,0,1,.68.86,3,3,0,0,1,.24,1.24v.54H60.79a2.28,2.28,0,0,0,.4,1.41,1.36,1.36,0,0,0,1.12.48,3.1,3.1,0,0,0,.78-.09,3.31,3.31,0,0,0,.73-.28v.75a3.12,3.12,0,0,1-.74.26,3.46,3.46,0,0,1-.83.09,2.13,2.13,0,0,1-1.72-.73,3,3,0,0,1-.61-2,3.34,3.34,0,0,1,.57-2.08A1.87,1.87,0,0,1,62.05,45.54Zm0,.7a1,1,0,0,0-.87.4,2.12,2.12,0,0,0-.37,1.16h2.38a2,2,0,0,0-.28-1.12A.94.94,0,0,0,62,46.24Z"/><path d="M66.14,51h-.85V43.4h.85Z"/><path d="M68.13,43.62a.48.48,0,0,1,.35.14.6.6,0,0,1,.14.43.57.57,0,0,1-.14.42.48.48,0,0,1-.35.14.53.53,0,0,1-.37-.14.57.57,0,0,1-.14-.42.6.6,0,0,1,.14-.43A.53.53,0,0,1,68.13,43.62Zm.41,2V51h-.85V45.64Z"/><path d="M72.45,45.54a1.66,1.66,0,0,1,1.28.46,2.07,2.07,0,0,1,.43,1.46V51h-.85V47.55a1.51,1.51,0,0,0-.25-1,.89.89,0,0,0-.76-.32,1.15,1.15,0,0,0-1.06.48A3,3,0,0,0,71,48.22V51H70.1V45.64h.68l.12.73h0a1.51,1.51,0,0,1,.63-.62A1.86,1.86,0,0,1,72.45,45.54Z"/><path d="M77.55,45.54a1.86,1.86,0,0,1,1.08.3,1.89,1.89,0,0,1,.68.86,3,3,0,0,1,.24,1.24v.54H76.29a2.28,2.28,0,0,0,.4,1.41,1.36,1.36,0,0,0,1.12.48,3.1,3.1,0,0,0,.78-.09,3.31,3.31,0,0,0,.73-.28v.75a3.12,3.12,0,0,1-.74.26,3.46,3.46,0,0,1-.83.09A2.13,2.13,0,0,1,76,50.37a3,3,0,0,1-.61-2A3.34,3.34,0,0,1,76,46.28,1.87,1.87,0,0,1,77.55,45.54Zm0,.7a1,1,0,0,0-.87.4,2.12,2.12,0,0,0-.37,1.16h2.38a2,2,0,0,0-.28-1.12A.94.94,0,0,0,77.54,46.24Z"/></svg>